<?xml version="1.0" encoding="utf-8"?>
<!-- Generator: Adobe Illustrator 25.2.1, SVG Export Plug-In . SVG Version: 6.00 Build 0)  -->
<svg version="1.1" id="Capa_1" xmlns="http://www.w3.org/2000/svg" xmlns:xlink="http://www.w3.org/1999/xlink" x="0px" y="0px"
	 viewBox="0 0 270 282.43" style="enable-background:new 0 0 270 282.43;" xml:space="preserve">
<style type="text/css">
	.st0{fill:#080607;}
	.st1{fill:#7E152B;}
	.st2{fill:#192737;}
	.st3{fill:#CF9A0B;}
	.st4{fill:#CF980C;}
	.st5{fill:#7E172B;}
	.st6{fill:#7F172B;}
	.st7{fill:#FFFFFD;}
	.st8{fill:#0D0607;}
	.st9{fill:#8A2827;}
	.st10{fill:#872628;}
	.st11{fill:#841F28;}
	.st12{fill:#872328;}
	.st13{fill:#831F29;}
	.st14{fill:#821B29;}
	.st15{fill:#862128;}
	.st16{fill:#801A2B;}
	.st17{fill:#80192B;}
	.st18{fill:#801A2A;}
	.st19{fill:#811A2A;}
	.st20{fill:#872428;}
	.st21{fill:#8C2A26;}
	.st22{fill:#923223;}
	.st23{fill:#892526;}
	.st24{fill:#C0C7E7;}
</style>
<path class="st0" d="M264.26,153.28c0.1,7.2-0.2,14.4-1.8,21.4c-3.1,13-6.5,26-13.4,37.6c-4,6.7-8,13.5-13.4,19.3
	c-4.2,4.6-8.2,9.4-13,13.4c-8.3,7.1-17.1,13.5-26.9,18.3c-17.7,8.8-36.4,13.8-56.3,14.4c-17.6,0.5-34.7-2.1-51.2-8.3
	c-9.3-3.7-18-8.1-26.3-13.6c-10.2-6.8-19.2-14.9-27.3-24.3c-5.3-6.1-9.4-12.9-13.5-19.8c-7.8-12.9-11.2-27.1-13.9-41.8
	c-1.9-10.4-2.1-20.7-0.5-31c2.2-14.2,5.5-28.3,12.6-41c4-7.1,8-14.3,13.3-20.5c7.9-9.2,16.5-17.8,26.5-24.7
	c11.9-8.2,24.7-14.4,38.6-18.4c1.3-0.4,2.5-0.4,2.5-2.6c0-9.1,7.8-16.6,16.7-15.7c2,0.2,3-0.1,3.9-2.2c2.7-6,8-8.6,14.3-8.5
	c6.4,0.1,11.4,2.8,13.9,9c0.7,1.7,1.3,2.2,3.2,1.9c8.5-1.4,18.5,6.9,17.3,15.8c-0.2,1.4,0.4,1.8,1.6,2.1c12.5,3.7,24.4,8.8,35.4,16
	c9.6,6.3,18.2,13.6,26,22.1c5.6,6.1,9.9,12.9,14.4,19.8c7,10.7,10.5,22.6,13.9,34.7C263.46,135.48,264.06,144.28,264.26,153.28z"/>
<path class="st1" d="M262.56,153.38c0.2,4.6,0.1,9.2-0.7,13.7c-2.5,13-5,26.2-11.2,38.1c-4.3,8.3-9,16.4-15,23.6
	c-7.8,9.2-16.4,17.7-26.4,24.5c-15.6,10.5-32.8,17.7-51.4,20.9c-7.5,1.3-15.1,2.1-22.6,2c-15-0.2-29.8-2.3-44.1-7.6
	c-10.4-3.9-20.3-8.7-29.5-14.9c-3.9-2.7-7.4-5.9-11.2-8.7c-6.8-4.9-11.8-11.6-17.3-17.8c-3.9-4.4-6.7-9.7-9.8-14.8
	c-7.6-12.5-12-26.1-14.1-40.5c-2.7-18.2-1.4-36.2,3.8-53.9c4-13.7,10.7-26,19.3-37.1c8.5-11.2,18.7-20.7,30.6-28.5
	c7.1-4.6,14.5-8.5,22.2-11.8c4.9-2.1,9.9-4,15.2-5.2c1.9-0.4,2.2-1.3,2.2-3.1c-0.3-7.1,3.3-12.3,9.5-14.1c2.4-0.7,5-0.6,7.4-0.1
	c1.4,0.3,1.7-0.1,2-1.2c2.2-8.2,11.7-12.2,20-8.4c3.3,1.5,5.8,4.3,6.7,8c0.5,1.8,1.3,2.1,3.1,1.7c6.4-1.4,12.4,1.9,15.3,7.6
	c1.2,2.3,1.6,4.5,1.3,6.9c-0.2,1.7,0.5,2.4,2,2.8c8.7,2.3,16.9,5.7,24.9,9.6c2.6,1.3,5.1,2.9,7.7,4.4c8.8,5.3,16.8,11.5,24,18.7
	c7.9,8.1,14.6,17.1,20.5,27c7.6,12.9,11.2,26.8,14,41.2C262.16,142.18,262.26,147.78,262.56,153.38z"/>
<path class="st2" d="M141.66,58.78c3.6,0.5,7.2,1,10.8,1.5c8.5,1.3,16.7,3.9,24.5,7.5c11,5.1,20.9,11.8,29.5,20.5
	c5.2,5.2,9.2,11.1,13.2,17.1c11.1,17,14.5,36,13.2,55.9c-0.8,12.6-4.2,24.7-10.4,35.8c-3.7,6.6-7.8,13-13,18.6
	c-7.6,8-16.1,15-25.8,20.2c-11.4,6-23.4,9.9-36.2,11.5c-16.3,2-32.1,0.1-47.4-5.4c-8-2.9-15.5-6.8-22.5-11.7
	c-8.2-5.6-15-12.6-21.3-20.1c-3-3.6-5-7.9-7.5-11.7c-5.5-8.5-8.4-17.9-10.2-27.7c-3.4-18.2-1.8-36,5.4-53.1
	c3.8-9,8.9-17.4,15.3-24.7c11.1-12.9,24.7-22.2,40.6-28c8.8-3.2,17.9-5.6,27.3-5.8c0.5,0,1-0.2,1.6-0.4c0.9,0.3,1.1,0.9,0.7,1.7
	c-0.9,0.9-2.1,1-3.2,1.1c-9.7,0.7-19.1,3.1-28.1,6.5c-2,0.8-3.2,1.9-2.9,4.1c0.2,2.2-0.8,3.5-2.7,4.4c-8.6,4.5-16.2,10.1-23,17
	c-8.9,9-15.3,19.5-19.7,31.4c-4.2,11.1-5.5,22.4-5,34.1c0.4,9.4,3.3,18.3,6.7,27c4.7,12.1,12.3,22.1,21.7,30.6
	c13.9,12.5,30.3,20.2,49,22.7c16,2.2,31.6,0.5,46.6-5.3c8.7-3.4,16.7-7.9,24.1-13.9c10.1-8.2,18.1-18,24-29.6
	c7.2-14.1,9.6-29,8.5-44.6c-0.4-6-1.2-12-3.4-17.7c-4.7-12.2-10.3-23.8-19.7-33.2c-7.1-7.1-14.6-13.5-23.6-17.9
	c-2.2-1.1-3.4-2.5-3.1-5c0.2-1.9-0.7-2.9-2.4-3.6c-9.4-3.8-19-6.2-29.1-7c-1.2-0.1-2.3-0.1-3.2-1
	C140.06,59.38,140.56,58.88,141.66,58.78z"/>
<path class="st3" d="M129.26,60.48c0.2-0.7-0.3-1.1-0.6-1.6c0.3-2.3-1.1-4.2-1.7-6.3c-0.3-1.3-1.4-0.3-2-0.1
	c-3.9,1.2-7.7,2.8-12,2.6c-4.1-0.1-5.5-2.3-3.6-6c1.8-3.4,4.7-5.8,7.6-8.2c2.5-2.1,2.5-2.1,0.2-4.3c-2.2-2.2-5-3.8-6.7-6.5
	c-0.6-1-1.3-2-1.7-3c-0.8-2.6,0.3-4.1,3.1-4.4c4.4-0.5,8.4,1.1,12.5,2.4c3.6,1.1,3.5,1.1,4.4-2.4c0.8-3.2,1.5-6.5,2.9-9.5
	c0.8-1.7,1.8-3.4,4-3.4s3,1.7,3.8,3.3c1.7,3.4,3.2,6.9,3.6,10.8c0.2,2.1,1.1,2,2.6,1.5c3.6-1.3,7.3-2.5,11.2-2.6
	c1.8,0,3.8-0.3,4.8,1.6s0.1,3.7-1.1,5.2c-2.2,2.7-4.1,5.6-7.3,7.4c-2.3,1.3-2.1,2.6,0.1,4c1.1,0.7,2,0.9,2.1-0.9
	c0.1-2.3,1.2-3,3.5-2.2c2.2,0.8,4.5,1.1,6.8,1.6c1.7,0.4,1.5,1.3,1,2.6c-0.4,1.1-0.2,2.7-2.2,1.9c-0.1,0-0.2-0.1-0.3,0
	c-1.1,0.2-2.8-1.6-3.2,0.1c-0.4,1.4,1.8,1.1,2.7,1.3c1.3,0.3,1.6,1,1.2,2.1c-0.4,1,0.1,2.8-2,2.3c-0.4-0.1-0.8-0.5-1.3-0.1
	c-0.1,0.9,0.2,1.6,1.2,1.7c1.8,0.1,1.6,1,1.3,2.4c-0.4,1.9-0.8,2.5-3.1,2.2c-5.6-0.9-11.3-1.5-16.6-3.8c-1.1-0.4-1.7-0.2-1.9,1.1
	c-0.3,1.9-0.7,3.9-1.1,5.8c-0.6,0.4-1.3,0.7-1,1.7c0.2,2.7-1.8,6.7-3.9,7.9c-1.8,1-3.4,0.2-4.6-1
	C130.36,65.48,129.16,63.18,129.26,60.48z"/>
<path class="st3" d="M38.96,210.08c1.8-0.4,3.6-0.8,5.5-1.1c2.2-0.4,4.1,1.2,5,4.4c0.5,1.9-1.3,1.9-2.3,2.7
	c-3.3,2.5-6.6,4.9-9.8,7.5c-1.2,1-2,1.2-2.5-0.4c-0.5-1.4-2.8-2.1-2.2-3.7c0.5-1.1,2.2-1.6,3.4-2.4c0.8-0.5,1.5-1.2,2.6-2.1
	c-2.5-0.2-4.4,0.6-6.4,0.9c-1.3,0.3-2.1,0.1-2.8-1.2c-0.6-1.2-0.6-2,0.4-3c1.4-1.3,2.5-3,4.4-4.3c-2.3-0.1-3.8,1.1-5.5,1.7
	c-3.5,1.2-3.1-2.1-4.1-3.6c-1.2-1.7,1-1.5,1.7-1.8c4.1-1.5,8.3-2.9,12.4-4.3c1.3-0.5,2.2-0.4,3.1,1.1c2.1,3.8,2.2,3.7-0.8,6.8
	c-0.8,0.8-1.5,1.5-2.3,2.2C38.76,209.78,38.86,209.98,38.96,210.08z"/>
<path class="st3" d="M232.46,213.08c1.8,0.9,3.5,1.9,5.4,2.8c1.2,0.6,1.2,1.2,0.7,2.4c-2,4-2.1,4.1-6.1,1.8c-3.6-2-7.1-4.1-10.7-6.2
	c-0.4-0.2-0.9-0.2-0.9-0.8c0-0.8,3.7-4.7,4.5-4.8c1.2-0.1,2.5-0.3,3.7-0.3c1.1-0.1,2.3,0,3.7-0.4c-1.4-0.8-2.8-1.7-4.2-2.5
	c-1.5-0.8-2.3-1.6-0.9-3.2c0.4-0.5,0.8-1.2,1.1-1.9c0.4-1,1-1.3,2-0.7c4.1,2.3,8.2,4.6,12.4,6.9c1.4,0.8,1.2,1.5,0.7,2.8
	c-1.1,3.3-3.8,3.6-6.6,3.7c-1.6,0-3.1,0-4.7,0C232.46,212.78,232.46,212.98,232.46,213.08z"/>
<path class="st3" d="M189.96,59.08c-0.7,1.1-1.4,2.2-2,3.4c-1.8,3.2-0.8,3.3-4.9,1.1c-0.9-0.5-2.2-0.7-1.3-2.3
	c2.3-4.1,4.6-8.3,6.9-12.4c0.2-0.4,0.4-0.8,0.9-0.9c1.4-0.2,5.7,3.1,5.7,4.6c0,2.3,0,4.6,0.6,7c0.9-1.6,1.9-3.1,2.7-4.8
	c0.7-1.3,1.3-1.7,2.7-0.8c4.1,2.5,3.7,1.4,1.6,5.4c-1.7,3.2-3.6,6.4-5.3,9.7c-0.7,1.3-1.1,1.8-2.8,1.1c-4.3-2-4.3-1.9-4.3-6.6
	c0-1.3,0-2.7,0-4C190.36,59.18,190.16,59.18,189.96,59.08z"/>
<path class="st3" d="M22.26,142.58c1.9,0.3,3,0.6,4.2,0.7c3.5,0.4,4.7,2.7,3,5.8c-0.4,0.8-1,0.6-1.6,0.5c-4.7-0.6-9.4-1.4-14-1.9
	c-1.3-0.2-1.7-0.7-1.6-1.9c0.3-2.7,0.6-5.2,4.1-5.9c1.8-0.3,3.4-1.3,5.6-2.2c-2.4-0.3-4.2-0.7-6-0.8c-2-0.1-2.6-1.1-2.1-2.8
	c0.5-1.3-0.7-3.9,2.6-3.3c4.5,0.8,9,1.2,13.5,1.8c0.6,0.1,1.2,0.2,1.5,0.9c0.7,1.9-0.9,5.6-2.8,6.4
	C26.76,140.68,24.86,141.48,22.26,142.58z"/>
<path class="st3" d="M220.16,72.08c0,4.9-4,8.8-8.9,8.8c-5.6,0-9.8-4.1-9.7-9.3c0.1-5.1,4-8.7,9.5-8.7
	C216.26,62.98,220.16,66.98,220.16,72.08z"/>
<path class="st3" d="M225.46,100.38c0-5.1,3.9-8.8,9.2-8.7c5.1,0,9.2,4.1,9.2,9.2s-3.8,9.1-8.9,9.1
	C229.56,109.98,225.46,105.78,225.46,100.38z"/>
<path class="st3" d="M247.86,177.28c-5.4,0-9-3.5-9.1-8.8c0-5.6,3.7-9.6,9-9.5c5.1,0.1,9.4,4.1,9.3,8.9
	C256.96,173.48,253.26,177.28,247.86,177.28z"/>
<path class="st3" d="M87.76,62.68c-5.5,0-9.1-3.5-9.1-9c0-5,4.1-8.8,9.5-8.9c5.3,0,9.1,3.8,9.1,9.1S93.46,62.68,87.76,62.68z"/>
<path class="st3" d="M91.46,263.38c-3.2-0.1-6.3-1.6-9.5-2.9c-1-0.4-1-1-0.6-1.9c1.8-4.3,3.5-8.6,5.2-12.9c0.5-1.2,1.2-1.5,2.3-1
	c2.7,1,5.3,2,7.7,3.6c3.1,2.1,4.3,5.7,3.2,9.4C98.66,261.28,95.66,263.38,91.46,263.38z"/>
<path class="st3" d="M241.76,123.58c-0.6-1.8-0.8-3,1.1-3.4c1.4-0.4,2.3-0.5,2.7,1.3s1.1,3.6,1.8,5.3c0.6,1.5-0.1,2.2-1.4,2.5
	c-6.8,1.5-11.4-3.3-11.9-8.7c-0.4-5.1,5.2-10.7,12.1-8.8c5.8,1.6,8.6,8.3,5.7,13.2c-0.6,1.1-1.1,1.8-2.2,0.3
	c-1.2-1.7-3.7-2.5-2.7-5.4c0.4-1.2-0.9-2.1-2.1-2.3c-1.8-0.3-3.5,0.3-4.5,1.8C239.46,120.68,239.66,122.18,241.76,123.58z"/>
<path class="st3" d="M64.86,251.08c-2.7-2.9-7.7-3.6-5-8.8c-1.2-0.2-1.5,0.6-1.8,1.1c-0.8,1.3-1.5,1.6-2.8,0.4
	c-3.3-2.6-3.3-2.5-0.6-5.9c2.4-3,4.6-6.1,7.3-8.8c1-1,1.6-1,2.6-0.2c1.6,1.3,3.2,2.6,4.8,3.8c2.3,1.8,3.4,4,2.5,6.8
	c-0.8,2.5-2.5,4.1-5.4,3.6c-1.1-0.2-0.8,0.7-0.9,1.2C65.26,246.38,65.06,248.48,64.86,251.08z"/>
<path class="st3" d="M66.56,74.28c-0.2,3.5-2,5.9-5,7.3s-6,1.3-8.6-1.2c-2.3-2.2-4.2-4.9-6.8-6.8c-0.9-0.7-1-1.4,0.1-2
	c0.1,0,0.2-0.1,0.2-0.2c3.9-2.8,3.9-2.9,7.4,0.8c1,1.1,2,2.3,3.1,3.3c0.7,0.7,1.5,1.4,2.6,0.5c1-0.9,0.5-1.9-0.2-2.6
	c-1.7-1.9-3.4-3.7-5.2-5.5c-1.3-1.3-1.8-2.4,0.2-3.5c0.4-0.2,0.7-0.5,1-0.9c1.2-1.5,2-1.6,3.5,0c1.9,2,4,3.7,5.8,5.9
	C65.76,70.88,66.76,72.38,66.56,74.28z"/>
<path class="st3" d="M166.46,261.98c0,5.7-5.4,9.1-10.6,7.6c-2.8-0.8-4.7-2.4-5.3-5.4c-0.6-2.7-1.2-5.4-1.9-8.1
	c-0.3-1.3-0.2-1.8,1.3-2.2c4.8-1.3,4.8-1.4,5.9,3.6c0.4,1.7,0.9,3.5,1.3,5.2c0.3,1,0.7,2,2,1.5c1.1-0.4,1.3-1.3,1-2.4
	c-0.6-2.4-1.1-4.9-1.7-7.3c-0.4-1.6-0.2-2.5,1.6-2.8c4.7-0.8,3.6-1.7,4.8,2.9C165.56,257.28,166.26,259.98,166.46,261.98z"/>
<path class="st3" d="M219.76,239.38c-0.2-0.4-0.5-0.8-0.8-1.2c-2.4-4.2-4.7-8.4-7.1-12.6c-0.7-1.2-0.7-1.9,0.2-3
	c3.2-3.6,3.1-3.7,7.8-2c3.8,1.4,7.5,2.8,11.3,4.2c1.3,0.5,1.6,1.2,0.4,2c-1.6,1.1-1.9,4.3-5.1,3.2c-0.5-0.2-3.1,1.6-2.3,4
	C224.66,235.18,221.16,239.48,219.76,239.38z"/>
<path class="st3" d="M101.06,267.48c2.6-4.4,5.3-8.7,7.8-13.1c1-1.8,1.8-2.3,3.9-1.8c4.7,1,4.7,0.8,5.4,5.6c0.5,3.7,1,7.4,1.6,11.1
	c0.3,1.8-0.5,2.2-1.8,1.6c-1.8-0.7-4.6,0.4-5.3-2.9c-0.2-0.8-2.9-1.4-3.6-0.7c-2.6,2.8-5.1,0.5-7.6,0.4
	C101.26,267.58,101.16,267.48,101.06,267.48z"/>
<path class="st3" d="M206.26,250.08c-1.7,1-3.1,1.9-4.6,2.8c-0.5,0.3-1,0.6-1.7,0.2c-2.3-1-4.3,0.1-4.4,2.6
	c-0.1,1.9-1.8,1.5-2.7,2.1c-3.3,2.1-3.3,2-4.1-1.7c-0.8-3.9-1.6-7.9-2.4-11.8c-0.4-1.6,0.1-2.4,1.4-3.3c4.4-2.6,4.3-2.6,8.2,0.6
	C199.36,244.38,202.76,247.18,206.26,250.08z"/>
<path class="st3" d="M35.36,122.88c0.3,3.1-1.8,5.4-4,7.4c-1.6,1.4-2.4-1.1-3.6-1.7c-1.2-0.5-0.5-1.2,0.1-1.8
	c0.2-0.2,0.4-0.4,0.6-0.6c0.7-0.9,1.8-2.3,0.8-3c-1.1-0.7-1.5,1.1-2,1.9c-1.3,2-3,3.1-5.4,2.4c-3.1-0.8-4.5-2.3-4.7-5
	c-0.1-2,0-3.9,1-5.7c1.9-3.4,2.3-3.5,5.2-1.1c0.9,0.8,1.4,1.2,0.3,2.2c-0.5,0.5-0.8,1.2-1.1,1.8c-0.1,0.4-0.1,1.1,0.2,1.2
	c0.6,0.4,0.9-0.2,1.2-0.6c0.2-0.3,0.4-0.6,0.5-0.9c1.9-3.1,3.3-3.8,6-3C33.76,117.28,35.36,119.28,35.36,122.88z"/>
<path class="st3" d="M60.96,226.38c-0.4,0.2-0.8,0.3-1,0.6c-1.9,2.1-3.5,2.3-5.2-0.3c-0.3-0.5-0.8-1.5-1.6-0.8
	c-0.7,0.7,0.3,1.2,0.6,1.8c0.6,1,2.6,1.6,0.6,3.3c-1.7,1.4-2.7,1.7-4-0.3c-0.4-0.7-0.9-2-2-1c-0.8,0.7,0.3,1.4,0.8,2
	c2.1,2.7,2.1,2.9-0.3,4.6c-1.1,0.8-2,0.8-2.8-0.2c-1.8-2.1-3.5-4.3-5.3-6.4c-0.8-0.9-0.9-1.6,0.1-2.4c3.8-2.9,7.6-5.9,11.3-9
	c1-0.9,1.5-0.4,2.1,0.4C56.56,221.28,58.76,223.78,60.96,226.38z"/>
<path class="st4" d="M251.26,155.68c0.9-2.3,2-4.5-0.5-6.1c-1.3-0.8-3.1-0.9-4.3,0.2c-2.3,1.9-0.8,4,0.3,6.4c-1.9,0-3.5,0-5.1,0
	c-1.1,0-1.5-0.7-1.8-1.6c-1.1-3.7,0.1-7.8,3.1-10.1c2.9-2.2,8.1-2.3,11.3,0c2.8,2,4.2,6.4,3.3,9.9c-0.3,1.1-0.9,1.4-1.9,1.4
	C254.36,155.68,252.96,155.68,251.26,155.68z"/>
<path class="st3" d="M182.66,251.38c-2.3-0.4-4.7-0.8-5.9,1.7c-0.7,1.4-0.4,3.1,1.1,4.1c2.8,1.7,4.6-0.5,6.5-2.3
	c0.4,1,0.6,1.8,0.9,2.6c1.4,3.5,1.1,4.2-2.4,5.5c-5.3,2-10.6-0.4-12.3-5.7c-1.7-5.1,1.3-9.9,6.8-11.5c1.8-0.5,2.8-0.1,3.7,1.4
	C181.76,248.58,182.36,249.88,182.66,251.38z"/>
<path class="st3" d="M181.36,54.88c-1.3,1.4-1.7,2.7-2.1,4c-0.6,2.2-2,2.4-3.9,1.8c-3.9-1.1-6.5-3.9-6.9-7.4
	c-0.4-3.7,1.3-7.4,4.3-9.2c2.9-1.7,8.1-1.3,10.7,0.7c0.8,0.6,1.2,1.2,0.7,2.2c-0.6,1.4-1.1,2.8-1.7,4.3c-2.1-1.4-3.9-3.6-6.6-1.9
	c-1.3,0.8-1.8,2.3-1.1,3.8C176.26,55.88,178.56,55.68,181.36,54.88z"/>
<path class="st4" d="M128.96,255.38c5.2-1.3,5.7-1.1,8.8,3.3c0.8-6.1,5.4-3.3,9.2-4.4c-1.9,3.3-3.2,6.2-5.1,8.8
	c-1.6,2.2-1.5,4.5-0.7,6.7c0.6,1.7,0,1.8-1.3,1.9c-5.2,0.5-5.3,0.5-5.2-4.8c0-1.6-0.4-2.9-1.3-4.2c-1.5-2.1-2.8-4.4-4.2-6.5
	C129.06,255.98,129.06,255.78,128.96,255.38z"/>
<path class="st3" d="M207.76,227.48c1.2,0.7,2.1,2.1,3.1,3.3c0.9,1.1-0.3,1.6-0.9,2.1c-1.2,1-0.3,1.8,0.3,2.5
	c1.5,1.9,3.1,3.7,4.8,5.4c1.2,1.2,1.1,2-0.2,2.9c-0.7,0.5-1.3,1.2-2,1.8c-0.8,0.7-1.4,0.7-2.2-0.2c-1.8-2.1-3.8-3.9-5.7-6
	c-0.8-0.9-1.3-1.4-2.6-0.4c-2.5,2.1-2.7-1.2-3.9-1.9c-1.4-0.9-0.5-1.7,0.3-2.5c2.4-2.1,4.9-4.2,7.3-6.3
	C206.46,227.88,206.86,227.38,207.76,227.48z"/>
<path class="st3" d="M74.36,71.48c-0.9,0.1-1.2-0.5-1.6-1c-1.5-2.2-3.2-4.3-4.6-6.6c-0.7-1.1-1.2-1.4-2.5-0.6
	c-2.8,1.8-2.5-1.7-3.8-2.6c-1.3-0.9-0.1-1.6,0.7-2.1c2.6-1.8,5.2-3.5,7.6-5.4c1.2-0.9,1.9-0.7,2.5,0.5c0.4,0.7,1,1.2,1.6,1.8
	c1,0.8,1.2,1.8-0.4,2.4c-2.1,0.7-1.5,2-0.4,3c1.9,1.6,2.9,3.8,4.4,5.7c1.2,1.4,0.8,2.3-0.7,3.1C76.26,69.98,75.26,70.78,74.36,71.48
	z"/>
<path class="st3" d="M40.96,86.98c-0.3,0.3-0.5,0.5-0.8,0.7c-0.7,0.4-0.7,2-1.9,1.2c-1.3-0.8-2.4-1.8-3.5-2.9
	c-0.3-0.3,0.2-0.8,0.4-1.1c2.1-2.6,4.2-5.1,6.2-7.7c1-1.3,2-1.2,2.7-0.1s3.7,1.3,1.8,3.5c-1.2,1.4-0.5,2.2,0.6,2.7
	c2.1,1,3.8,2.7,5.5,4.2c0.6,0.6,2.2,0.8,1.7,2c-0.7,1.6-1.9,3-3.4,4.1c-0.6,0.4-1.1-0.4-1.5-0.8c-2.3-1.7-4.5-3.4-6.8-5.1
	C41.56,87.48,41.26,87.28,40.96,86.98z"/>
<path class="st3" d="M31.16,101.18c-1.9,3.4,1,3.3,2.8,4.1c1.2,0.5,2.3,1,3.4,1.6c3.3,1.6,3.6,3.7,1.2,6.5c-0.7,0.9-1.3,0.3-1.8,0
	c-2.5-1.1-5.1-2.2-7.6-3.3c-1-0.5-1.8-0.8-2.5,0.7c-1.4,3-2.9,0.1-4.4-0.1c-1.5-0.3-1.3-1.3-0.7-2.4c1.4-2.7,2.6-5.5,3.9-8.2
	c0.4-0.7,0.5-2,1.7-1.3C28.66,99.38,30.46,99.48,31.16,101.18z"/>
<path class="st3" d="M222.06,95.88c-0.7-0.5-1.4-0.8-1.8-1.3c-1.8-2.2-3.5-4.5-5.4-6.7c-0.9-1-0.7-1.7,0.3-2.4
	c3.8-2.9,7.6-5.8,11.4-8.8c0.9-0.7,1.4-0.4,1.9,0.3c0.5,0.6,1,1.3,1.6,1.8c1.6,1.4,1.1,2.4-0.5,3.5c-1.7,1.2-3.1,2.8-4.8,3.8
	c-2.2,1.3-1.8,2.6-0.4,4.1c0.6,0.7,2.1,1.4,1.3,2.5C224.76,93.98,223.36,94.88,222.06,95.88z"/>
<path class="st4" d="M74.06,256.28c-1.4-0.5-3-1.6-4.5-2.6c-0.6-0.4,0-1,0.3-1.4c2.6-4.1,5.3-8.2,7.9-12.3c0.5-0.8,0.9-0.8,1.8-0.5
	c4.2,1.8,4.4,2.3,2.1,6.3c-1.8,3.1-3.6,6.1-5.5,9.2C75.66,255.58,75.46,256.58,74.06,256.28z"/>
<path class="st4" d="M43.36,103.48c-0.5-0.2-0.8-0.4-1.1-0.5c-4.1-2.3-8.2-4.6-12.4-6.8c-1.2-0.6-1.4-1.2-0.7-2.4
	c2.3-4.2,2.3-4.2,6.5-1.9c3.2,1.8,6.3,3.7,9.5,5.5c1.3,0.7,1.7,1.4,0.7,2.6C44.86,101.08,44.66,102.68,43.36,103.48z"/>
<path class="st4" d="M256.36,135.98c0.3,1.2-0.2,1.3-0.9,1.4c-4.9,0.9-9.8,1.8-14.7,2.8c-1.1,0.2-1.5-0.2-1.6-1.1
	c-0.2-0.8-0.2-1.6-0.5-2.4c-0.6-1.8-0.1-2.5,1.8-2.9c4.2-0.7,8.4-1.4,12.6-2.4c1.9-0.4,2.8-0.1,2.9,1.9
	C255.96,134.38,256.16,135.28,256.36,135.98z"/>
<path class="st3" d="M21.16,152.88c2.3,0,4.6,0.1,6.9,0c1.3,0,2,0.4,1.9,1.8c-0.1,0.9-0.1,1.8,0,2.7c0.1,1.3-0.5,1.6-1.7,1.7
	c-4.5,0.1-9.1-0.2-13.6,0.4c-1.2,0.1-2.1-0.1-2-1.7c0-0.9-0.2-1.8-0.3-2.6c-0.2-1.4,0.2-2.2,1.9-2.1c2.3,0.1,4.6,0,6.9,0
	C21.16,152.98,21.16,152.88,21.16,152.88z"/>
<path class="st4" d="M241.66,184.78c2.4,0.1,3.9,1.8,3.8,4.2c-0.1,2.2-1.9,3.9-4,3.8c-2.1-0.1-3.8-1.9-3.8-4
	C237.76,186.28,239.26,184.68,241.66,184.78z"/>
<path class="st4" d="M20.76,178.28c1-2.1,2.8-2.6,4.9-2.1c1.5,0.3,2.3,1.4,2.6,2.8c0.4,2-0.2,3.8-2.2,4.6c-2.1,0.9-4,0-5.4-2.4
	C20.16,180.08,20.16,179.18,20.76,178.28z"/>
<path class="st1" d="M126.46,47.38c0.4,1.8-0.2,2.5-1.7,3c-3.2,1-6.2,2.1-9.5,2.7c-1.6,0.3-3.5,0.9-4.4-0.8c-0.8-1.5,0.5-3,1.5-4
	c2.6-2.7,5.4-5.2,8.1-7.7c0.4-0.4,0.8-0.6,1.4-0.2C124.36,42.18,127.36,43.68,126.46,47.38z"/>
<path class="st1" d="M114.46,24.38c3.8,0.6,7.9,1.9,11.9,3.4c1.4,0.5,0.9,5.2-0.5,6.4c-0.1,0.1-0.2,0.1-0.2,0.2
	c-4,3.1-4,3.2-7.9-0.2c-2.1-1.8-4-3.8-5.8-5.8c-0.7-0.7-1.6-1.7-1-2.9C111.46,24.18,112.76,24.38,114.46,24.38z"/>
<path class="st1" d="M130.36,25.28c1-4,1.7-8.2,3.5-12c0.4-0.8,0.9-1.7,1.9-1.7s1.5,1,1.8,1.7c1.3,2.7,2,5.5,2.8,8.4
	c1.3,5.2,1.3,5.3-4,6.9c-2.3,0.7-4-1-5.8-2C130.36,26.48,130.46,25.78,130.36,25.28z"/>
<path class="st1" d="M156.96,24.38c1.4,0,2.4,0,2.9,0.9s0.1,1.7-0.4,2.5c-2.3,3.7-5.9,6-9,9c-0.2,0.2-0.6,0.4-0.9,0.4
	c-1.5-0.1-4.7-4-5.2-5.4c-1-3.4,0.8-4.5,3.6-5.2C151.06,25.68,154.16,24.68,156.96,24.38z"/>
<path class="st5" d="M143.76,47.68c-1.1-4.1,2.8-5.2,5.3-7.3c0.7-0.6,1.2,0,1.6,0.3c1.2,1,2.7,1.8,3.6,3.1c1.1,1.6-0.9,2.8-1.1,4.3
	c-0.8,4.1-0.9,4.1-4.9,2.9c-1.3-0.4-2.5-1-3.8-1.4C143.66,49.48,143.36,48.98,143.76,47.68z"/>
<path class="st5" d="M131.36,59.78c-0.8-2.3-1.1-4.8-1.7-7.2c-0.3-1.3,0.3-1.8,1.3-2.2c1.2-0.5,1.2,0.3,1.7,1.1
	c1.1,1.8,3,0.6,4.6,0.8c1.8,0.2,0.9-1.5,1.5-2.2c1.4,0.1,2.2,0.7,1.8,2.2c-0.6,2.5-1.2,5-1.9,7.5
	C136.16,59.38,133.76,59.38,131.36,59.78z"/>
<path class="st6" d="M142.56,35.58c-4.7,0-9,0-13.5,0C132.56,30.98,137.96,30.98,142.56,35.58z"/>
<path class="st7" d="M138.36,60.38c-0.3,0.8-0.5,1.7-0.8,2.5c-0.5,1.3-1,3.1-2.5,3c-1.4-0.1-2-1.8-2.6-3.1c-0.4-0.8-0.6-1.6-0.9-2.5
	C133.86,59.18,136.06,59.18,138.36,60.38z"/>
<path class="st8" d="M138.36,60.38c-2.3,0-4.5,0-6.8,0c-0.1-0.2-0.2-0.4-0.2-0.6c1.6-1.5,5.7-1.5,7.3,0
	C138.56,59.98,138.46,60.18,138.36,60.38z"/>
<path class="st9" d="M129.06,37.78c0.2,1.7-0.1,3.6,2.7,3.6c1.2,0,1,1.6,0.7,2.4c-0.4,1-1.2,0-1.8-0.2
	C127.56,42.28,129.36,39.78,129.06,37.78z"/>
<path class="st10" d="M138.86,44.18c-0.1-1.2-1.2-2.8,0.8-3.1c0.9-0.1,2.4-0.6,2.5,0.6C142.36,43.98,139.76,42.88,138.86,44.18z"/>
<path class="st11" d="M144.56,36.48c1.3,0.6,2.8,1.1,2.8,2.1c0,1.2-1.6,1.7-2.8,2.5C144.56,39.38,144.56,38.08,144.56,36.48z"/>
<path class="st12" d="M128.86,46.48c0.1-0.5-0.2-1.5,0.5-1.2c1.1,0.4,2.7,0.7,2.9,2c0.2,1-1.3,1-2.1,1.2
	C128.46,48.78,129.06,47.28,128.86,46.48z"/>
<path class="st13" d="M126.16,36.28c0,1.8,0,3,0,4.4c-1.4-0.4-2.3-1.1-3.2-2.2C123.96,37.78,124.96,37.18,126.16,36.28z"/>
<path class="st14" d="M137.86,30.08c1.9-0.4,2.9-1.8,4.2-0.6c0.5,0.5,0.6,2,0.1,2.2C140.66,32.38,139.66,31.18,137.86,30.08z"/>
<path class="st15" d="M141.86,46.68c-0.3,0.7,0.2,2.1-1.3,1.7c-0.7-0.2-1.9-0.3-1.8-1.2c0.2-1.1,1.5-1.5,2.5-1.7
	C142.26,45.28,141.96,46.08,141.86,46.68z"/>
<path class="st9" d="M132.66,30.08c-0.9,1.1-1.9,1.6-3.1,1.9c-0.3-1-0.4-2.1,0.5-2.7C130.86,28.68,131.66,29.58,132.66,30.08z"/>
<path class="st16" d="M208.26,71.88c0.3-1.7,1.3-2.9,3.3-3c1.7,0,2.7,1.1,2.6,2.7c-0.1,1.8-1.4,3.2-3.3,3.2
	C209.26,74.88,208.26,73.78,208.26,71.88z"/>
<path class="st6" d="M235.06,103.48c-2.4,0.1-3.6-0.6-3.7-2.5c-0.1-1.7,1.6-3.3,3.5-3.2c1.7,0.1,3,0.9,3,2.8
	C237.76,102.58,236.36,103.38,235.06,103.48z"/>
<path class="st17" d="M247.96,170.88c-1.9,0-3.5-0.7-3.5-2.6c0-2,1.4-3,3.4-2.8c1.8,0.2,3.5,0.8,3.3,3
	C251.06,170.28,249.66,171.08,247.96,170.88z"/>
<path class="st18" d="M87.76,50.68c2,0.2,3.6,2,3.3,3.7c-0.3,1.7-1.3,2.7-3.2,2.5c-2.1-0.3-3.2-1.6-3.1-3.7
	C84.96,51.48,86.36,50.68,87.76,50.68z"/>
<path class="st19" d="M93.96,254.28c0,1.9-0.8,3-2.2,3.5c-0.8,0.3-1.6,0.2-2.2-0.4s0.1-1.1,0.2-1.7c0.2-0.7,0.5-1.4,0.8-1.9
	c0.4-0.7,0.2-2.3,1.6-1.9C93.26,252.18,94.06,253.18,93.96,254.28z"/>
<path class="st20" d="M64.86,238.58c-0.8-0.2-1.6-0.4-1.5-1.1c0.1-0.9,0.7-2,1.7-2c0.7,0,1.3,0.7,1.2,1.5
	C66.26,237.98,65.56,238.38,64.86,238.58z"/>
<path class="st21" d="M217.86,225.58c1.6,0.6,2.4,0.9,3.4,1.3c0.4,0.2,1,0.3,0.9,0.8c0,0.4-0.4,0.8-0.7,1c-0.5,0.3-1,0.3-1.4-0.2
	C219.36,227.78,218.86,226.98,217.86,225.58z"/>
<path class="st22" d="M112.66,259.18c0,1.3,0,2.2,0,3.1c0,0.8-0.4,1.1-1.2,1c-0.8-0.1-1.1-0.5-0.8-1.3
	C111.16,261.18,111.36,260.08,112.66,259.18z"/>
<path class="st23" d="M192.26,246.18c1.1,0.7,1.8,1.2,2.5,1.7c0.4,0.3,1,0.7,0.8,1.2c-0.1,0.4-0.8,0.6-1.3,0.8
	c-0.6,0.2-1-0.2-1.1-0.8C192.86,248.28,192.56,247.48,192.26,246.18z"/>
<path class="st2" d="M185.46,212.98c1.9,3.4-0.6,4.5-2.5,5.6c-5.3,3.1-10.4,6.6-16.2,8.5c-1.4,0.4-2.2,0.3-3-0.7
	c-0.2-0.2-0.4-0.4-0.6-0.6c-5.1-5.1-5.4-5.1-12.4-2.8c-0.9,0.3-1.4,0.6-1.4,1.6c0,0.2-0.2,0.5-0.2,0.8c-1.9,7.2-1.9,7.2-9.4,7.5
	c-4.8,0.2-9.6-0.2-14.5-0.5c-1.4-0.1-2.4-0.6-2.5-2.1c-0.4-5.7-3.4-8.6-9.1-9.1c-1.4-0.1-2.4-0.1-3.2,1c-0.4,0.5-0.8,0.9-1.3,1.4
	c-3.9,4.1-3.9,4-9.2,1.5c-4.4-2.1-8.3-4.8-12.4-7.3c-2.7-1.7-5.6-0.7-8.3-1.4c-1.7-0.4-2.4-0.7-2.5-2.6c-0.2-3.2-0.7-6.4-1-9.6
	c-0.2-1.5-0.5-2.4-2.3-1.6c-1.5,0.7-2.3-0.3-3-1.4c-3-4.2-5.7-8.6-8-13.3c-0.6-1.3-1.4-2.6-2.2-3.8s-0.3-2.1,0.7-2.6
	c2.1-1.1,3.3-3.2,5-4.7c0.6-0.5,0.7-1.1,0.5-1.9c-0.6-1.9-1.1-3.8-1.4-5.7c-0.2-1.2-1-1.6-2-1.8c-1.8-0.4-3.6-1-5.5-1.2
	s-2.5-1.3-2.6-3c-0.5-6.4-0.6-12.7,0.3-19c0.2-1.4,0.6-2.1,2-2.2c0.4,0,0.9-0.3,1.3-0.2c5.7,0.3,7.5-3.3,8.2-8.1
	c0.2-1,0.2-1.7-0.6-2.3c-1.9-1.5-3-3.8-5.2-4.9c-1-0.5-0.7-1.3-0.2-2.1c3.3-5.4,5.9-11.3,9.8-16.4c1-1.3,2-2.2,3.7-1.5
	c0.5,0.2,1.1,0.1,1.6,0.3c4.3,1.9,7.7,0.8,10.5-3c0.7-1,1-1.7,0.8-2.8c-0.4-1.6-0.6-3.2-1.2-4.7c-1.1-2.2-0.1-3.5,1.7-4.5
	c1.8-1,3.5-2.1,5.2-3.2c1.3-0.9,3.5-1.3,2.4-3.9c-0.4-0.9,0.6-0.9,1.1-1.1c1.2-0.3,2.4-0.9,3.6-0.8c3.1,0.2,3.3-1.5,3.2-4
	c-0.2-4.6,0-4.6,4.5-5.3c13.6-2.2,27.2-2.7,40.9-1.6c5.3,0.5,10.6,1.2,15.9,2.1c1.3,0.2,1.6,0.8,1.6,2c0,2.1-0.6,4.6,0.4,6
	s3.8,0.8,5.8,1.3c0.9,0.2,2.2,0.1,1.9,1.9c-0.1,0.8,0.9,1,1.4,1.3c3.1,1.9,6.1,3.9,9.3,5.7c1.5,0.8,1.6,1.9,1.1,3.3
	c0,0.1,0,0.2-0.1,0.3c-1.9,7.2-1.9,7.2,3.5,11.9c0.6,0.5,1.1,0.7,1.9,0.5c1.7-0.5,3.5-0.6,5.2-1.2c2.5-0.9,4-0.2,5.4,2
	c3.1,5,6.3,10,9.1,15.3c1,1.9,0.6,3-1,4.2c-1.4,1-2.8,1.8-4.1,3c-0.8,0.8-1.5,1.5-0.8,2.5c0.6,1,1.4,0.1,2.1-0.1
	c2.9-0.9,2.9-0.9,2.4,2.2c-0.1,0.9-0.5,1.8-0.4,2.6c0.1,1-1.1,1.4-1.1,2.4c1.7,0.4,3.4,1.1,5.1,1.3c2.5,0.3,3.3,1.6,3.5,4
	c0.4,5.6,0.4,11.3,0,16.9c-0.2,2-0.7,3.6-3.1,3.8c-0.8,0.1-1.6,0.6-2.3,0.6c-3.7,0-5,2-5.6,5.5c-0.8,4.2-0.9,4.6,2.3,7.2
	c3.7,3,3.9,5.3,1.1,9.1c-3.8,5.1-7.5,10.2-6.3,17.1c0.5,2.7-0.8,3.9-3.2,4.9C195.06,213.08,190.56,213.18,185.46,212.98z"/>
<g>
	<path class="st24" d="M138.57,215.96c-1.4,0-2.81,0-4.21,0c-0.91-0.18-1.84-0.13-2.73-0.46c-1.49-0.56-2.86-1.38-4.22-2.2
		c-1.88-1.14-3.78-2.26-5.66-3.41c-2.57-1.56-5.16-3.09-7.73-4.66c-1.99-1.21-4-2.39-6-3.59c-2.23-1.34-4.46-2.7-6.7-4.03
		c-2.19-1.3-4.37-2.63-6.56-3.95c-2.25-1.35-4.51-2.68-6.75-4.06c-0.81-0.5-1.65-0.96-2.45-1.48c-1.87-1.2-3.38-2.8-4.62-4.75
		c-0.74-1.16-1.19-2.45-1.67-3.73c-0.22-0.58-0.2-1.22-0.26-1.83c-0.02-0.21-0.01-0.43-0.11-0.62c0-18.64,0-37.27,0-55.91
		c0.1-0.28,0.1-0.57,0.11-0.86c0.09-1.72,0.75-3.23,1.53-4.68c1.14-2.11,2.65-3.84,4.55-5.15c1.14-0.79,2.35-1.43,3.53-2.15
		c2.62-1.6,5.25-3.16,7.88-4.74c2.53-1.52,5.06-3.05,7.6-4.56c2.61-1.56,5.22-3.14,7.83-4.71c2.2-1.32,4.4-2.65,6.61-3.97
		c2.63-1.57,5.24-3.18,7.88-4.74c1.34-0.79,2.65-1.64,4.06-2.31c1.55-0.75,3.18-1.03,4.85-1.07c1.59-0.04,3.18-0.07,4.76,0.19
		c1.49,0.24,2.85,0.92,4.16,1.71c2.23,1.34,4.47,2.68,6.7,4.03c2.93,1.78,5.89,3.51,8.82,5.3c1.94,1.19,3.91,2.33,5.85,3.51
		c2.64,1.59,5.28,3.18,7.93,4.77c2.63,1.58,5.26,3.15,7.88,4.73c2.15,1.29,4.33,2.54,6.45,3.92c1.56,1.01,2.83,2.38,3.91,3.96
		c0.69,1,1.17,2.1,1.65,3.22c0.37,0.87,0.36,1.81,0.45,2.73c0.02,0.21-0.06,0.43,0.05,0.63c0,18.6,0,37.2,0,55.79
		c-0.1,0.53-0.07,1.08-0.12,1.62c-0.14,1.71-0.85,3.17-1.65,4.58c-1.51,2.64-3.67,4.48-6.19,5.93c-2.92,1.68-5.79,3.47-8.68,5.21
		c-2.63,1.58-5.25,3.16-7.88,4.73c-2.52,1.5-5.02,3.04-7.54,4.55c-2.22,1.33-4.43,2.66-6.65,3.99c-2.6,1.56-5.18,3.13-7.78,4.67
		c-1.77,1.05-3.48,2.19-5.33,3.07c-1.04,0.49-2.12,0.62-3.23,0.71C138.77,215.91,138.66,215.87,138.57,215.96z"/>
	<path class="st2" d="M136.55,188.27c-3.07,0-6.13-0.01-9.2,0c-7.31,0.02-14.62,0.05-21.92,0.09c-1.88,0.01-3.67-0.33-5.36-1.17
		c-1.65-0.81-3.01-1.94-4.11-3.41c-1.45-1.93-2.02-4.14-2.05-6.5c-0.04-4.2-0.04-8.4-0.05-12.6c-0.01-4.81-0.02-9.62-0.04-14.42
		c-0.04-9.28-0.08-18.56-0.12-27.84c-0.01-1.57-0.05-3.15-0.01-4.72c0.08-2.93,1.28-5.36,3.43-7.35c2.3-2.13,5.05-3.04,8.16-3.01
		c0.92,0.01,1.85-0.01,2.77,0.01c0.35,0.01,0.47-0.11,0.47-0.46c0.01-1.12-0.08-2.25,0.06-3.37c0.37-3.06,2.59-5.42,5.63-5.9
		c2.64-0.42,4.93,0.34,6.73,2.3c1.09,1.19,1.69,2.64,1.7,4.29c0.01,0.88,0,1.75,0,2.63c0,0.48,0.01,0.49,0.48,0.5
		c2.08,0.01,4.15,0,6.23,0.01c0.34,0,0.48-0.1,0.47-0.46c-0.02-0.88,0-1.75-0.01-2.63c-0.01-0.82,0.11-1.62,0.41-2.38
		c0.97-2.47,2.8-3.9,5.43-4.28c2.28-0.33,4.31,0.29,6.01,1.81c1.29,1.16,2.09,2.64,2.15,4.42c0.03,0.97,0.01,1.93,0.02,2.9
		c0,0.6,0.01,0.61,0.58,0.61c2.01,0,4.02,0,6.02,0c0.55,0,0.55-0.01,0.57-0.55c0.02-1.14-0.04-2.29,0.09-3.43
		c0.32-2.83,2.58-5.25,5.48-5.72c2.97-0.48,5.43,0.46,7.28,2.83c0.76,0.98,1.13,2.15,1.18,3.39c0.04,0.99,0.01,1.98,0.02,2.97
		c0.01,0.51,0.01,0.51,0.53,0.52c1.26,0.03,2.52-0.05,3.79,0.09c2.2,0.26,4.19,1.03,5.91,2.45c2.5,2.06,3.83,4.71,3.87,7.96
		c0,0.29,0.01,0.58,0.01,0.88c0,19.37,0,38.74,0,58.1c0,1.03,0,2.07-0.28,3.08c-0.6,2.12-1.67,3.94-3.37,5.4
		c-2.26,1.93-4.87,2.8-7.83,2.8c-10.38,0.03-20.75,0.09-31.13,0.13C136.55,188.25,136.55,188.26,136.55,188.27z"/>
	<path class="st24" d="M152.05,123.11c1.74-0.01,3.47-0.03,5.21-0.04c4.85-0.03,9.7-0.05,14.54-0.07c0.11,0,0.23,0,0.34,0
		c0.64,0.01,0.64,0.01,0.65,0.61c0.02,1.57,0.04,3.14,0.05,4.72c0.03,7.59,0.05,15.18,0.09,22.77c0.04,8.62,0.08,17.25,0.13,25.87
		c0,0.22-0.01,0.45,0,0.67c0.11,2.28-1.88,4.33-4.29,4.38c-1.42,0.03-2.84,0.03-4.26,0.03c-6,0.03-12,0.05-17.99,0.08
		c-2.73,0.01-5.46,0.02-8.19,0.03c-0.25,0-0.49-0.02-0.74-0.03c-0.39-0.21-0.45-0.57-0.46-0.97c-0.01-1.43-0.02-2.86,0-4.29
		c0.02-0.88,0.24-1.1,1.16-1.23c5.25-0.41,9.98-2.17,14.05-5.52c4.7-3.87,7.48-8.86,8.3-14.88c0.66-4.81-0.35-9.36-2.75-13.55
		c-2.25-3.92-5.44-6.94-9.47-9.08c-3.13-1.66-6.44-2.64-9.98-2.9c-0.44-0.03-0.99,0.02-1.2-0.56c-0.08-0.19-0.1-0.39-0.11-0.59
		c-0.02-1.52-0.04-3.05,0-4.57c0.02-0.75,0.13-0.84,0.89-0.84c4.44,0,8.87,0,13.31,0C151.56,123.16,151.81,123.21,152.05,123.11z"/>
	<path class="st24" d="M138.52,175.96c-0.16,0.1-0.34,0.1-0.52,0.13c-0.51,0.06-0.56,0.1-0.56,0.63c-0.01,1.12-0.01,2.24,0,3.35
		c0.01,0.69-0.09,1.39,0.13,2.06c-0.77,0.01-1.53,0.03-2.3,0.03c-8.07,0.04-16.15,0.07-24.22,0.1c-1.76,0.01-3.52,0.01-5.28,0.03
		c-1.15,0.01-2.21-0.28-3.08-1.02c-0.97-0.83-1.57-1.89-1.58-3.22c-0.03-4-0.07-8-0.11-12c-0.05-5.8-0.11-11.59-0.16-17.39
		c-0.04-4.18-0.07-8.36-0.11-12.54c-0.04-4-0.09-8-0.12-12c-0.01-1.03-0.11-0.89,0.9-0.89c7.04-0.02,14.08-0.03,21.11-0.05
		c9.56-0.03,19.13-0.08,28.69-0.12c0.25,0,0.49,0.01,0.74,0.02c-0.29,0.17-0.61,0.12-0.92,0.12c-4.23,0-8.46,0-12.69,0.01
		c-1,0-1,0-1,1.01c0,1.68,0,3.36,0,5.04c-0.25,0.47-0.71,0.32-1.08,0.32c-3.21,0.05-6.32,0.65-9.3,1.84
		c-2.68,1.08-5.08,2.6-7.22,4.55c-3.24,2.96-5.48,6.52-6.67,10.73c-1.2,4.26-1.17,8.56,0.22,12.74c1.91,5.74,5.63,10.06,10.94,13.01
		c3.2,1.78,6.64,2.77,10.28,3.11c1.03,0.1,2.07,0,3.11,0.04C138.01,175.64,138.37,175.57,138.52,175.96z"/>
	<path class="st24" d="M155.03,110.32c0-1.91,0-3.82,0-5.73c0-0.31,0-0.63,0.06-0.94c0.46-2.33,3.24-2.9,4.84-1.82
		c0.93,0.62,1.45,1.48,1.45,2.65c-0.02,3.95-0.02,7.9,0,11.86c0.01,1.44-0.8,2.43-1.86,2.87c-1.26,0.52-2.73,0.22-3.63-0.7
		c-0.6-0.61-0.87-1.35-0.86-2.19C155.03,114.32,155.03,112.32,155.03,110.32z"/>
	<path class="st24" d="M133.62,110.58c0.05-2.04,0.11-4.08,0.14-6.13c0.03-1.93,2.1-3.64,4.32-2.55c1.18,0.57,1.76,1.52,1.76,2.79
		c0.01,3.97,0.02,7.95,0,11.92c-0.01,1.35-0.58,2.37-1.91,2.88c-1.23,0.47-2.6,0.17-3.55-0.76c-0.64-0.62-0.91-1.36-0.89-2.24
		c0.05-1.97,0.09-3.95,0.13-5.92C133.62,110.58,133.62,110.58,133.62,110.58z"/>
	<path class="st24" d="M118.88,110.68c0,1.91,0,3.82,0,5.72c0,0.27,0,0.54-0.04,0.81c-0.33,2.28-2.89,3.03-4.54,2.17
		c-1.15-0.6-1.79-1.52-1.76-2.87c0.09-3.7,0.16-7.4,0.24-11.11c0.01-0.31,0.01-0.63,0.01-0.94c0.01-2.11,2.37-3.76,4.61-2.4
		c0.99,0.61,1.47,1.48,1.47,2.63C118.88,106.68,118.88,108.68,118.88,110.68C118.88,110.68,118.88,110.68,118.88,110.68z"/>
	<path class="st2" d="M138.52,175.96c-0.99,0-1.98,0.04-2.97,0c-3.44-0.13-6.73-0.93-9.84-2.4c-2.95-1.39-5.54-3.26-7.73-5.67
		c-1.11-1.22-2.08-2.53-2.92-3.95c-1.36-2.31-2.29-4.77-2.73-7.41c-0.61-3.73-0.35-7.39,0.83-10.98c0.67-2.03,1.63-3.94,2.86-5.7
		c2.34-3.37,5.35-6,9.01-7.86c3.66-1.85,7.56-2.75,11.67-2.7c0.25,0,0.49-0.01,0.74-0.02c1.61,0.16,3.23,0.3,4.81,0.67
		c3.42,0.81,6.56,2.21,9.38,4.3c1.67,1.24,3.17,2.65,4.47,4.27c1.23,1.53,2.23,3.19,3.06,4.97c0.75,1.6,1.17,3.29,1.55,5
		c0.5,2.22,0.55,4.46,0.24,6.69c-0.3,2.17-0.76,4.33-1.74,6.33c-0.08,0.16-0.15,0.33-0.22,0.49c-1.35,3.02-3.33,5.57-5.79,7.77
		c-1.9,1.69-4.01,3.04-6.33,4.07c-2.3,1.02-4.7,1.68-7.21,1.96C139.28,175.86,138.9,175.91,138.52,175.96z"/>
	<path class="st24" d="M138.28,170.83c-0.85,0.2-1.71,0.13-2.56,0.08c-3.7-0.2-7.12-1.26-10.21-3.34c-1.71-1.15-3.21-2.53-4.47-4.16
		c-1.49-1.93-2.5-4.07-3.15-6.42c-0.74-2.68-0.79-5.37-0.22-8.06c0.3-1.45,0.74-2.87,1.42-4.2c1.8-3.51,4.4-6.26,7.88-8.17
		c3.61-1.98,7.47-2.68,11.54-2.39c0.11,0.01,0.22,0.05,0.32,0.08c-0.04,0.17-0.17,0.27-0.33,0.3c-0.63,0.11-0.72,0.54-0.75,1.09
		c-0.04,0.66,0.21,1.34-0.17,1.97c-0.27,0.18-0.52,0.03-0.78-0.03c-1.45-0.33-2.41,0.38-2.42,1.87c-0.02,4.67-0.02,9.33,0,14
		c0,1.29,0.67,1.95,1.99,2.07c0.41,0.04,0.87-0.1,1.2,0.3c0.22,0.44,0.19,0.92,0.19,1.38c0,3.83,0.01,7.65,0,11.48
		C137.76,169.45,137.75,170.2,138.28,170.83z"/>
	<path class="st24" d="M138.28,170.83c-0.09-0.01-0.18-0.01-0.27-0.02c-0.51-0.06-0.55-0.1-0.57-0.63c-0.01-0.13,0-0.27,0-0.4
		c0-4.64,0-9.28,0-13.92c0.26-0.45,0.72-0.32,1.1-0.32c3.18-0.02,6.36-0.01,9.54-0.01c0.5,0,0.99,0.01,1.48-0.12
		c0.96-0.26,1.43-0.91,1.32-1.83c-0.11-0.89-0.69-1.42-1.67-1.43c-3.13-0.03-6.27-0.01-9.4-0.01c-0.38,0-0.77,0-1.15-0.03
		c-0.42-0.04-0.65-0.26-0.7-0.68c-0.04-0.36-0.04-0.72-0.04-1.08c0-3.39,0-6.78,0-10.18c0-0.72,0.01-1.44-0.35-2.1
		c-0.09-0.16-0.11-0.34-0.02-0.52c-0.23-0.92-0.09-1.85-0.1-2.78c0-0.32,0.21-0.47,0.52-0.48c0.29-0.01,0.58-0.02,0.87-0.03
		c1.5,0.07,2.94,0.43,4.35,0.91c3.04,1.03,5.69,2.68,7.9,5c1.56,1.65,2.78,3.51,3.64,5.62c1.7,4.18,1.77,8.4,0.3,12.62
		c-1.13,3.27-3.16,5.98-5.86,8.15c-2.93,2.35-6.28,3.74-10,4.23C138.86,170.83,138.57,170.82,138.28,170.83z"/>
	<path class="st2" d="M137.56,137.55c0.53,0.55,0.71,1.2,0.71,1.96c-0.02,3.71-0.01,7.41-0.01,11.12c0,0.16,0,0.31,0,0.47
		c0,0.66,0.01,0.66,0.66,0.66c3.41,0,6.81,0.03,10.22-0.02c1.33-0.02,2.21,0.97,2.12,2.22c-0.06,0.84-0.58,1.47-1.46,1.74
		c-0.37,0.11-0.75,0.12-1.14,0.12c-3.47,0-6.95,0-10.42,0c-0.27,0-0.54,0.02-0.81,0.03c-0.4-0.01-0.81-0.01-1.21-0.03
		c-1.41-0.07-2.23-0.91-2.23-2.33c-0.01-4.66,0.02-9.33-0.02-13.99c-0.02-2.06,1.94-2.95,3.45-2.01
		C137.47,137.53,137.52,137.54,137.56,137.55z"/>
</g>
</svg>
