<?xml version="1.0" encoding="utf-8"?>
<!-- Generator: Adobe Illustrator 25.2.1, SVG Export Plug-In . SVG Version: 6.00 Build 0)  -->
<svg version="1.1" id="Capa_1" xmlns="http://www.w3.org/2000/svg" xmlns:xlink="http://www.w3.org/1999/xlink" x="0px" y="0px"
	 viewBox="0 0 542 269" style="enable-background:new 0 0 542 269;" xml:space="preserve">
<style type="text/css">
	.st0{fill:#1154A2;}
	.st1{fill:#1154A0;}
	.st2{fill:#1255A2;}
	.st3{fill:#1155A2;}
	.st4{fill:#040506;}
	.st5{fill:#080809;}
	.st6{fill:#060708;}
	.st7{fill:#030405;}
	.st8{fill:#F2F7F8;}
	.st9{fill:#050606;}
	.st10{fill:#070809;}
	.st11{fill:#050607;}
	.st12{fill:#050506;}
	.st13{fill:#040405;}
	.st14{fill:#0E0E0E;}
	.st15{fill:#0B0C0C;}
	.st16{fill:#0A0B0C;}
	.st17{fill:#0B0C0D;}
	.st18{fill:#090A0A;}
	.st19{fill:#0E0E0F;}
	.st20{fill:#2662A5;}
	.st21{fill:#060607;}
	.st22{fill:#1355A2;}
	.st23{fill:#EFF5F8;}
	.st24{fill:#08090A;}
	.st25{fill:#0D0E0E;}
	.st26{fill:#101112;}
	.st27{fill:#F2F6F8;}
	.st28{fill:#141515;}
	.st29{fill:#1D1E1E;}
	.st30{fill:#0E0F0F;}
	.st31{fill:#1155A1;}
	.st32{fill:#1255A1;}
	.st33{fill:#1356A2;}
	.st34{fill:#1456A3;}
	.st35{fill:#EFF4F7;}
	.st36{fill:#EEF4F7;}
	.st37{fill:#181919;}
	.st38{fill:#1355A1;}
	.st39{fill:#111111;}
	.st40{fill:#030304;}
	.st41{fill:#1F5CA6;}
	.st42{fill:#1858A3;}
	.st43{fill:#1657A3;}
	.st44{fill:#1456A2;}
	.st45{fill:#215CA6;}
	.st46{fill:#E8EFF4;}
	.st47{fill:#1456A1;}
	.st48{fill:#EBF2F6;}
	.st49{fill:#1556A2;}
	.st50{fill:#1656A2;}
	.st51{fill:#EBF2F5;}
	.st52{fill:#1C5AA4;}
	.st53{fill:#225EA6;}
	.st54{fill:#1757A2;}
	.st55{fill:#1857A2;}
	.st56{fill:#1656A1;}
	.st57{fill:#1657A2;}
	.st58{fill:#1E5AA5;}
	.st59{fill:#1858A2;}
	.st60{fill:#E8F0F4;}
	.st61{fill:#3268A9;}
	.st62{fill:#1A5AA3;}
	.st63{fill:#235EA6;}
	.st64{fill:#2861A7;}
	.st65{fill:#8CACD0;}
	.st66{fill:#E3EBF2;}
	.st67{fill:#1E5AA4;}
	.st68{fill:#1958A3;}
	.st69{fill:#1859A3;}
	.st70{fill:#1B5AA3;}
	.st71{fill:#1C5AA2;}
	.st72{fill:#235FA6;}
	.st73{fill:#1B59A3;}
	.st74{fill:#386DAC;}
	.st75{fill:#E2EBF1;}
	.st76{fill:#1B59A2;}
	.st77{fill:#215DA5;}
	.st78{fill:#DDE8F0;}
	.st79{fill:#1C5BA3;}
	.st80{fill:#376BAD;}
	.st81{fill:#2660A7;}
	.st82{fill:#2862A6;}
	.st83{fill:#3568AB;}
	.st84{fill:#3D3D3D;}
	.st85{fill:#333434;}
	.st86{fill:#333333;}
	.st87{fill:#2861A6;}
	.st88{fill:#215DA4;}
	.st89{fill:#3A6DAD;}
	.st90{fill:#4A78B1;}
	.st91{fill:#1E5CA5;}
	.st92{fill:#245EA5;}
	.st93{fill:#1959A3;}
	.st94{fill:#81A3C9;}
	.st95{fill:#3066A9;}
	.st96{fill:#2E65A8;}
	.st97{fill:#366BAB;}
	.st98{fill:#2761A6;}
	.st99{fill:#3569AB;}
	.st100{fill:#ABC4DC;}
	.st101{fill:#2962A6;}
	.st102{fill:#D4E1EB;}
	.st103{fill:#3E6FAD;}
	.st104{fill:#4576B2;}
	.st105{fill:#9FBBD8;}
	.st106{fill:#3D70B1;}
	.st107{fill:#255FA5;}
	.st108{fill:#366CAD;}
	.st109{fill:#2D63A6;}
	.st110{fill:#5381B5;}
	.st111{fill:#2C63A7;}
	.st112{fill:#376AAC;}
	.st113{fill:#424242;}
	.st114{fill:#225EA4;}
	.st115{fill:#2B63A7;}
	.st116{fill:#4B4B4B;}
	.st117{fill:#4C4C4C;}
	.st118{fill:#8CA9C9;}
	.st119{fill:#396CA9;}
	.st120{fill:#4475B1;}
	.st121{fill:#5C85B6;}
	.st122{fill:#C8C8C8;}
	.st123{fill:#7CA0C7;}
	.st124{fill:#434243;}
	.st125{fill:#A3BED7;}
	.st126{fill:#3567A8;}
	.st127{fill:#3E71AE;}
	.st128{fill:#F4F8F9;}
	.st129{fill:#F0F4F6;}
	.st130{fill:#EFF4F6;}
	.st131{fill:#F6F9FA;}
	.st132{fill:#AEC6DD;}
	.st133{fill:#FFFFFF;}
	.st134{fill:#B6CADE;}
	.st135{fill:#BACBE2;}
	.st136{fill:#FBFCFC;}
	.st137{fill:#F4F7F9;}
	.st138{fill:#1154A1;}
	.st139{fill:#1556A1;}
	.st140{fill:#1D5CA4;}
	.st141{fill:#1356A1;}
	.st142{fill:#1958A2;}
	.st143{fill:#18579F;}
	.st144{fill:#1D5BA4;}
	.st145{fill:#215CA1;}
	.st146{fill:#2760A4;}
	.st147{fill:#D4E2EA;}
	.st148{fill:#96B4D1;}
	.st149{fill:#ADC5DC;}
	.st150{fill:#A1BDD7;}
	.st151{fill:#A6C0D9;}
	.st152{fill:#A3BED8;}
	.st153{fill:#ABC5DB;}
	.st154{fill:#A6C0D8;}
	.st155{fill:#AEC7DD;}
	.st156{fill:#AFC7DE;}
	.st157{fill:#AAC4DC;}
	.st158{fill:#2260A4;}
	.st159{fill:#36A9E1;}
	.st160{fill:#FEFEFE;}
	.st161{fill:#FCFBFC;}
	.st162{fill:#FAFAFA;}
	.st163{fill:#FCFBFB;}
	.st164{fill:#3167AB;}
	.st165{fill:#8EAECF;}
	.st166{fill:#2B62A6;}
	.st167{fill:#215EA4;}
	.st168{fill:#2860A5;}
	.st169{fill:#4070B0;}
	.st170{fill:#265FA6;}
	.st171{fill:#2F65A7;}
	.st172{fill:#366AAC;}
	.st173{fill:#3C70AF;}
	.st174{fill:#2B64A9;}
	.st175{fill:#3168AB;}
	.st176{fill:#2561A6;}
</style>
<g>
	<path class="st0" d="M412.3,41.8c-1.6-1-1.2-2.6-1.2-4c0-2.5,0-4.9,0-7.4c0-4.8,0-4.8,4.1-2.9c3.4,0.8,6.1,2.8,9,4.4
		c5.8,3.2,11.5,6.5,17.3,9.6c1.6,0.8,3,1.4,4.4-0.1c1.2-1.3,1.3-2.7,0.1-4c-1.4-1.6-3.1-1.5-4.1,0.1c-1.9,3-3.8,2.2-6.2,0.8
		c-5.6-3.2-11.2-6.5-17-9.5c-1-0.5-2-1.1-2.6-2.1c-4.8-1.6-5.5-5.2-5.1-9.7c0.3-2.8,0.1-5.7,0.1-9c5,1.9,9.1,4.9,13.5,7.2
		c3.9,2,7.6,4.2,11.4,6.4c2.1,1.2,4.2,2.1,4.2,5.3c0,2.1,2,3.6,4.3,3c2.4-0.6,4-2.3,3.2-5c-0.6-2.3-2.4-4-4.7-3
		c-2,0.9-3.3,0.2-4.8-0.6c-8.1-4.6-16.2-9.2-24.5-13.9c1.3-1.5,2.8-0.9,4-1c5.9-0.1,12-1.1,17.5,0.3c5.4,1.4,10.2,5.4,15.2,8.2
		c4.5,2.5,8.9,5,13.3,7.6c1.6,0.9,2.9,1.8,3.2,4.1c0.2,2.6,2.3,3.9,5,3c2.3-0.8,3.4-2.7,2.5-5.1c-0.8-2.3-2.5-3.8-5.2-2.6
		c-1,0.5-1.8,1-3,0.3c-8.6-4.9-17.3-9.8-25.9-14.7c0.4-1.6,1.4-1.1,2.2-1.1c4.2-0.1,8.5,0.1,12.7-0.1C462.6,6,469.8,6.1,476,11
		c5.5,1.9,10.2,5.3,15.1,8.1c2.5,1.4,4.9,2.1,7.4,0.7c6.9-4,12,0.3,17.4,3.6c1.2,0.7,1.2,2.1,1.7,3.2c0.7,1.5,1.8,2.6,3.5,2
		c1.5-0.5,2.2-1.7,1.8-3.3c-0.4-1.6-1.6-3-3.2-2.4c-3.2,1.1-5.7-0.5-7.9-2.2c-4-3-8.1-3.5-12.5-1.3c-3.3,1.6-6.1,1-9-1
		c-4.3-2.9-9.4-4.7-13.4-8.1c-1.5-1-3-2-4.5-3.1c1.1-1.3,2.3-0.8,3.3-0.8c9.4,0,18.8,0.1,28.1-0.1c3.3-0.1,5,2.4,7.5,3.5
		s5.2,1.9,5.4,5.7c0.1,2.3,2.4,3.1,4.6,2.5c2.2-0.6,3.2-2.3,2.8-4.6c-0.4-2.3-2-4-4.2-3.2c-4.2,1.6-6.6-1.4-9.6-2.8c0-0.3,0-0.7,0-1
		c4.1,0,8.3,0,12.4,0c8.3,0,8.3,0,8.3,8.3c0,12.4-0.1,24.7,0.1,37.1c0,3.1-0.5,4.2-4,4.2c-15.7-0.2-31.5,0-47.2-0.2
		c-2.7,0-3.8,0.5-3.6,3.5c0.3,3.2,0.2,6.5,0,9.7c-0.2,3,0.6,4.1,3.9,4c14.1-0.2,28.2,0,42.4-0.2c3.2,0,3.9,0.8,3.9,3.9
		c-0.2,12.9-0.2,25.7,0,38.6c0,3.2-0.6,4.2-4,4.2c-14.1-0.2-28.2,0-42.4-0.2c-3,0-3.9,0.8-3.7,3.8c0.2,3.5,0.2,7,0,10.5
		c-0.2,2.7,0.8,3.3,3.4,3.3c16.9-0.1,33.7,0,50.6-0.1c3.1,0,3.6,0.9,3.6,3.8c-0.1,15-0.1,30-0.1,45c-1,0.8-2.2,0.4-3.2,0.4
		c-17.5,0-35,0-52.5,0c-4.3,0-4.3,0-2.4-4.1c4.1-8.5,8.9-16.7,13-25.3c2-4,1.1-6.1-2.6-8.7c-3-2-6.9-3-8.1-7.2
		c-0.4-1.4-2-1.5-3.2-0.9c-1.2,0.6-1.9,1.7-1.6,3.1c0.3,1.5,1.6,2.8,2.9,2.3c4.3-1.6,7.1,1.1,10.3,3c3.3,2,4.2,4.4,2.5,7.8
		c-3.5,7.6-7.6,14.9-11.6,22.2c-1.3,2.5-2,5.5-4.4,7.2c-14.5,0.1-29,0.1-43.5,0.2c-5.1,0-10.2-0.1-15.4,0c-2.2,0-3.2-0.4-3.1-2.9
		c0.2-4.6,0.1-9.2,0-13.9c0-2.1,0.4-2.8,2.5-1.6c5.8,3.4,11.7,6.7,17.6,9.9c1.3,0.7,1.9,1.6,2,3.2c0.2,2.7,2,4,4.7,3.4
		c2.7-0.6,3.7-2.7,2.9-5.1c-0.8-2.4-2.8-3.7-5.3-2.4c-1.7,0.8-2.8,0.3-4.1-0.5c-5.8-3.3-11.7-6.7-17.6-9.9c-2-1.1-2.8-2.3-2.8-4.6
		c0.1-11.6,0.1-23.2,0.1-34.8c0-4.5,0-4.5,3.9-2.3c0.5,0.3,1.1,0.4,1.7,0.7c4.9,1,8.6,4.4,13,6.5c2.4,1.1,4.6,2.5,6.8,3.9
		c4.4,2.7,6.8,2.1,9.5-2.5c2.9-5,5.3-10.2,8-15.2c3.9-7.4,8.1-14.6,11.6-22.2c1.9-4,1.3-6.5-2.6-8.7c-13.8-7.8-27.6-15.5-41.4-23.3
		c-2.7-1.5-5.7-2.5-7.7-5.1c-2.4-1.2-3-3.1-2.8-5.7c0.2-3,0-6.1-0.1-9.1c1.5-1.3,2.8-0.1,4,0.6c14.2,8,28.5,16,42.7,24
		c5.5,3.1,10.9,6.5,16.6,9.3c4.3,2.1,5.2,5.9,3.1,9.8c-9.1,17.2-18.1,34.4-27.2,51.6c-0.9,1.6-1.6,3.4-2.5,5
		c-1.2,2.1-3.3,2.9-5.1,2.3c-3.5-1-7.2-2.2-8.8-6.2c-0.7-1.7-1.7-2.8-3.7-2.3c-1.8,0.5-2.1,2.1-1.7,3.6c0.5,2,2,2.4,3.8,1.8
		c2.3-0.8,4.1,0,5.9,1.3c5.7,3.9,8.8,1.3,11.1-3.4c6.6-13.4,13.8-26.5,20.7-39.8c2.5-4.9,5.2-9.6,7.6-14.6c2-4.1,1.3-6.6-2.8-8.9
		c-12.5-6.8-24.8-14-37.1-20.9c-7.8-4.4-15.7-8.7-23.5-13.2C413.5,43,412.7,42.6,412.3,41.8z"/>
	<path class="st0" d="M16.5,179.5c7.1,1.9,14.3,3.1,21.7,1.5c4-1.5,8.2-1.6,12.4-1.6c9-0.1,17.9-0.9,26.8-1.7c4.2-0.4,6.7-4,9.9-6.2
		c2.3-1.6,4.3-3.8,7.2-4.6c3.1,5.3,3.5,11.6,5.6,17.2c0.6,1.6-1.1,1.3-1.9,1.4c-3.5,0.2-7,0.4-10.5,0.4c-26.2,0-52.5,0-78.7,0.1
		c-3.2,0-3.9-0.8-3.9-3.9c0.1-57.2,0.1-114.4,0-171.6c0-3.3,0.8-4.1,4.1-4.1C33.1,6.5,57,6.5,80.8,6.5c2.2,1.4,4.8-0.1,7,1.3
		c18.8,1.8,37,5.7,53.1,16.2c19.9,12.9,31.2,31.4,35.1,54.6c3.2,18.8,2.4,37.3-4.5,55.3c-4.8,12.3-12.1,22.9-22.2,31.4
		c-2.7,2.2-6.7,2-9.4-0.2c-1.6-1.3-3.6-0.6-5.4-0.6c-6.9,0-6.5,0-6.5-6.7c0-3.6,2-7.7-1.2-11c-0.8-0.8,0.3-0.9,0.8-1.1
		c0.9-0.4,1.6-0.9,0.9-2c-2.1-3.3,0.2-5.3,2.1-7.4c3.1-5,7.3-8.8,11.9-12.2c5-3.2,6.5-8.1,6.7-13.7c0-0.9-0.1-1.9,0.3-2.6
		c5.4-8.5,4.5-18.5,6.2-27.8c1.9-10.4,3.2-20.9,4.4-31.4c-2.1,2.6-2,6.2-4.1,8.8c-0.6,0.2-0.9-0.2-1.2-0.7c-0.2-0.7-0.2-1.4-0.1-2.1
		c0.1-0.3,0.2-0.7,0.3-1c1.5-3.9,3.1-7.7-0.4-11.4c-2.2-2.4-4.8-2.8-7.8-2c-8.7,2.4-16.2,7-23.7,11.8c-6.8,4.4-13.4,9.1-19.9,14
		c-4.8,3.6-10.7,4.8-16.1,6.9c-9.5,3.6-19.2,7-29,10c-1.2,0.4-1.9,1.1-2.4,2.2c-7.2,15.8-15.7,30.9-23.4,46.4
		c-1.2,2.5-3.1,4.5-4.9,6.6c-5.8,7.1-11,14.5-15.5,22.4c-0.8,1.4-1.5,2.9-2.1,4.4c-1.9,4.2-2,8.2,1.3,11.8
		C12.7,180.4,13.4,180.8,16.5,179.5z"/>
	<path class="st0" d="M390,154c5.7,2,6.2,6.4,5.8,11.6c-0.4,5.7-0.2,11.5,0,17.2c0.1,2.4-0.8,2.9-3,2.9c-20.6-0.1-41.2-0.1-61.8,0
		c-2.8,0-4.5-2-6.9-2.5c-5.2-1.4-9.4-4.9-14.1-7.3c-3.9-2-7.5-4.4-11.5-6.1c-2.7-1.4-5.7-2.5-5.5-6.4c-0.1-2.3-0.1-4.5,0-6.8
		c0-1,0-1.9,0.4-2.9c0.7-1.5,2-1.7,3.6-1.5c0.4,0-0.1-0.6,0-0.2c0,0.1-0.1,0.1-0.3,0.1c-1-0.2-2.3,0.5-3.1-0.6
		c-0.4-0.7-0.5-1.4-0.5-2.2c-0.1-2.5-0.2-5,0.1-7.4c0.2-2.2,1.5-2.9,3.3-2.3c-2.8,0.2-3.5-1.6-3.5-4.2c0.1-3.9-0.2-7.7,0.1-11.5
		c0.2-1.3,0.3-2.6,0.1-3.9c-0.2-1.9-0.2-3.7-0.1-5.5c0.1-2.2,1.2-3.2,3-2.8c-2.2,0.6-3-1-3-3.2c0-2.1-0.2-4.2,0.1-6.3
		c0.3-1.3,1.1-2,2.5-1.9c13.4,6.9,26.2,14.5,39.3,21.9c0.8,0.4,1.4,1,1.8,1.8c3.4,1.5,2.3,4.5,2.3,7.1c0.1,5.8,0,5.8,5.6,5.8
		c3.4,0,6.7,0.1,10,0c2.6-0.1,5.1,0.2,7.4,1.5c2.6,0.5,4.8,1.9,7.1,3.2c6,3.5,12.1,6.9,18.3,10.3C388.4,152.4,389.5,152.9,390,154z"
		/>
	<path class="st0" d="M328.6,55.2c3.2-0.2,6,1.3,9,2.1c1.5,0.4,1.4,1.5,1.4,2.7c0,3.2,0.2,6.5,0,9.7c-0.2,2.7,0.9,3.3,3.4,3.3
		c14.2-0.1,28.5,0,42.7-0.1c3,0,4.1,0.5,4,3.8c-0.2,13.1-0.2,26.2,0,39.3c0,2.8-0.7,3.6-3.5,3.5c-14-0.1-28-0.1-41.9-0.1
		c-2.4,0-5.3-0.7-4.8,3.4c0.1,0.5-0.8,0.4-1.2,0.4c-5.3-1.7-9.7-5-14.5-7.7c-8.9-5-17.9-9.9-26.7-15c-1.9-0.8-3.4-2-3.5-4.3
		c0-1.1,0-2.3,0.5-3.4c0.9-1.4,2.3-0.2,3.1-0.7c0.8,0,0.2-0.7,0.3-0.2c-1.6,0.4-2.9,0.2-3.6-1.5c-0.2-2.9-1.5-6.1,2.2-8
		c1-0.6,2.6-0.3,2.8-2c0.2-2.4,2-3.6,3.6-4.9c7.7-6.1,15.2-12.3,22.9-18.5C325.9,56.1,327.1,55.3,328.6,55.2z"/>
	<path class="st0" d="M391.4,46.8c1.9,1.5,3.2,6.4,2.2,8.3c-0.5,1.1-1.5,0.7-2.3,0.7c-10.5,0-21,0-31.5,0c-1.3,0-2.4,0-3-1.5
		c-0.7-1.9-2.4-1.9-4.1-1.5c-0.7,0.2-1.2,0.7-2.1-0.3c-2.4-2.8-4.8-2.6-6.2,0.6c-0.8,1.8-1.5,2-2.9,1.2c-3-1.7-6.6-2-9.3-4.6
		c-1.1-1.1-2.9-2-4.4-2c-5.4,0.2-4.9-3.2-4.6-6.7c0.1-1.2-0.1-2.5-1.3-2.9c-3.9-1.5-7.5-3.9-11.7-4.1c-1.4-0.1-2.5,0.2-3.4-1.3
		c-1.2-2.2-3.9-0.2-5.6-2c-1.9-2-3.7-0.5-5.2,1.4c-0.8,1-1.9,0.6-1.9-0.9c0-4.2,0-8.5,0-12.7c0-2.3,1.8-1.6,3-1.5c0.7,0,1.4,0.8,2,0
		c0.2-0.2,0.2-0.8,0-1c-0.6-0.9-1.3-0.1-1.9,0c-1.1,0.1-2.7,0.9-3-0.9c-0.2-1.4-0.7-3.1,1-4c0.7-0.4,1.5-0.8,2.1-1.2
		c-0.6-1.6-2.6-1.3-3-2.8c1-1.2,2.3-0.6,3.5-0.6c4.5-0.1,9,0,13.5-0.1c4.9-0.1,9.9-0.6,14,3.1c1.2,0.3,2.4,0.4,3.5,1
		c20.1,11.6,40.3,22.9,60.5,34.3C390.2,45.3,391,45.8,391.4,46.8z"/>
	<path class="st0" d="M417.6,124.2c-6.1-2.1-7.1-6.7-6.6-12.6c0.5-5.3,0.2-10.7,0.1-16.1c0-2.2,0.8-2.3,2.4-1.4
		c4.9,2.8,9.8,5.5,14.6,8.4c2.9,1.7,4.9,10.3,3.4,13.3c-1.2,2.4-1.1,4.7,1.5,6c2.1,1.1,4.1,0.5,5.1-1.6c1.2-2.6,0.8-5-2.4-5.9
		c-2.1-0.6-2.2-2.4-2.4-3.8c-0.7-7-5-10.6-11-13c-1.5-0.6-2.8-1.6-4.2-2.4c-7.2-4.3-7.2-4.3-6.9-13c1.4-0.8,2.2,0.9,3.4,0.8
		c5.6,1.9,10.2,5.7,15.5,8c4.3,1.8,6.2,5,7.1,9.2c0.9,4.2,2.5,8.3,3.5,12.5c0.8,3.1,2.5,6.2,0.3,9.6c-0.9,1.4,0.3,2.9,1.7,3.7
		c1.3,0.8,2.4,0.2,3.2-1c1-1.4,1-3.1-0.4-4c-3.3-2.1-4-5.5-4.9-8.9c-1.4-5-3-10-4.2-15c-0.6-2.3-1.9-3.8-4-5
		c-5.7-3.3-11.8-5.8-17-10c-5.5-1.8-4.2-6.4-4.2-10.5c0-0.7,0.2-2,1-1.3c1.9,1.5,5.6,1.2,5.6,5c0,1.9,1.2,3.3,3.1,3.7
		c1.6,0.3,2.9-0.2,3.9-1.6c1.1-1.6,1.1-3.2,0.1-4.9c-1-1.6-2.6-2.3-4.2-1.6c-4.1,2-7-1-9-3.1c-1.9-1.9-0.6-5.7-0.4-8.6
		c0-0.1,1.1-0.2,1.7-0.3c6.4,2.3,11.9,6.3,17.8,9.5c10.1,5.5,20,11.3,30.1,16.8c1,0.5,1.9,1.1,2.9,1.8c3,2,3.8,4.9,2.2,8
		c-6.6,12.7-13.4,25.4-20,38.1c-1.9,3.6-4.8,4.8-8,3c-6.3-3.5-12.7-6.9-18.9-10.6C418.4,125.2,418,124.7,417.6,124.2z"/>
	<path class="st0" d="M222.7,185.5c-9.7,0.1-19.4,0.1-29.2,0.3c-1.6,0-2.2-0.6-2.2-2.2c0.5-9.4,0.4-18.8,0.4-28.2
		c0-9,0-18.2-0.3-27.3c-0.2-5.7,0.1-11.5-0.1-17.2c-0.1-2.7,0.3-4,3.4-2.9c1.9,0.7,3.6,1.3,5.2,2.5c1.7,1.2,3.5,2.6,6.3,2.4
		c2.9-0.3,3.7,2.5,3.8,5c0,2,0.4,2.9,2.5,2.2c1.7-0.6,2.3,0.1,2,1.8c-0.4,2.5,0.6,2.9,2.7,1.8c1.2-0.6,1.9,0,1.8,1.2
		c-0.4,3.8,1.8,2.4,3.7,1.8c0,8.5,0,16.8,0,25.2c-2.6,2.6-5.9,3.5-9.4,4.1c-1.6,0.3-3.2,0.5-4.8,0.8c-3,0-6,0-7.6,0
		c1.8-0.1,5,0.2,8.3-0.1c3.9-0.8,7.9-1.1,11.4-3c1-0.5,2.3-0.7,2.2,1.2C222.8,165,223.6,175.3,222.7,185.5z"/>
	<path class="st0" d="M192.9,40.1c4,0.5,7.2,2.3,9.4,5.8c0.7,1.2,1.2,1.9,2.9,1c3.3-1.7,6.8,0.4,6.5,4.1c-0.2,2.8-0.1,3.9,2.8,2.1
		c1.1-0.7,2.1-0.2,1.8,1.1c-0.6,2.9,0.1,3.8,2.7,1.9c0.6-0.4,1.2-0.4,1.7-0.1c1,0.6,0.3,1.3-0.1,1.8c-0.8,1.2,0,1.8,0.8,2.5
		c0.5,0.8,0.4,1.7,0,2.5c-2.4,5.6-5,11.2-7.3,16.8c-0.4,0.9-1,1.7-1.9,2.2c-3.5,1.1-6.8,0.2-10-1c-2.1-0.8-4.1-1.8-5.8-3.3
		c-1.3-1.6-3.3-2.5-4.4-4.4L192,73c-0.8-4.3-0.3-8.6-0.4-12.9c-0.1-5.7-0.1-11.4,0-17.1C191.6,41.9,190.7,40.2,192.9,40.1z"/>
	<path class="st0" d="M392.2,31.7c1,0.6,1.6,1.4,1.5,2.7c-0.1,3.3,0,6.7,0,10c0,0.9,0,1.8-1.3,1.6c-2.9-0.5-5.2-2.3-7.7-3.7
		c-18.4-10.4-36.9-20.8-55.3-31.3c-1.2-0.7-2.6-1.1-3.2-2.4c-0.5-0.5-1.4-1-1.4-1.5c0-1,1.1-0.7,1.8-0.7c6.7,0,13.4,0.1,20.1-0.1
		c1.7-0.1,2.2,1.5,3.5,1.6c4.2,1,7.6,3.7,11.2,5.7c9.4,5.2,18.8,10.3,28,15.8C390.4,30,391.6,30.5,392.2,31.7z"/>
	<path class="st1" d="M24.7,175.8c-4.2,1.1-8.3,2.6-12.8,1.4c0-0.2,0-0.4-0.1-0.5c0.5-1,1.4-1.4,2.4-1.6c10.3-2.4,19-8.1,27.7-13.7
		c10.6-6.8,20.2-15,30.2-22.6c16.1-12.4,30.7-26.3,44.5-41c13-13.8,25.7-27.9,34.7-44.8c1.2-2.3,2.1-4.8,2.8-7.3
		c0.3-1,0-2.4,1.6-2.6c3,4,0.6,7.7-0.5,11.4l0-0.1c-0.8,2.6-1.9,5.1-3,7.6c-0.2,0.6-0.6,1.2-1,1.8c-1.5,1.8-2.9,3.7-3.6,6
		c-3.6,5.5-7.6,10.8-11.9,15.8c-1.4,1.1-2.8,2.3-3.7,3.9c-0.2,0.3-0.4,0.5-0.6,0.8c-1.2,1.3-2.6,2.5-3.5,4.1
		c-0.3,0.4-0.6,0.8-0.9,1.2c-2.4,2.6-5.4,4.8-7.2,7.9c-3.3,2.4-5.1,6.2-8.2,8.7c-2.3,1.5-3.8,3.8-6.1,5.3c-1.6,1.8-3,3.9-5.3,5
		c-2.3,1.9-4.1,4.4-6.6,6.1c-0.7,0.5-1.3,1-1.9,1.6c-3.1,3.4-6.8,6.1-10.2,9.1c-2.4,3.3-6,5-9.1,7.3c-2.7,1.6-5.2,3.5-7.2,5.9
		c-0.8,0.7-1.6,1.3-2.6,1.7c-2.2,0.9-3.9,2.5-5.7,4c-0.3,0.2-0.5,0.4-0.8,0.6c-5.4,3.8-11.4,7-16.6,11.1c-1,0.8-2.1,1.3-3.3,1.6
		C32.2,172.5,29,175.6,24.7,175.8z"/>
	<path class="st2" d="M192.9,40.1c-1.4,1-0.9,2.5-0.9,3.8c0,9.7,0,19.4,0,29.1c-1.2-1-0.6-2.3-0.6-3.5c0.2-10.1,0.1-20.2,0.2-30.3
		c0-9.8,0.1-19.7-0.2-29.5c-0.1-2.7,0.8-3.4,3.3-3.3c7.1,0.2,14.2,0.1,21.4,0.1c0.6,1.4,0.7,2.9,0.1,4.3c-2.2,5.9-4.6,11.8-7,17.7
		c-0.2,0.6-0.7,1-1.3,1.3c-0.2,2.5-3.3,2.1-4.1,4.6c-1.9,5.9-2.2,5.9-8.9,5.3C194.1,39.5,193.4,39.2,192.9,40.1z"/>
	<path class="st0" d="M352,6.5c13,0,26.1-0.1,39.1-0.1c1,0,2.6-0.6,2.5,1.3c-0.3,7.8,0.8,15.6-0.5,23.3c-6.3-2.3-11.8-6.3-17.7-9.4
		c-7.4-4-14.7-8.2-22-12.4C352.6,8.6,350.4,8.5,352,6.5z"/>
	<path class="st0" d="M256.4,133.9c-0.4,3.1-3.1,4.3-5.2,5.9c-1.4,1.1-2.3-1-3.2-1.8c-5.3-4.5-10.5-9.2-15.7-13.8
		c-2.4-2.1-3.2-7.1-1.5-10.2c1.7-3.2,3.6-6.3,5.4-9.4c0.9-1.5,1.6-1.7,2.6-0.1c5.6,8.9,11.2,17.7,16.7,26.5
		C256,131.9,256.4,132.8,256.4,133.9z"/>
	<path class="st0" d="M238.9,181.1c-2.9-4.3-5.9-8-8.2-12.1c-1.4-2.5-1.4-5.4,1.3-7.7c5.6-4.8,11-9.8,16.4-14.7
		c1-0.9,2.1-2.7,3.6-0.9c1.5,1.9,5.8,2.7,3.7,6.3C250.4,161.7,244.7,171.2,238.9,181.1z"/>
	<path class="st3" d="M196.8,76.9c1.3,1.5,3.2,2.1,4.9,3c2.9,2.2,6.5,1.8,9.8,2.8c0.6,3.8-1.7,6.5-3.7,9.3
		c-1.3,4.8-6.1,7.9-6.4,13.4c-0.1,1.5-2.4,2.9-4.6,1.9c-1.9-0.9-5.4,0.5-5.4-3.1c-0.1-9.8,0-19.7,0.1-29.5c0-0.2,0.3-0.4,0.4-0.5
		C193.7,74.6,195,76.2,196.8,76.9z"/>
	<path class="st4" d="M179.2,209c-1.9,4.8-3.8,9.6-5.7,14.3c-0.4,1.1-0.4,2.7-2,2.8c-1.9,0.1-1.9-1.7-2.4-2.9
		c-2-4.8-3.8-9.6-6.3-14.3c0,4.8,0,9.6,0,14.4c0,1.7,0.2,3.1-2.4,3c-2.4-0.1-2.2-1.3-2.2-2.9c0-6.4,0-12.7,0-19.1
		c0-1.2-0.8-3.2,1.6-2.9c1.8,0.2,4.2-1.4,5.4,1.8c1.8,4.9,3.9,9.6,6.1,14.9c2.1-5.2,4.1-9.8,5.8-14.6c1.1-3.2,3.6-2,5.6-2.1
		c2.6,0,1.6,2.1,1.6,3.4c0.1,6.2,0,12.5,0.1,18.7c0,1.7-0.1,2.8-2.3,2.8c-2.2,0-2.3-1.1-2.3-2.8c0.1-4.8,0-9.6,0-14.4
		C179.6,209.1,179.4,209.1,179.2,209z"/>
	<path class="st5" d="M433.9,256c0-5.5,0-10,0-14.4c0-1.5,0-2.6,2.1-2.6c1.8,0,2.4,0.7,2.3,2.4c-0.1,6.6,0,13.2,0,19.8
		c0,1,0.4,2.5-1,2.8c-1.1,0.2-2.3,0.4-3.6-1c-3.4-3.7-5.9-8-8.9-11.8c-1-1.2-1.9-2.5-3.5-4.7c0,5.6,0,10.2,0,14.9
		c0,1.6-0.1,2.9-2.4,2.8c-1.4-0.1-2-0.4-2-1.9c0-7.1,0-14.2,0-21.3c0-0.8-0.2-1.9,1.1-1.9c1.5,0,3.1-0.4,4.3,1.3
		c3.2,4.6,6.6,9,10,13.5C432.5,254.3,432.9,254.7,433.9,256z"/>
	<path class="st2" d="M363.6,137.7c-0.1-1.6,1.1-0.9,1.7-0.9c9.2,0,18.4,0,27.6-0.1c2,0,2.9,0.3,2.9,2.6c-0.1,5.2,0,10.4,0,16
		c-1.8-0.8-3.3-1.5-4.8-2.2c-4-0.8-7.2-3.3-10.5-5.4C374.7,144.5,368.5,142.2,363.6,137.7z"/>
	<path class="st6" d="M213.2,210c0,4.7,0,9.2,0,13.7c0,1.4,0.3,2.7-1.9,2.7c-2,0-2.5-0.8-2.5-2.6c0.1-6.4,0-12.7,0.1-19.1
		c0-1.1-0.7-2.8,1.1-3.1c1.7-0.3,3.3-0.4,4.6,1.5c3.2,4.6,6.6,9.1,9.9,13.6c0.2,0.3,0.3,1,1.3,0.7c0-4.4,0.1-8.8,0-13.3
		c0-1.9,0.4-2.6,2.5-2.6c2.1,0,2.1,1.1,2.1,2.6c0,6.4,0,12.7-0.1,19.1c0,1.1,0.9,2.8-0.9,3.2c-1.6,0.4-3.3,0.4-4.6-1.5
		c-3.1-4.5-6.4-8.9-9.6-13.3C214.7,210.9,214.5,210,213.2,210z"/>
	<path class="st4" d="M429.2,209.1c0,5.4,0,10,0,14.5c0,1.7-0.1,2.8-2.3,2.8c-2.1,0-2-1.2-2-2.7c0-6.4,0-12.7,0-19.1
		c0-1.1-0.8-2.8,1-3.1c1.6-0.3,3.3-0.4,4.6,1.5c3.2,4.6,6.6,9,9.9,13.5c0.2,0.3,0.3,1,1.4,0.8c0-4.3,0.1-8.8,0-13.2
		c0-1.8,0.3-2.7,2.4-2.7c2.2,0,2,1.3,2,2.7c0,6.4,0,12.7,0,19.1c0,1.1,0.9,2.7-0.9,3.1c-1.7,0.4-3.3,0.2-4.5-1.6
		c-2.9-4.2-5.9-8.3-9-12.4C431.2,211.4,430.4,210.6,429.2,209.1z"/>
	<path class="st7" d="M357.6,209c0,5.6-0.1,10.1,0,14.7c0,1.9-0.4,2.6-2.5,2.7c-2.2,0-2-1.1-2-2.6c0-6.4,0-12.7,0-19.1
		c0-1.1-0.9-2.8,0.9-3.2c1.6-0.3,3.3-0.5,4.6,1.4c3.1,4.5,6.5,8.9,9.7,13.2c0.4,0.5,0.6,1.4,1.9,1.4c0-4.3,0-8.6,0-12.9
		c0-1.5-0.7-3.3,2.1-3.2c2.5,0.1,2,1.8,2,3.1c0,6.1,0.1,12.2,0,18.4c0,1.2,1,3-1.1,3.4c-1.8,0.4-3.3,0-4.5-1.8
		c-2.6-3.9-5.5-7.7-8.3-11.5C359.8,211.9,359,210.9,357.6,209z"/>
	<path class="st8" d="M412.3,41.8c9,5,18.1,9.9,27.1,15c12,6.7,23.9,13.4,35.8,20.1c4.2,2.4,5.4,5.6,3.1,9.9
		c-10,19.1-20,38.2-30,57.2c-1.3,2.5-5.1,3.6-7.6,2.3c-1.5-0.7-2.9-1.5-4.3-2.3c-1.2-0.8-2.1-1.1-3.6-0.2c-2.3,1.4-4.4,0.7-5.5-1.9
		c-1-2.4,0.3-5.2,2.6-5.7c2.7-0.5,4.3,0.8,5,3.3c0.5,1.9,5.5,5.9,7.7,6c2.9,0,4.3-1.9,5.5-4.2c9.5-18.3,19.1-36.7,28.7-55
		c1.8-3.5,1.5-5.6-1.8-7.5c-20.8-11.8-41.7-23.5-62.5-35.3c-0.6-0.3-1.2-0.4-1.8-0.1C411,42.4,412,42.4,412.3,41.8z"/>
	<path class="st9" d="M290.1,213.5c0-3.2,0-6.5,0-9.7c0-0.9-0.5-2.4,1-2.3c5.5,0.1,11.2-1.1,16.2,2.5c3.9,2.9,5.8,8,4.5,13.3
		c-1.1,4.8-5,8.2-9.9,8.8c-11.9,1.5-11.9,1.5-11.9-10.3C290.1,215,290.1,214.3,290.1,213.5z"/>
	<path class="st9" d="M5.2,213.8c0-3.4,0.1-6.7,0-10.1c-0.1-1.8,0.5-2.4,2.3-2.3c3.5,0.2,7-0.3,10.4,0.6c6.4,1.6,9.7,6.5,9.2,13.4
		c-0.5,6.2-4.5,10.1-10.8,10.8c-11.1,1.1-11.1,1.1-11.1-9.7C5.2,215.5,5.2,214.7,5.2,213.8z"/>
	<path class="st4" d="M265.7,201.2c7.4,0,12.6,5.3,12.6,12.8c0,7.6-5.1,12.8-12.5,12.8c-7.4,0-13.1-5.6-12.9-13
		C252.9,206.6,258.5,201.2,265.7,201.2z"/>
	<path class="st10" d="M380.8,262.8c-1.7-1.8-2.9-4-3.9-6.2c-0.9-2-2.5-2.2-4.3-1.9c-2.2,0.3-1.1,2.1-1.2,3.3
		c-0.2,1.5-0.1,3-0.1,4.5c0,1.5-0.7,1.8-2.1,1.8c-1.3,0-2.2-0.3-2.2-1.8c0-7.2,0-14.5-0.1-21.7c0-1.3,0.7-1.7,1.9-1.7
		c3.5,0,7-0.1,10.5,0.1c3.7,0.2,5.9,2.6,6.6,6.1s-0.3,6.5-3.7,8.1c-1.9,0.9-1.6,1.6-0.6,3c1.2,1.7,2.1,3.6,3.2,5.4
		C384,264.4,382.4,263.4,380.8,262.8z"/>
	<path class="st11" d="M498.7,226c-3.6,1-6,0.3-7-3.2c-0.1-0.3-0.4-0.6-0.6-0.9c-1.6-1.9-1.9-6-5.6-4.6c-2.8,1-1,4.1-1.2,6.2
		c-0.2,1.8-0.2,3-2.6,3c-2.6,0-2-1.7-2-3.1c0-6.4,0.1-12.7-0.1-19.1c-0.1-2.3,0.7-3.1,3-2.9c2.8,0.2,5.7-0.1,8.6,0.1
		c3.7,0.3,6.4,2.2,7.4,5.8c1,3.7-0.3,6.8-3.9,8.7c-1.5,0.8-1.5,1.2-0.7,2.4C495.6,220.8,497,223.3,498.7,226z"/>
	<path class="st12" d="M400.9,264.2c-7.7,0-12.8-6.1-12.6-12.7c0.2-7.5,5.2-12.7,12.6-12.8c7.5,0,13.1,5.5,12.9,12.9
		C413.5,258.6,409.1,264,400.9,264.2z"/>
	<path class="st13" d="M395.5,213.1c1.6,0.4,4.5-1.1,5.2,0.8c0.9,2.5,0.7,5.7,0,8.5c-0.2,0.8-1.2,1.5-2,2.1
		c-3.8,2.9-10.6,3.3-14.9,0.6c-4.9-3-6.6-7.7-5.8-13.2c0.7-5.2,3.8-8.6,8.8-10.1c4.2-1.2,8.4-1,11.9,2.3c0.7,0.7,2.9,1.1,1.4,2.7
		c-1,1.1-2.4,1.7-4.2,0.4c-5.4-3.8-10.7-2.1-12.9,3.8c-1.2,3.3-0.2,7.8,2.4,10c2.7,2.2,5.9,2.5,9.1,1.2c1.8-0.7,2.5-1.8,2.3-3.7
		c-0.3-2.3-2.1-1-3.2-1.3c-0.7-0.2-1.5-0.1-2.2,0c-1.7,0.2-2.1-0.5-2.1-2.1c0-1.5,0.5-2,2-1.9C392.4,213.1,393.8,213.1,395.5,213.1z
		"/>
	<path class="st9" d="M158.3,262.7c-1.3-2.1-2.7-4.1-3.8-6.3c-0.9-1.8-2.3-2-4-1.8c-2.3,0.3-1.1,2.1-1.2,3.2c-0.2,1.3-0.1,2.7,0,4.1
		c0.1,1.8-0.7,2.3-2.4,2.3c-1.8,0-2.1-0.7-2.1-2.2c0-7,0.1-14,0-20.9c0-1.7,0.7-2.1,2.2-2.1c3,0.1,6,0,9,0c3.8,0.1,6.4,1.8,7.6,5.5
		c1.2,3.8-0.1,7-3.9,9c-1.6,0.9-1.3,1.4-0.6,2.5c1.4,2.2,2.7,4.5,4,6.7C161.4,263.9,159.8,263.7,158.3,262.7z"/>
	<path class="st13" d="M113.4,225.9c-4.1,1.5-5.6-0.7-7.3-3.5c-1.3-2.2-1.9-6.7-6-5.1c-2.7,1.1-0.9,4.4-1.1,6.6
		c-0.2,2-0.8,2.4-2.7,2.5c-2.2,0.1-2-1.2-2-2.6c0-6.6,0.1-13.2,0-19.9c0-2,0.6-2.6,2.5-2.5c2.9,0.2,5.8-0.1,8.6,0.1
		c3.9,0.2,7,2.6,7.7,5.9c0.9,3.8-0.3,6.8-3.9,8.7c-1.5,0.8-1.3,1.2-0.6,2.4C110.3,220.8,111.7,223.3,113.4,225.9z"/>
	<path class="st14" d="M79.5,250.7c0.3-3.3-1.8-8.7,0.8-11c2.2-2,7.6-0.6,11.5-0.7c1,0,2,0,3,0c1.5-0.1,1.9,0.7,1.9,2.1
		c0,1.4-0.5,2-1.9,2c-2.9-0.1-5.8,0.1-8.6-0.1c-2.7-0.2-2.3,1.5-2.2,3.1c0.1,1.5-0.8,3.4,2.1,3.2c2.7-0.2,5.5,0,8.2-0.1
		c1.4,0,2,0.4,2,1.9c0,1.4-0.4,2-1.9,1.9c-2.7-0.1-5.5,0.1-8.2-0.1c-3.2-0.2-2.1,2-2.2,3.5c0,1.5-0.9,3.7,2.2,3.5
		c2.7-0.2,5.5,0,8.2-0.1c1.5,0,2.4,0.2,2.3,2c0,1.8-0.7,2.4-2.4,2.3c-4.1-0.1-8.2-0.2-12.3,0c-2.1,0.1-2.5-0.9-2.4-2.6
		C79.5,258.2,79.5,254.9,79.5,250.7z"/>
	<path class="st13" d="M67.3,226c2.9-7.3,5.7-14.4,8.5-21.5c0.9-2.4,2.7-3.2,5.4-3.2c2.7,0.1,2.5,2,3.1,3.4
		c2.5,6.2,4.9,12.4,7.3,18.7c0.4,0.9,1.6,2.3,0.1,2.7c-1.3,0.4-3.9,1.1-4.2-1c-0.7-4.2-3.6-3.6-6.4-3.6c-1.7,0-3.5,0-5.2,0
		c-1.2,0-2.2,0.1-2.4,1.6C72.9,227.1,70.3,226.6,67.3,226z"/>
	<path class="st15" d="M40.5,251.4c0-3.2,0.1-6.5,0-9.7c-0.1-1.8,0.2-2.7,2.4-2.7c4.1,0.2,8.2,0.1,12.3,0c1.3,0,2.4,0,2.5,1.9
		c0,2-1,2.2-2.6,2.2c-2.1-0.1-4.2,0-6.4,0c-3.5,0-4.9,2-3.8,5.3c0.4,1,1.1,0.9,1.7,0.9c2.2,0,4.5-0.1,6.7,0.1
		c1.4,0.1,3.8-1.4,3.7,1.9c-0.1,3-2.2,1.5-3.5,1.7c-1.5,0.2-3,0-4.5,0c-3.8,0-5.5,2.4-4.2,6c0.4,1.2,1.4,0.9,2.1,0.9
		c2.7,0,5.5,0.1,8.2,0c1.5,0,2.4,0.3,2.3,2.1c-0.1,1.4-0.4,2.3-2.1,2.2c-4.4-0.1-8.7-0.1-13.1,0c-1.9,0.1-1.9-1-1.9-2.3
		C40.5,258.4,40.5,254.9,40.5,251.4z"/>
	<path class="st2" d="M293.9,171.3c0.2-2.8,2.3-1.1,3.6-1.4c3.7,0.3,6.5,2.7,9.6,4.5c5.4,3.1,11.2,5.6,16.2,9.6c0.4,0.3,1,0.7,1,1
		c0,1.1-1,0.7-1.6,0.7c-6.8,0-13.6,0-20.4,0c-2.7,0-5.4-0.1-8.1-0.2c-0.3-2.4,1.1-2.6,3-2.4c0.8,0.1,2.2,1.1,2.2-0.6
		c0-1.3-1.3-0.5-2-0.4c-1.2,0.1-2.5,0.4-3.2-1C292.2,177.8,292.2,174.5,293.9,171.3z"/>
	<path class="st16" d="M271.9,264.2c-8.3,0-8.3,0-8.3-8.4c0-4.6,0.1-9.2,0-13.8c-0.1-2.4,0.7-3,3-2.9c3.9,0.2,7.7,0.1,11.6,0
		c1.4,0,2.4,0,2.4,1.9c0,2-0.9,2.2-2.5,2.2c-2.5-0.1-5,0.2-7.5-0.1c-2.9-0.3-2.5,1.6-2.5,3.3c0,1.7-0.3,3.2,2.4,3
		c2.6-0.2,5.2,0,7.9-0.1c1.6-0.1,2.1,0.5,2.1,2.1c0,1.8-1,1.7-2.2,1.7c-2,0-4,0-6,0c-4.1,0-5.1,1.5-4.2,5.6c0.4,1.6,1.4,1.2,2.2,1.2
		c2.6,0,5.2,0.1,7.9,0c1.4,0,2.4,0.1,2.3,1.9c0,1.6-0.3,2.5-2.3,2.4C276.2,264,274,264.2,271.9,264.2z"/>
	<path class="st11" d="M497.6,263.9c-3,0.7-5.3,0.8-5.9-2.7c-0.3-1.5-1.3-2.2-3-2c-1.7,0.2-3.5,0.2-5.2,0c-2.6-0.2-4.4,0.2-5.1,3.2
		c-0.7,2.9-3.2,1.6-5.7,1.7c3.2-8.1,6.4-15.9,9.4-23.7c0.8-2.1,2.5-1,3.8-1.2c1.4-0.3,2.3,0.2,2.9,1.6
		C491.6,248.3,494.5,255.9,497.6,263.9z"/>
	<path class="st17" d="M459.1,213.2c0.4-3.3-0.6-7.4,0.5-11.5c5.1-0.7,10.2-0.1,15.3-0.3c0.9,0,1.3,0.5,1.3,1.3
		c0.1,1.7,0,2.9-2.2,2.8c-2.6-0.2-5.2,0.1-7.9-0.1c-2.9-0.2-2.5,1.6-2.5,3.4c0,1.8-0.1,3.2,2.4,3c2.7-0.2,5.5,0,8.2-0.1
		c1.5,0,1.9,0.6,1.9,2c0,1.5-0.6,1.9-2,1.9c-2.7-0.1-5.5,0.1-8.2-0.1c-3.1-0.2-2.2,1.9-2.3,3.5c-0.1,1.7-0.6,3.6,2.4,3.4
		c2.7-0.2,5.5,0,8.2-0.1c1.4,0,2,0.4,2,1.9c0,1.5-0.2,2.3-2,2.2c-4.2-0.1-8.5-0.1-12.7,0c-2.1,0.1-2.5-0.9-2.4-2.7
		C459.2,220.4,459.1,217.2,459.1,213.2z"/>
	<path class="st18" d="M188.3,214c0-3.4,0.1-6.7,0-10.1c-0.1-2,0.7-2.6,2.6-2.5c4.1,0.1,8.2,0.1,12.3,0c1.5,0,2.2,0.3,2.2,2.1
		c0,1.8-0.8,2.1-2.3,2c-2.7,0-5.5,0.1-8.2,0c-2.7-0.2-2.2,1.6-2.2,3.1c0.1,1.4-0.8,3.4,2.1,3.2c2.7-0.2,5.5,0,8.2-0.1
		c1.5,0,2.2,0.4,2.2,2.1c0,1.6-0.9,1.8-2.1,1.8c-2.4,0-4.8,0.2-7.1-0.1c-3-0.4-3.3,0.9-3.4,3.5c-0.1,3,1,3.5,3.6,3.3
		c2.4-0.2,4.7,0,7.1-0.1c1.7-0.1,2.1,0.6,2.1,2.2c0,1.5-0.6,1.9-2,1.9c-4.4,0-8.7-0.1-13.1,0c-1.7,0-2.1-0.7-2.1-2.3
		C188.4,220.7,188.3,217.4,188.3,214z"/>
	<path class="st16" d="M404.4,214c0-3.4,0-6.7,0-10.1c0-1.6,0.2-2.6,2.2-2.5c4.2,0.1,8.5,0.1,12.7,0c1.6,0,2.1,0.6,2.1,2.2
		c0,1.9-1,2-2.4,1.9c-2.5,0-5,0.2-7.5-0.1c-2.8-0.3-2.9,1.2-2.9,3.3c0,2.1,0.2,3.3,2.8,3c2.6-0.2,5.2,0,7.9-0.1c1.4,0,2,0.3,2,1.9
		c0,1.4-0.4,2-1.9,2c-2.4-0.1-4.8,0.1-7.1-0.1c-2.6-0.2-3.8,0.3-3.6,3.3c0.1,2.7,0.6,3.8,3.5,3.5c2.3-0.3,4.7,0,7.1-0.1
		c1.5-0.1,2.2,0.3,2.2,2c0,1.7-0.7,2.1-2.2,2c-4.1-0.1-8.2-0.1-12.4,0c-2,0.1-2.6-0.7-2.5-2.6C404.5,220.5,404.4,217.2,404.4,214z"
		/>
	<path class="st13" d="M534.4,225.8c-4.2,0.9-7.1,1-7.9-3.1c-0.2-1.2-1.1-1.1-2-1.1c-2,0-4,0.1-6,0c-2.4-0.2-4,0.2-4.7,2.9
		c-0.8,3.3-3.4,1.1-5.8,2.3c3.3-8.5,6.3-15.9,9.1-23.5c0.7-1.9,1.9-1.9,3.5-1.9c1.6,0,2.8,0,3.5,1.9c2.4,6.5,5,13,7.6,19.4
		C532.1,223.8,532,225.2,534.4,225.8z"/>
	<path class="st13" d="M156.6,226.1c-3.1,0.5-5.7,0.8-6.1-3c-0.1-1.1-1.1-1.5-2.3-1.4c-2.6,0.1-5.2,0.1-7.9,0
		c-1.1,0-2.2,0.2-2.3,1.4c-0.4,3.9-2.9,3.7-6.1,3.1c3.1-7.9,6.1-15.7,9.1-23.4c0.8-2,2.5-1,3.9-1.2c1.4-0.2,2.2,0.3,2.8,1.8
		C150.6,210.8,153.6,218.2,156.6,226.1z"/>
	<path class="st4" d="M197.9,262.7c2.8-7.4,5.6-14.8,8.4-22.2c0.7-1.8,2.1-1.4,3.4-1.4c1.3,0,2.6-0.3,3.3,1.5c3,7.7,6,15.4,9.1,23.2
		c-3.3,1-5.5,0.4-6.3-3.1c-0.3-1.3-1.3-1.6-2.5-1.6c-1.6,0.1-3.3,0.2-4.9,0c-3.2-0.5-5.1,0.6-6.1,3.6
		C200.9,263.7,199.4,263.8,197.9,262.7z"/>
	<path class="st19" d="M302,251.5c0-3.4,0.1-6.7,0-10.1c0-1.8,0.5-2.4,2.3-2.4c4.1,0.1,8.2,0.1,12.4,0c1.5,0,2.3,0.3,2.3,2
		c0,1.7-0.8,2.1-2.3,2c-2.8-0.1-5.5,0.1-8.2,0c-2.8-0.1-2,1.8-2.1,3.3c0,1.4-0.5,3.1,2,2.9c2.7-0.2,5.5,0,8.2-0.1
		c1.6-0.1,2.1,0.5,2.1,2.1c0,1.7-0.9,1.7-2.1,1.7c-2.8,0-5.5,0.1-8.2,0c-2.9-0.2-2.1,1.9-2.1,3.3c0.1,1.5-1,3.8,2.1,3.6
		c2.6-0.1,5.2,0,7.9,0c1.5,0,2.7,0,2.6,2.1c0,1.8-0.7,2.3-2.5,2.2c-4-0.1-8-0.2-12,0c-2.1,0.1-2.6-0.8-2.5-2.6
		C302,258.3,302,254.9,302,251.5z"/>
	<path class="st20" d="M91.4,129.1c0.5-0.4,1-0.9,1.6-1.3c3.1-1.1,4.9-3.7,6.7-6.2c2.5-0.9,3.3-3.6,5.3-5.1c3-0.7,4.2-3.4,6.2-5.3
		c2.6-1.5,3.2-4.5,5.4-6.5c0.9-0.8,1.4-1.6,2.7-1.4c1.1-2.5,3.4-3.9,5.1-5.8c0.9-1,2.1-1.8,2.4-3.2c0.1-0.2,0.2-0.3,0.4-0.4
		c1.5-1.4,3-2.8,4.1-4.5l0,0c1.2-1.7,2.7-3,4.1-4.6c3.9-5.1,7.8-10.2,11.7-15.3c1-2.4,2.9-4.3,3.8-6.8c0.2-0.3,0.5-0.5,0.7-0.8
		c1.4-1.8,1.5-4.5,3.7-5.7c0.3,0.3,0.5,0.6,0.8,0.9c-3.7,8.5-9.2,16-14.9,23.2c-18.4,23.3-39.3,44.2-62.4,62.7
		c-12.8,10.2-25.9,20.2-40.4,28.2c-2.4,1.3-4.9,2.5-7.3,3.7c-0.5,0.9-1.4,1.1-2.3,1.2c-0.9,0.5-1.9,0.3-2.8,0.1c1-2,3.3-1.9,4.9-2.9
		c1.7-1.2,3.8-1.8,5.5-3c0.9-0.4,1.9-0.7,2.8-1.1c5.6-4.2,11.8-7.3,17.3-11.6l0,0c2.1-1.4,4.1-3,6.2-4.5c0.7-0.4,1.4-0.7,2.1-1.1
		c2.3-2.5,5.2-4.2,7.7-6.4c2.9-2.5,6.6-4.1,8.8-7.5C85.2,136.1,88.7,133.1,91.4,129.1z"/>
	<path class="st12" d="M315.5,214c0-3.4,0.1-6.8,0-10.1c-0.1-2,0.6-2.6,2.6-2.5c4,0.1,8,0.1,12,0c1.4,0,2.4,0,2.4,1.9
		c0,2-0.9,2.3-2.5,2.2c-2.6-0.1-5.2,0.1-7.9,0c-2.8-0.2-2.1,1.7-2.2,3.2c0,1.5-0.6,3.4,2.2,3.1c2.6-0.2,5.2,0,7.9-0.1
		c1.4,0,2.3,0.1,2.3,1.9c0,1.9-0.9,2-2.3,1.9c-2.1-0.1-4.3,0.2-6.4-0.1c-3.3-0.5-4,0.9-3.8,3.9c0.1,2.2,0.4,3.2,2.9,2.9
		c2.5-0.2,5,0,7.5-0.1c1.5,0,2.3,0.2,2.3,2c0,1.7-0.6,2.1-2.2,2.1c-4.2-0.1-8.5-0.1-12.7,0c-1.8,0-2.1-0.7-2-2.2
		C315.5,220.8,315.5,217.4,315.5,214z"/>
	<path class="st21" d="M30.4,213.6c0-3.4,0.1-6.7,0-10.1c0-1.6,0.6-2.2,2.2-2.2c4.2,0.1,8.5,0.1,12.7,0c1.3,0,2.1,0.2,2.1,1.8
		c0,1.5-0.2,2.4-2,2.3c-2.7-0.1-5.5,0.1-8.2-0.1c-2.8-0.2-2.1,1.8-2.1,3.2c0,1.5-0.6,3.4,2.2,3.1c2.6-0.2,5.2,0,7.8-0.1
		c1.6-0.1,2.2,0.4,2.1,2.1c0,1.6-0.8,1.8-2.1,1.8c-2,0-4,0-6,0c-4,0-5.2,1.7-4.2,5.6c0.3,1.3,1.1,1.1,1.9,1.1c2.7,0,5.5,0.1,8.2,0
		c1.5,0,2.3,0.3,2.2,2c0,1.7-0.7,2.1-2.2,2.1c-4.1-0.1-8.2-0.1-12.3,0c-2.1,0.1-2.5-0.8-2.5-2.6C30.5,220.4,30.4,217,30.4,213.6z"/>
	<path class="st4" d="M50.9,213.6c0-3.2,0.1-6.5,0-9.7c0-1.6,0.2-2.6,2.2-2.5c3,0.2,6-0.1,9,0.1c4.9,0.3,7.8,3.4,7.7,8.2
		c-0.1,4.6-2.9,7.2-8,7.4c-6.1,0.2-6.2,0.2-6.3,6.5c0,1.7,0,2.8-2.3,2.8c-2.3,0-2.3-1.1-2.3-2.7C51,220.3,50.9,216.9,50.9,213.6z"/>
	<path class="st22" d="M255.6,127.1c-5.1-8-10.1-16.1-15.5-24.5c4.7-1.2,8.9-3.3,13.8-2.5c1.6,0.3,2.5,0.7,2.4,2.5
		c-0.1,8.1,0,16.1,0,24.2C256.1,127,255.9,127,255.6,127.1z"/>
	<path class="st2" d="M256.3,158.7c0,8.2,0,16.4,0,24.6c0,1.6-0.3,2.6-2.2,2.5c-3.5-0.1-7,0-10.5,0c-2,0-3.3-1-2.1-3.1
		c4.6-8.1,9.3-16.2,13.9-24.2C255.8,158.5,256,158.6,256.3,158.7z"/>
	<path class="st6" d="M463.1,264.2c-5.8,0.2-11.4-4.1-12.6-8.9c-1.5-5.9,0.5-11.7,5.5-15c4-2.6,10.9-2.3,14.3,0.8
		c1,0.9,3,1.8,1.6,3.4c-1.2,1.5-2.6,1.4-4.3-0.2c-3.2-3-7.9-2.3-11,1c-3,3.3-2.7,9.4,0.6,12.6c3.1,3,7.6,3.3,10.7,0.1
		c1.7-1.8,2.9-1.1,4,0c1.5,1.5-0.3,2.5-1.2,3.1C468.5,263,466.1,264.8,463.1,264.2z"/>
	<path class="st2" d="M233.2,141.5c2,0.9,2.7-0.6,3.6-1.8c1.4-2,2.7-2.8,5.3-1.3c6.5,3.8,6.7,3.6,1.1,8.8c-5,4.6-10,9.1-15.5,13.4
		c0.3-4.5-1.7-9.1,0.9-13.4C229.6,144.9,230.5,142.5,233.2,141.5z"/>
	<path class="st12" d="M111.7,264.2c-6.3-0.1-11-3.8-12.5-9.2s0.9-11.8,5.7-14.7c4.5-2.7,11.4-2.1,14.9,1.4c0.7,0.7,2.7,1.5,1.1,2.9
		c-1,0.9-2.3,2-4.1,0.3c-3.5-3.4-7.9-3-11.2,0.4c-3.1,3.2-2.9,9.4,0.3,12.6c3.3,3.3,7.6,3.4,11.2-0.1c1.8-1.8,2.7-0.2,3.7,0.4
		c1.6,1,0,2-0.7,2.5C117.7,262.8,115.1,264.5,111.7,264.2z"/>
	<path class="st11" d="M334.2,264.2c-6.2,0.1-11.3-4.2-12.6-9.1c-1.4-5.7,0.7-11.6,5.5-14.7c4.2-2.7,11.3-2.2,14.9,1.3
		c0.8,0.7,2.6,1.5,1.4,2.8c-1.1,1.1-2.5,2-4.4,0.2c-3.4-3.3-8-2.7-11.2,0.8c-2.8,3.1-2.6,9.3,0.4,12.3c3.2,3.2,7.8,3.5,10.9,0.2
		c1.8-1.8,3-0.8,4,0.1c1.7,1.5-0.4,2.4-1.2,3C339.8,263,337.3,264.6,334.2,264.2z"/>
	<path class="st12" d="M174.7,251.6c0-5.8,2.9-10.2,7.7-12c5-1.9,10.3-0.9,13.4,2.7c0.6,0.6,2.4,1.4,0.7,2.5c-1,0.7-2.1,2-3.8,0.4
		c-3.6-3.3-7.6-3.3-10.7-0.5c-3.4,3.1-4,8.4-1.2,12.2c3,4.1,8.1,4.9,11.5,1.3c1.9-2,3.2-0.9,4.3,0.1c1.6,1.4-0.5,2.1-1.2,2.8
		c-3.2,3.1-7.5,4.3-11.4,2.8C177.7,261.5,174.8,259.1,174.7,251.6z"/>
	<path class="st23" d="M417.6,124.2c6.6,3.6,13.3,7.3,20,10.9c3.6,1.9,5.8,1.1,7.7-2.6c6.2-11.9,12.4-23.9,18.9-35.6
		c2.9-5.2,1.6-8.1-3.1-10.7C444.9,77.4,429,68.1,413,58.9c0.3-0.2,0.6-0.5,0.9-0.8c9.5,5.2,19,10.4,28.4,15.7
		c7.3,4.1,14.5,8.2,21.8,12.4c3.5,2,4.4,5.4,2.5,9c-6.8,12.9-13.5,25.8-20.3,38.7c-2.2,4.1-5.4,4.8-9.5,2.5
		c-6.7-3.9-13.4-7.7-20-11.5C417,124.7,417.3,124.4,417.6,124.2z"/>
	<path class="st24" d="M230,239.3c8.4-1.4,7.4,7.4,11.9,9.8c1.6-2.6,3.4-5.3,5.1-8c0.5-0.8,0.9-1.9,2-2c1.1-0.1,2.6-0.4,3.2,0.2
		c1,0.9-0.3,2-0.9,2.8c-1,1.7-2.1,3.4-3.3,5c-3.4,4.1-5.2,8.6-4.4,14c0.2,1.5,0.4,3.2-2.3,3.1c-2.3-0.1-2.5-1.4-2.2-2.9
		c1.2-6.5-1.8-11.5-5.5-16.3C232.4,243.4,231.4,241.4,230,239.3z"/>
	<path class="st25" d="M352.5,253.1c0-1.4,0-2.7,0-4.1c0-5.4,0-5.5-5.4-5.8c-1.6-0.1-2.2-0.5-2.2-2.2c0-1.5,0.6-1.9,2-1.9
		c5.2,0,10.5,0,15.7,0c1.6,0,1.8,0.8,1.8,2.1c0,1.5-0.5,1.9-2,2c-5.5,0.5-5.5,0.6-5.5,6.1c0,4.1,0,8.2,0,12.4c0,1.3,0.3,2.7-1.9,2.7
		c-2,0-2.6-0.7-2.6-2.6C352.5,258.8,352.5,256,352.5,253.1z"/>
	<path class="st18" d="M122.2,215.5c0-1.2,0-2.5,0-3.7c-0.1-2,0.5-4.4-0.4-5.8c-0.9-1.4-3.4-0.4-5.3-0.5c-1.5,0-1.9-0.7-1.9-2.1
		c0-1.3,0.2-2.1,1.8-2.1c5.4,0.1,10.7,0,16.1,0c1.4,0,1.7,0.6,1.6,1.8c-0.1,1.1,0.2,2.2-1.6,2.3c-1.9,0.1-4.6-1-5.6,0.6
		c-0.9,1.6-0.3,4.1-0.3,6.2c0,3.7,0,7.5,0,11.2c0,1.6,0.2,2.9-2.2,2.8c-2.1,0-2.5-0.8-2.4-2.6C122.3,221,122.2,218.3,122.2,215.5z"
		/>
	<path class="st26" d="M240.5,215.9c0-1.5,0-3,0-4.5c0-5.4,0-5.5-5.5-5.9c-1.6-0.1-2.2-0.6-2.2-2.2c0-1.5,0.6-1.9,2-1.9
		c5.1,0,10.2,0.1,15.3,0c1.6,0,2.2,0.6,2.2,2.2c0,1.5-0.6,1.9-2,2c-5.4,0.5-5.4,0.6-5.4,5.9c0,4.1-0.1,8.2,0,12.3
		c0,1.9-0.5,2.6-2.5,2.6c-2.1,0-2.1-1.1-2-2.6C240.5,221.2,240.5,218.5,240.5,215.9z"/>
	<path class="st27" d="M473,185.5c4.9-9.4,9.7-18.8,14.7-28.1c2.5-4.7,2.1-6.5-2.3-9c-2.8-1.6-5.1-4.1-9.1-2
		c-1.7,0.9-3.8-0.8-4.2-3.2c-0.3-2.2,0.4-4,2.7-4.7c2.1-0.6,4.5-0.1,4.8,2.3c0.4,3.1,2.4,4,4.7,5.1c1.2,0.6,2.4,1.4,3.5,2.1
		c2.5,1.6,3.7,5.3,2.3,8c-5,9.7-10.1,19.4-15.4,29.5c20.1,0,39.7,0,59.3,0c-1,1.4-2.5,0.8-3.8,0.8c-17.5,0-34.9,0-52.4,0
		C476,186.3,474.4,186.4,473,185.5z"/>
	<path class="st3" d="M217.4,8.6c0.5-2.6,2.5-2.4,4.3-2.1c2.1,0.3,1,2.2,1.2,3.3c1.1,6.5-0.8,11.8-6.1,16c-2.3,1.8-4,4.4-6.1,6.5
		c-1.7,1.8-2.3,0.9-2.2-1.1C210.6,23.4,213.6,15.8,217.4,8.6z"/>
	<path class="st28" d="M288.1,249.6c0,2.6,0.1,5.2,0,7.9c-0.1,2,0.7,2.6,2.6,2.5c2-0.1,4,0,6,0c1.5,0,2.6,0,2.5,2.1
		c0,1.9-0.8,2.3-2.5,2.2c-3.5-0.1-7-0.1-10.5,0c-1.9,0.1-2.7-0.6-2.7-2.5c0-6.9,0.1-13.7,0-20.6c0-2,1.1-2.1,2.6-2.1
		c1.8-0.1,2,0.9,2,2.3C288.1,244.1,288.1,246.8,288.1,249.6z"/>
	<path class="st29" d="M134.6,253.8c0,2.7,0,5.5,0,8.2c0,1.4-0.3,2.3-2.1,2.3c-1.9,0-2.4-0.8-2.4-2.4c0-5.1-0.2-10.2,0.1-15.3
		c0.1-2.9-0.8-3.8-3.5-3.5c-1.2,0.1-2.6,0.5-3.6-0.3c-0.7-0.6-0.4-1.6-0.4-2.5c0.1-1.2,1-1.2,1.9-1.2c5.1,0,10.2,0,15.3,0
		c1.4,0,1.9,0.5,2,2c0,1.6-0.5,2.1-2.1,2.2c-5.2,0.3-5.2,0.4-5.2,5.7C134.6,250.5,134.6,252.1,134.6,253.8
		C134.6,253.8,134.6,253.8,134.6,253.8z"/>
	<path class="st30" d="M75.6,264.1c-4.2,0-8.5-0.1-12.7,0.1c-1.6,0-2.2-0.5-2.2-2.1c0-7,0.1-14,0-21c0-1.6,0.6-2.1,2.2-2.1
		c1.7,0,2.4,0.5,2.4,2.3c-0.1,5.4,0.1,10.7-0.1,16.1c-0.1,2,0.6,2.6,2.5,2.5c2.6-0.2,5.2,0,7.9-0.1
		C76.9,261.3,76.8,262.7,75.6,264.1z"/>
	<path class="st2" d="M254.4,58.6c-7.6-3.7-14.2-6.9-20.9-10.1c-0.8-0.4-1.7-0.6-1.8-1.6c-0.1-1.3,1-1.6,1.8-2
		c1.8-1.1,3.8-1.9,5.5-3.2c2.8-2.2,4.4-1.3,6,1.4C247.9,48,250.9,52.8,254.4,58.6z"/>
	<path class="st31" d="M222.7,88.1c-0.2,0.2-0.5,0.5-0.7,0.8c-3.8,4.8-8.1,9-13.4,12.1c-2.4,0.6-3.2-0.3-2.2-2.6
		c0.7-1.7,1.4-3.3,2.1-5c0.6-3.2,2.1-5.9,3.3-8.9c0.9-2.2,2.4-3.3,4.7-3.4c2.1-0.1,3.9-2.2,6.3-1.2
		C223.2,82.6,223.3,85.4,222.7,88.1z"/>
	<path class="st32" d="M251,65.2c-5.3,4.3-5.4,4.5-10.8,0.8c-2.4-1.6-5.8-2.3-5.9-6.5c0-1.8-2.4-0.1-3.6,0.1
		c-0.7-1.4,1.2-2.8-0.5-3.6c-1.4-0.7-2.1-1.5-0.9-2.8c1.2-1.2,2.6-2.1,4.4-0.7c3.8,2.8,7.8,5.4,11.6,8.3
		C247.1,62.1,249.4,63.1,251,65.2z"/>
	<path class="st33" d="M318.6,51.4c-7.5,2.2-15,4.6-22.6,6.5c-3.2,0.8-1.1-2.4-2-3.5c0.1-0.6,0.2-1.2,0.2-1.8
		c0.1-4.8,1.5-6.2,6.1-5.2C306.3,48.6,312.6,49.2,318.6,51.4z"/>
	<path class="st32" d="M109.6,160.1c-0.4,7.2,0.1,13.8,1.2,20.3c0.3,1.9,0.3,3.4-2.4,3.6c-2.2,0.1-4,0.8-4.5-2.5
		c-0.6-3.9-2.1-7.7-3.2-11.5c-0.3-1.1-0.7-1.8,1.3-2.5C105.2,166.5,106.4,162.8,109.6,160.1z"/>
	<path class="st34" d="M255.5,55.9c-3.2-5.2-6.5-10.3-9.7-15.5c-0.3-0.4-0.7-1.1-0.6-1.3c1.5-2.9,4.6-3.4,7-5
		c1.2-0.8,2.3-0.9,3.5-0.1c0.8,0.5,0.6,1.3,0.6,2c0,6.6,0,13.1,0,19.7C256,55.8,255.8,55.9,255.5,55.9z"/>
	<path class="st31" d="M273.4,22.4c3.9-2.4,7.5-4.7,11.1-6.8c2.8-1.5,5.7,0.4,5.7,3.6c0,3.5,0,7,0,10.8
		C284.2,28.4,278.9,25.7,273.4,22.4z"/>
	<path class="st35" d="M415.4,82.1c6.4,3.5,12.9,7,19.3,10.6c1.2,0.7,1.6,1.8,2,3c1.8,6.6,3.8,13.1,5.6,19.7
		c0.5,1.9,1.1,3.2,3.1,4.1c2.5,1.1,3.3,3.5,1.7,5.9c-1.2,1.8-3,2.8-5.1,1.5c-2.4-1.6-3.4-3.8-1.2-6.3c1.1-1.3,1-2.3,0.5-3.7
		c-2-6.8-4-13.6-5.8-20.5c-0.4-1.4-1-2.3-2.4-3c-6.2-3.4-12.3-7-18.4-10.6C414.8,82.6,415.1,82.4,415.4,82.1z"/>
	<path class="st36" d="M326.2,8.7c22.2,12.2,44.3,24.6,66.2,37.4c-0.3,0.3-0.6,0.5-1,0.8c-22.2-12.1-44.3-24.6-66.2-37.3
		C325.5,9.2,325.9,8.9,326.2,8.7z"/>
	<path class="st27" d="M476.8,10.3c5.2,2.9,10.5,5.7,15.7,8.6c1.3,0.8,2.6,1.5,4.2,0.6c6.4-3.6,12.3-2.3,17.9,1.9
		c1.3,1,2.5,1.6,4.3,0.6c2.6-1.4,4.3,0.3,5.1,2.7c0.7,2.3-0.2,4.2-2.5,5.1c-2.4,0.9-4.7-0.3-4.8-2.6c-0.2-3.2-2.5-3.8-4.4-5.2
		c-4.1-3-8.2-4-13-1.5c-3,1.6-5.9,1.1-8.7-0.9c-4.6-3.2-9.9-5.1-14.4-8.5C476.3,10.7,476.6,10.5,476.8,10.3z"/>
	<path class="st37" d="M167.1,251.3c0-3.2,0-6.5,0-9.7c0-1.5,0-2.7,2.1-2.6c1.8,0.1,2.4,0.6,2.4,2.4c-0.1,6.7-0.1,13.5,0,20.2
		c0,1.8-0.5,2.7-2.6,2.6c-2.3,0-1.8-1.6-1.9-2.8C167,258.1,167.1,254.7,167.1,251.3z"/>
	<path class="st22" d="M256.3,18.6c0,5.5-1.5,6.4-6.3,3.7c-0.2-0.1-0.4-0.2-0.6-0.4c-6.3-3.4-6.4-4.1-2.2-9.9c0.7-1,1.4-1.3,2.5-1.1
		C253.2,11.4,256.3,14.9,256.3,18.6z"/>
	<path class="st38" d="M287.1,46.1c-3,2.7-6.9,3.7-10.1,5.9c-1.1,0.7-1.8-0.1-2.5-0.7c-1.7-4.2-0.4-8.6-1-13.9
		C278.4,40.7,283.5,42.1,287.1,46.1z"/>
	<path class="st22" d="M123.6,154.1c-0.8,3.5-1.9,7.5-2.8,11.6c-0.3,1.5-1.4,1.1-2.3,1.1c-1.1,0-2.2,0.1-2.5-1.5
		c-0.5-2.8-1.2-5.6-1.9-8.4c-0.3-1.3,0.2-2.1,1.2-2.8c1.4-1,2.9-2,4.2-3.1c1-0.8,1.6-0.8,2.9-0.2
		C123.8,151.5,123.8,152.3,123.6,154.1z"/>
	<path class="st12" d="M450.6,214c0-3.5,0.1-7,0-10.5c0-1.6,0.4-2.2,2.1-2.1c1.6,0,2.5,0.2,2.5,2.2c-0.1,7-0.1,13.9,0,20.9
		c0,1.9-1,1.9-2.3,1.9c-1.5,0-2.3-0.1-2.2-2C450.7,220.9,450.6,217.4,450.6,214z"/>
	<path class="st39" d="M348.8,213.7c0,3.5,0,7,0,10.5c0,1.5-0.3,2.3-2,2.2c-1.5-0.1-2.6-0.2-2.6-2.2c0.1-6.9,0.1-13.7,0-20.6
		c0-1.9,0.9-2.2,2.5-2.3c1.7-0.1,2.1,0.7,2.1,2.2C348.8,206.9,348.8,210.3,348.8,213.7z"/>
	<path class="st21" d="M442.5,262.7c0-7.1,0-14.2-0.2-21.3c0-1.8,0.5-2.4,2.3-2.4c1.9,0,2.3,0.7,2.3,2.4c-0.1,7.1-0.1,14.2-0.1,21.3
		C445.4,263.8,443.9,263.8,442.5,262.7z"/>
	<path class="st32" d="M222.9,114.3c0,1.7,0,3.5,0,5.2c0,0.7,0,1.7-1.1,1.4c-0.7-0.2-1.1-0.6-0.9-1.6c0.5-2.4-0.5-2.7-2.6-1.9
		c-1.4,0.5-2.9,0.3-1.8-1.9c0.5-1,0.3-1.6-0.5-2.3c-0.8-0.6-1.4-0.2-1.9,0.3c-2.2,1.9-3.9-0.3-4.5-1.5c-1.2-2.2,1.3-2,2.6-2.4
		c2.7-0.9,5.5-1.5,8.2-2.3c1.8-0.5,2.8-0.3,2.6,2C222.8,111.1,222.9,112.7,222.9,114.3z"/>
	<path class="st40" d="M502.2,213.8c0-3.2,0-6.5,0-9.7c0-1.4-0.2-2.7,2-2.7c2,0,2.2,0.9,2.2,2.5c0,6.7,0,13.5,0,20.2
		c0,1.5-0.2,2.2-2,2.3c-2,0-2.2-0.8-2.2-2.5C502.2,220.5,502.2,217.2,502.2,213.8z"/>
	<path class="st41" d="M228.2,170.7c2.6,3.9,5.3,7.7,7.9,11.6c1.4,2.1,1.1,3.4-1.7,3.6c-6.9,0.5-6.9,0.6-6.9-6.4c0-2.8,0-5.6,0-8.5
		C227.7,170.9,227.9,170.8,228.2,170.7z"/>
	<path class="st35" d="M416.1,26.7c7,3.8,13.9,7.6,20.8,11.5c1.7,1,2.7,1.4,3.8-1c0.9-2.2,3.1-3,5.3-1.4c1.9,1.3,2.8,3.3,1.5,5.5
		c-1.2,2-3,3.1-5.4,1.8c-9-5.2-18-10.4-27-15.6C415.5,27.2,415.8,27,416.1,26.7z"/>
	<path class="st42" d="M227.4,29.7c-0.2-2.3-0.3-5.3,2.5-7.4c0.5-0.4,0.8-1,1.5-0.7c1.8,0.6,4.3,7.5,3.1,9c-1.3,1.8-1.7,4.4-4.5,5.2
		c-2.3,0.7-2.9,0.3-2.7-2C227.5,32.6,227.4,31.5,227.4,29.7z"/>
	<path class="st43" d="M256.3,87.3c0.2,2.1,0.2,4.4-2.9,5.1c-0.7,0.1-7.8-3.2-7.8-3.6c-0.1-1.9,4.2-6.6,6-6.6
		C256.3,82.2,256.3,82.2,256.3,87.3z"/>
	<path class="st38" d="M251.4,26.8c-0.4,2.5-2.2,3.2-3.9,3.4c-2.6,0.3-5.1,3.6-7.8,0.5c-2.8-3.2,0.3-5.5,1.7-7.9
		c1.5-2.6,2.9,0.2,4.2,0.7c1.5,0.5,2.9,1.4,4.3,2.2C250.7,26,251.4,26.2,251.4,26.8z"/>
	<path class="st44" d="M222.9,45c0,0.9,0,1.8,0,2.6c0,1.3-3.4,3.5-4.6,2.9c-0.8-0.4-0.6-0.9-0.5-1.8c0.4-2-0.5-2.8-2.5-1.8
		c-2.1,1-4.2,0.1-4.8-1.7c-0.7-1.9,1.5-2.4,3-2.9c1.4-0.5,2.9-0.8,4.3-1.2C222.9,39.5,222.9,39.5,222.9,45z"/>
	<path class="st45" d="M233.2,141.5c-1.5,1.9-3,3.9-4.6,5.8c-2-3-1.8-11.6,0.6-14.1c0.9-1,1.7-3.3,3.6-1.1c1.2,1.5,4.3,2.4,1.4,5.2
		C233.2,138.2,231.1,139.5,233.2,141.5z"/>
	<path class="st46" d="M222.7,88.1c-0.1-2.8,1-5.6-0.7-8.3c-0.2-0.3-0.4-0.6-0.4-1c0.2-2.4,0.1-4.7,0.1-7.1c0-2.3,0-4.6,0.1-6.6
		c-1.5,3.9-3.5,8-5.1,12.1c-0.5,1.2-1.4,2.5-0.1,3.8c0.2,0.3,0.2,0.6-0.1,0.9c-2.4,0-3.7,1.1-4.5,3.4c-0.9,2.8-2.4,5.3-3.6,8
		c-0.2-0.5-0.4-1-0.6-1.4c1.2-3,2.4-6,3.6-9c-0.5-0.9,0.4-1.2,0.8-1.7c3-7,6.1-14,9.1-20.9c0.7,0.6,2.3,0,2.2,1.9
		c-0.1,8.3-0.1,16.7-0.2,25C223.3,87.5,222.9,87.8,222.7,88.1z"/>
	<path class="st47" d="M231.7,73.2c3.1,1.3,4.3-1.1,5.6-3c1.5-2.3,3-2.1,5-0.7c1.7,1.2,1.1,1.8-0.1,2.7c-2.7,2-5.4,4-8,6.1
		c-1.8,1.4-4,1.4-5.7,0.7c-2.9-1.1-0.4-2.9,0.1-4.4C229.4,73.6,230.4,73.1,231.7,73.2z"/>
	<path class="st48" d="M352,6.5c0.5,2.1,2.6,2.4,4.1,3.3c11.3,6.4,22.7,12.8,34,19.1c1.1,0.6,2,1.4,3,2.1c-0.3,0.2-0.6,0.5-0.9,0.7
		c-14.2-7.7-28.3-15.4-42.1-23.8C350.9,7.6,351,6.5,352,6.5z"/>
	<path class="st49" d="M211,107.7c2.9-5.5,6.9-9.4,11.8-13.5c0,3.4,0,6.2,0,9c0,1.3-0.9,1.7-1.8,2C217.8,106,214.6,106.8,211,107.7z
		"/>
	<path class="st50" d="M285,32.6c-0.7,1.7-1.6,3-3.8,1.9c-0.2-0.1-0.5-0.1-0.7-0.2c-8.3-2.6-6.8-0.2-6.7-10c3.6,2.1,7,4,10.4,6
		C285.2,30.9,284.8,31.9,285,32.6L285,32.6z"/>
	<path class="st51" d="M296.1,100.9c0.3-0.2,0.5-0.5,0.8-0.7c9.6,5.4,19.3,10.7,28.9,16.1c4,2.2,7.9,4.6,11.8,7
		c-0.3,0.3-0.6,0.5-0.9,0.8C323,116.5,309.3,109.1,296.1,100.9z"/>
	<path class="st52" d="M227.4,90.3c3.9,1.8,5.3,5,7.2,7.6c1.4,2,0.8,3.2-1.3,4c-1,0.4-2.2,0.6-3.2,1c-2.2,0.8-2.9,0.1-2.8-2.2
		C227.5,97.4,227.4,94,227.4,90.3z"/>
	<path class="st53" d="M231.7,73.2c-0.8,0.9-1.8,1.3-3,1.4c-1-1-1.7-8.8-1.3-8.7c2.5,0.7,3.8-2.5,5.9-1.9c1.7,0.5,3.6,1.5,1.3,3.9
		C233.3,69.4,231.2,70.6,231.7,73.2z"/>
	<path class="st54" d="M238.9,100.1c1.5-2.6,2.9-4.8,4.1-7c0.8-1.6,1.9-0.9,2.8-0.3c2,1.3,6,0.7,6,3.3c0,2.9-4,1.8-6.1,2.7
		C243.7,99.5,241.6,100.3,238.9,100.1z"/>
	<path class="st55" d="M83.9,165.9c-3.6,1.9-7.3,3.7-10.9,5.6c-0.7,0.3-1.3,1-2,0.3c-1-1,0.3-1.5,0.7-2.1c0.8-1.2,1.6-2.5,2.4-3.7
		C77.2,162.6,82,162.6,83.9,165.9z"/>
	<path class="st52" d="M245.6,81.9c-0.1,0.6,0,0.8-0.1,0.9c-2.6,5.3-6.1,6-10.8,2.3c-0.5-0.4-1-0.9-0.6-1.5c0.7-1.2,1.5-2.3,3.1-2.2
		C239.9,81.5,242.6,81.7,245.6,81.9z"/>
	<path class="st47" d="M114.7,179.8c-0.1-4.9,1.6-6.6,5-5.5c2.5,0.8,2.5,3.3,3.2,5c0.5,1.3-1.8,1.2-2.8,1.7
		c-0.6,0.4-1.4,0.4-2.1,0.7C115.6,182.9,114.2,182.6,114.7,179.8z"/>
	<path class="st56" d="M231.9,44.1c-0.3-5.6,1.4-8.1,5.4-9.3c2.5-0.8,3,0.8,3.9,2.2c1.1,1.8-0.7,2-1.6,2.6
		C237.2,41.1,234.7,42.5,231.9,44.1z"/>
	<path class="st47" d="M213.7,35.1c-0.8-0.7-3.2-0.6-1.3-2.7c3.3-3.5,6.6-7,10-10.7c1.4,3.8,0,6.5-2.7,8.6
		C218.3,32.7,217,35.3,213.7,35.1z"/>
	<path class="st57" d="M220.6,31.2c0.9-0.3,2.1-2.7,2.3,0.6c0.3,6.3-1,7.6-9.6,8.9c0.1-1.6,2.2-2.4,1.9-4.2
		C216.4,34,218.1,32.2,220.6,31.2z"/>
	<path class="st58" d="M279.8,6.4c1.2,0,2.5,0.1,3.7,0c1.9-0.2,2.3,0.6,2.3,2.4c0,1.7-0.7,2.2-2.2,2.1c-2.7-0.2-5.5-0.4-8.2-0.4
		c-1.6,0-1.7-0.9-1.7-2.2c-0.1-1.6,0.7-1.9,2-1.8C277,6.4,278.4,6.4,279.8,6.4z"/>
	<path class="st59" d="M132.1,120.9c1.5-2.8,2.6-5.4,4.2-7.7c0.8-1.2,2.1-2.8,4-1.4c1.7,1.3,1.8,2.8,0.5,4.8
		C138.7,119.6,135.7,120.4,132.1,120.9z"/>
	<path class="st60" d="M363.6,137.7c9.2,5,18.4,10,27.3,15.5c-0.3,0.2-0.6,0.5-0.9,0.8c-9.5-4.8-18.7-10.2-27.8-15.6
		C362.6,138.1,363.1,137.9,363.6,137.7z"/>
	<path class="st61" d="M57.7,177.2c1.8,0,3.7,0,5.6,0c0,0.3,0,0.7,0,1c-9.4,0.6-18.8,1.8-28.2,1.4c2.1-1.6,4.5-2,7-2.1
		C47.3,177.4,52.5,177.3,57.7,177.2z"/>
	<path class="st62" d="M129.8,135.4c-1.8-0.5-0.4-1.3-0.1-1.8c2.7-3.8,5.5-7.6,8.3-11.4c1.6-2.2,4.1-1.9,6.4-2.8
		c-0.4,2.1-2.3,2.4-2.8,3.9C138.5,128,134.2,131.8,129.8,135.4z"/>
	<path class="st51" d="M323.9,183.3c-0.2,0.2-0.5,0.5-0.7,0.7c-7.5-3.4-14.3-8-21.6-11.8c-1.4-0.7-2.8-1.5-4.2-2.3
		c0.6-0.1,1.3-0.1,1.6-0.8"/>
	<path class="st63" d="M237.5,79.9c3.6-3.1,7.4-4.1,10.7-5.9c0.8-0.4,1.5,0.3,1.7,1c0.4,1.4-3.2,5.4-4.7,5.5c-0.4,0-0.8,0-1.1,0
		C242.2,80.3,240.4,80.1,237.5,79.9z"/>
	<path class="st64" d="M151.5,80.5c-0.8,6-1.4,11-2.1,16.2c-4.3-2.9-4.3-2.9-2.4-7.2C148.4,86.8,149.2,83.8,151.5,80.5z"/>
	<path class="st59" d="M136.7,121.8c-2.8,3.7-5.2,7-7.6,10.2c-0.4,0.5-0.8,1.4-1.7,0.9c-0.4-0.2-0.7-0.8-0.7-1.2
		C126.4,128,132,122.2,136.7,121.8z"/>
	<path class="st65" d="M222.7,185.5c0-10.6,0-21.1,0-32.2c-4.5,2.2-8.9,3.5-13.5,3.6c-0.2-0.2-0.3-0.3-0.2-0.4s0.2-0.2,0.2-0.2
		c4.7-1,9.4-1.9,13.6-4.5c0.8,1.6,0.6,3.4,0.6,5.1c0,8.2,0,16.5,0,24.7C223.3,183,223.9,184.5,222.7,185.5z"/>
	<path class="st59" d="M92.8,166.1c-3.2,3.5-7.2,5.8-11.6,9.2c1.4-3.4,2.6-5.9,3.7-8.5C87.4,165.1,90.1,165.5,92.8,166.1z"/>
	<path class="st66" d="M217.4,8.6c-2.6,7.7-5.6,15.2-8.9,22.6c-0.2-0.5-0.4-1-0.6-1.5c2.3-6,4.6-12,6.9-18c0.6-1.7,1.8-3.3,1.2-5.3
		C217.1,6.7,216.5,8.1,217.4,8.6z"/>
	<path class="st67" d="M145,95.1c2.1,2,4.9,3.4,3.6,7.2c-0.6,1.8-1.3,1.7-2.6,1C141.8,101.1,141.7,100.5,145,95.1z"/>
	<path class="st68" d="M58.4,172.1c0.8,1.1,1.7,2.1,2.8,3.6c-4.7,0.3-9,0.5-13.4,0.8c-0.7-0.1-1.4-0.2-2.9-0.4
		C49.8,174.4,53.9,172.5,58.4,172.1z"/>
	<path class="st69" d="M236.7,97.1c-2.1-2.8-3.5-5.5-2.5-8.8C242,91.2,242.1,88.9,236.7,97.1z"/>
	<path class="st57" d="M67.4,170c1.9,2.8-0.9,4-2.1,5.3c-1.4,1.6-2.5-0.4-3.4-1.5c-0.8-1-2.5-1.5-1.7-3.2
		C62.6,170.7,64.8,168.5,67.4,170z"/>
	<path class="st70" d="M252.2,32.2c-0.4,0.3-0.8,0.8-1.3,1.1c-1.9,1.1-3.9,2.2-5.8,3.4c-1.6,1.1-1.8-0.4-2.4-1.2
		c-0.9-1.2-0.8-2,0.8-2.4c2.3-0.7,4.5-1.3,6.8-2C251.3,30.5,251.9,30.8,252.2,32.2z"/>
	<path class="st71" d="M122.9,122.8c3.4-3.5,6.1-6.7,10.2-8.2C131.5,121,130.4,121.9,122.9,122.8z"/>
	<path class="st72" d="M222.9,91.8c-3.3,3.2-6.6,6.5-9.9,9.8c-1,0.4-2.3,0.9-2.9-0.2c-0.6-1,0.7-1.7,1.4-2.3
		c2.9-2.6,5.7-5.4,8.8-7.9C221,90.5,222.7,88.7,222.9,91.8z"/>
	<path class="st73" d="M245.1,11.1c-0.8,1.4-1.5,2.8-2.3,4.2c-1.1,2.1-3.7,2.3-5.1,0.5c-0.3-0.4-0.6-0.8-0.1-1.2
		C239.8,12.8,241.1,9.4,245.1,11.1z"/>
	<path class="st64" d="M282.6,13.3c-3,1.8-5.7,3.4-8.4,5.1C272.8,11.9,273.5,11.5,282.6,13.3z"/>
	<path class="st74" d="M151.3,93.2c0.8-7.7,1.7-15.4,3.3-23c1.4-0.1,0.9,0.9,0.8,1.6c-1.1,7.4-2.1,14.9-3.2,22.3
		C151.4,94.2,151.1,94,151.3,93.2z"/>
	<path class="st75" d="M222.9,91.8c-0.1-2.5-1.2-1.1-1.9-0.4c-3.6,3.2-7.1,6.4-10.8,9.8c1,0.9,1.9,0.5,2.8,0.4
		c-1.8,1.6-3.1,0.8-4.4-0.7c4.3-4.2,8.6-8.4,13.4-12.1C222.6,89.7,224.4,90.3,222.9,91.8z"/>
	<path class="st76" d="M239.7,21c-1.1,1.5-1.4,4.5-2.8,4c-2-0.7-2.9-3.4-3.8-5.6c-0.2-0.6,0.9-2.1,2-1.6
		C236.8,18.6,238.8,19.1,239.7,21z"/>
	<path class="st77" d="M278.8,36.2c3.4,0.9,6.7,1.7,10,2.6c1.4,0.4,1.8,1.3,1.5,2.6c-0.5,1.8-1.9,1.1-2.7,0.6c-3.1-1.6-6-3.4-9-5.1
		C278.6,36.7,278.7,36.5,278.8,36.2z"/>
	<path class="st78" d="M129.8,135.4c3.7-4.3,7.7-8.3,11.9-12.2c0.3,0.3,0.5,0.6,0.8,0.8c-3.7,4.3-7.7,8.4-11.9,12.2
		C130.3,135.9,130,135.7,129.8,135.4z"/>
	<path class="st79" d="M114.4,139.7c3.2,1.4,6.4,2.8,9.7,4.3C119.1,147.5,119.5,146.2,114.4,139.7z"/>
	<path class="st80" d="M228.1,112.5c-0.9-7.4-0.9-7.4,4.5-7.6C231.1,107.5,229.6,110,228.1,112.5z"/>
	<path class="st81" d="M125,130.5c-3.5-4.4-2.8-5.7,3.8-7C127.9,126.2,126.7,128.5,125,130.5z"/>
	<path class="st82" d="M243.4,55.7c3.3,1.6,6.5,3.2,9.8,4.8c1,0.5,1,1.2,0.6,2.1c-0.7,1.4-1.4,0.5-2,0.1c-2.9-2-5.8-4.1-8.7-6.2
		C243.2,56.2,243.3,55.9,243.4,55.7z"/>
	<path class="st83" d="M239.7,10.2c-2.2,2.1-2.6,4.9-5.6,3.8c-1-0.4-2.8-0.9-2.2-1.9C233.4,9.4,236.2,10.5,239.7,10.2z"/>
	<path class="st84" d="M94.1,231.6c-2.9,2.2-4.5,5.4-9.2,5.4C87.9,234.4,89.1,230.7,94.1,231.6z"/>
	<path class="st53" d="M93.4,160.3c-1.1,1.5-2.8,2.2-4.4,2.7c-0.7,0.2-1.9,0.3-1.6-1.1c0.4-1.9,1.2-3.5,3.3-3.9
		C92.3,157.6,92.5,159.1,93.4,160.3z"/>
	<path class="st42" d="M252.7,9.5c-1.2-0.5-3.3,0.7-3.2-1.5c0.1-2.9,2.6-1.4,4-1.6c1-0.1,2.8-0.7,2.7,1.4
		C256.2,10.7,253.9,8.9,252.7,9.5z"/>
	<path class="st85" d="M407,231.6c-2.6,2.3-4.4,5.2-8.9,5.5C400.9,234.5,402.1,230.6,407,231.6z"/>
	<path class="st86" d="M501.2,199.5c3.2-2.3,4.1-6.5,9.1-5.4C507.5,196.4,506,199.6,501.2,199.5z"/>
	<path class="st87" d="M121.7,140.5c-3.1-1.4-5.9-2.6-8.8-3.8C116.9,133.6,117.9,135.2,121.7,140.5z"/>
	<path class="st88" d="M145.6,104.9c-1.9,1.4-3.6,2.6-6.1,2.9c0.2-2.2,0.8-4.3,2.4-5.1C142.9,102.1,144.3,103.9,145.6,104.9z"/>
	<path class="st89" d="M124,137.6c-3.7-3-5.9-5.8-5.3-10.5C121.7,130,121.9,133.8,124,137.6z"/>
	<path class="st90" d="M28.5,176.3c0.8-0.4,1.6-0.8,2.3-1.2c2.1,1.2,3.8-0.6,5.8-0.8c1.5-0.1,2.8-1.2,4.3-0.7
		C38.2,176.8,36.8,177,28.5,176.3z"/>
	<path class="st91" d="M250.8,80.3c1.1-1.1,0.4-4,3-3.3c1.2,0.3,3.1,1.2,2.4,2.7C255.1,82.1,252.8,80.1,250.8,80.3z"/>
	<path class="st92" d="M73.4,165.2c-0.9,1.1-2,2.1-2.8,3.3c-1.4,2.2-2.2,0.9-3-0.4c1.5-1.5,3.1-2.9,4.6-4.4c0.5-0.5,1.1-1.3,1.8-0.5
		C74.3,163.5,73.7,164.5,73.4,165.2z"/>
	<path class="st93" d="M234.8,6.4c-2,2.9-4.2,2.4-6.3,2.4c-0.7,0-1.1-0.5-1.1-1.2c0-0.8,0.5-1.1,1.2-1.1
		C230.5,6.4,232.4,6.4,234.8,6.4z"/>
	<path class="st94" d="M81,161.6c-0.9-0.4-2.2-1.2-0.8-1.9c1.5-0.7,2.8-1.9,4.6-2.1c2.5-0.2,2.7,0.5,1.7,2.5
		C84.8,161.5,82.8,161.2,81,161.6z"/>
	<path class="st95" d="M128.7,113.9c1.4-1.9,2.8-3.7,4.2-5.6c0.6-0.8,1.2-1.2,2.1-0.4c0.8,0.8,0.1,1.4-0.4,1.8
		c-1.7,1.6-3.5,3.2-5.3,4.8C129.1,114.3,128.9,114.1,128.7,113.9z"/>
	<path class="st96" d="M284.9,32.7c3.2-0.7,3.5,2.5,5.1,3.9C287.8,36,284.2,37.2,284.9,32.7C285,32.6,284.9,32.7,284.9,32.7z"/>
	<path class="st97" d="M236.6,9.2c1.6-2.8,3.5-3.4,6.1-2.4C241.8,10.1,239.2,9.2,236.6,9.2z"/>
	<path class="st1" d="M16.5,179.5c-0.6,0.9-0.8,2.5-2.1,2.1c-2-0.7-3.6-2.1-3.8-4.4c0.5-0.3,1-0.3,1.5,0.2l-0.1-0.1
		C13,179,15.2,178.3,16.5,179.5z"/>
	<path class="st98" d="M147.6,107c-1.1,1.5-2.1,2.7-2.9,4c-0.8,1.2-1.4,1-2.3,0.1c-0.8-0.9-0.8-1.5,0.3-2
		C144.2,108.4,145.4,107,147.6,107z"/>
	<path class="st99" d="M56.6,168.9c2.4-1.9,4.8-2.3,7-3.2c0.6-0.2,1,0,1.1,0.6c0.1,0.3-0.2,0.8-0.4,0.9
		C62,167.9,59.9,169.6,56.6,168.9z"/>
	<path class="st100" d="M36.1,170.5c-2.8,3.2-7.2,3.6-10.4,5.9c-0.3-0.2-0.7-0.4-1-0.6C28.4,173.7,32.2,172,36.1,170.5z"/>
	<path class="st101" d="M139.5,101.4c-1.1,1.5-1,3.9-2.9,5c-0.4,0.2-1.6-1-1.3-1.4c1.2-1.5,1.6-3.6,3.3-4.7
		C139.1,100,139.4,100.7,139.5,101.4z"/>
	<path class="st102" d="M220.6,31.2c-1.8,1.8-3.6,3.5-5.4,5.3c-0.5-0.5-1.1-0.9-1.6-1.4c2.7-0.7,3.7-3.6,6.1-4.7
		C220,30.7,220.4,31,220.6,31.2z"/>
	<path class="st103" d="M146.7,115.7c-3.7-2.5-0.9-3.9,0.8-5.8C147.9,112.2,147.6,113.9,146.7,115.7z"/>
	<path class="st104" d="M55.6,170.1c-2.7,1-5.5,1.9-8.2,2.8c2.1-2.8,5.2-3.1,8.1-3.8C55.4,169.5,55.5,169.8,55.6,170.1z"/>
	<path class="st105" d="M87.8,7.8c-2.4-0.2-5,1.2-7-1.3C83.2,6.7,85.9,5.1,87.8,7.8z"/>
	<path class="st106" d="M421.5,76.6c-0.9-0.2-1.6-0.8-1.5-1.7c0.1-0.9,0.6-1.7,1.6-1.7c1,0,1.5,0.8,1.5,1.7
		C423.2,76,422.5,76.5,421.5,76.6z"/>
	<path class="st107" d="M106.6,159.4c-0.9,1.9-2.2,3-3.4,4.2C102.4,160.3,102.7,160,106.6,159.4z"/>
	<path class="st108" d="M256.2,140c0.2,1.6,0.4,3-0.1,4.3c-1.3,0.1-2.6-0.6-2.6-1.6C253.5,141.2,254.9,140.6,256.2,140z"/>
	<path class="st109" d="M445.4,25.9c-0.1,1.2-0.8,1.7-1.8,1.5c-1-0.1-1.4-0.9-1.2-1.9c0.1-0.8,0.8-1.2,1.6-1.2
		C445.1,24.4,445.4,25.1,445.4,25.9z"/>
	<path class="st110" d="M142.6,92.6c0.2,0.7,0.4,1,0.3,1.1c-1,1.7-1,4-2.8,5.3c-0.1,0-0.5-0.3-0.5-0.4
		C139.9,96.4,141.4,94.8,142.6,92.6z"/>
	<path class="st111" d="M81,161.6c1.6-1.4,3.4-1.7,5.4-1.5C85.5,163.8,83.1,162.1,81,161.6z"/>
	<path class="st112" d="M520.2,12.5c0.9,0.2,1.6,0.7,1.6,1.6c0,1-0.7,1.5-1.7,1.6c-0.8,0-1.3-0.6-1.3-1.4
		C518.7,13.3,519.2,12.7,520.2,12.5z"/>
	<path class="st113" d="M380.8,262.8c1.3-0.3,2.9,0.6,3.9-1c0.6,0.6,2.1,1.8,0.9,2.1C384.3,264.3,381.8,265.7,380.8,262.8z"/>
	<path class="st114" d="M472.3,25.9c-0.2,1-0.7,1.6-1.8,1.5c-0.9-0.1-1.2-0.8-1.2-1.6c0-1.1,0.7-1.5,1.7-1.4
		C471.9,24.5,472.3,25,472.3,25.9z"/>
	<path class="st115" d="M436.2,118.2c-0.2,1-0.7,1.6-1.8,1.5c-0.9-0.1-1.2-0.7-1.2-1.6c0-0.8,0.5-1.4,1.3-1.5
		C435.6,116.6,436,117.3,436.2,118.2z"/>
	<path class="st115" d="M437.2,181.6c-1-0.1-1.6-0.6-1.6-1.6c0-0.9,0.5-1.4,1.3-1.5c0.8-0.1,1.5,0.3,1.6,1.1
		C438.7,180.7,438.2,181.4,437.2,181.6z"/>
	<path class="st116" d="M158.3,262.7c1.6,0,3.1,0,4.6,0c0.5,0.2,0.9,0.9,0.6,1C161.7,264.1,159.5,265.7,158.3,262.7z"/>
	<path class="st117" d="M197.9,262.7c1.5,0,3,0,4.5,0c-0.5,3.1-2.9,1.2-4.3,1.4C197.1,264.3,197.1,263.3,197.9,262.7z"/>
	<path class="st118" d="M155.4,71.8c-0.3-0.5-0.6-1-0.8-1.6c0.3-1.9,0.6-3.8,2.4-6.1C156.2,67.2,156.4,69.6,155.4,71.8z"/>
	<path class="st119" d="M248.3,71.8c1-2.1,2.8-2.5,4.5-4.2C252.6,71.1,250.6,71.2,248.3,71.8z"/>
	<path class="st120" d="M141.5,118.5c0.3-1.4,0.6-2.7,2.1-2.7c0.3,0,1,1,0.9,1.4C144.2,118.9,142.4,117.7,141.5,118.5z"/>
	<path class="st121" d="M112.6,133c1-1.5,1.6-2.7,3.1-3.4C117,132.8,114.5,132.3,112.6,133z"/>
	<path class="st122" d="M75.6,264.1c0-1.4-0.1-2.8-0.1-4.3C77.9,261.4,77.9,262.5,75.6,264.1z"/>
	<path class="st123" d="M151.3,93.2c0.3,0.3,0.6,0.6,0.9,0.9c0.3,1.7-0.4,3.2-1.2,5.6C150.5,96.9,150.4,95,151.3,93.2z"/>
	<path class="st124" d="M442.5,262.7c1.4,0,2.8,0,4.2,0c0.4,1.9-1,1.6-1.9,1.5C443.9,264.1,442.1,265,442.5,262.7z"/>
	<path class="st125" d="M196.8,76.9c-2.2,0-3.6-1.5-5-2.9c0-0.3,0-0.5,0-0.8C193.7,74.1,195.4,75.3,196.8,76.9z"/>
	<path class="st126" d="M101.3,159.1c-0.6,1.9-1.5,2.7-2.8,2.7c-0.1,0-0.4-0.7-0.3-1C98.5,159.3,99.6,159.3,101.3,159.1z"/>
	<path class="st127" d="M235.8,33.7c0.3-1.2,0.1-2.7,1.7-2.5c0.3,0,0.8,0.8,0.8,1.1C238.2,34.1,236.6,33.2,235.8,33.7z"/>
	<path class="st128" d="M476,84c-0.1,2.4-1.6,3.7-3.8,3.9c-2.2,0.2-3.9-1-4-3c-0.2-2.2-1.2-3.2-3-4.2c-12.2-6.8-24.3-13.7-36.5-20.5
		c-1.9-1.1-3.5-2.3-6-0.9c-2.1,1.1-4.2,0-4.9-2.6c-0.6-2.3,0-4.3,2.5-5.1c2.4-0.8,4.4,0,4.9,2.6c0.4,2.1,1.5,3.2,3.2,4.2
		c12.5,7,25,14.1,37.4,21.2c1.6,0.9,2.9,1.2,4.9,0.6C473.8,79,476.1,81.1,476,84z"/>
	<path class="st129" d="M437.9,170.9c0.2-2.5,1.2-4.1,3.8-4.3c2.9-0.2,4.1,1.7,4.2,4.2c0.1,2.4-1.5,4.1-4,4.1
		C439.6,174.9,438.1,173.3,437.9,170.9z"/>
	<path class="st130" d="M455.8,151.9c-0.3,2.8-1.7,4.4-4.4,4.3c-2.6-0.1-3.7-2-3.7-4.3c0-2.4,1.5-4,4.1-3.9
		C454.4,148,455.6,149.6,455.8,151.9z"/>
	<path class="st131" d="M450.9,161.4c-0.3,2.4-1.4,4-4,4.1c-2.6,0.1-4-1.6-4.1-3.9c-0.1-2.5,1.5-4.4,4.1-4.4
		C449.4,157.2,450.6,159,450.9,161.4z"/>
	<path class="st132" d="M155.2,43.2c0-0.5-0.1-1-0.1-1.5c3.3,2.9,3.3,8.1,0,12.7c-0.2-1.9,0.9-3.6,1.2-5.4
		C156.6,46.9,157.3,44.8,155.2,43.2z"/>
	<path class="st132" d="M155.1,56.4c-1.4,1.8-1.8,4.3-3.7,5.7c0.5-3,2.2-5.4,3.8-7.9C155.2,55,155.2,55.7,155.1,56.4z"/>
	<path class="st133" d="M293.9,120.3c-2.1,0.4-2.8,0.5-2.7-2.6c0.1-5.4-0.1-10.8-0.3-16.4c1.2,0.4,2.1,0.7,3,1c0.1,2,0.3,4,0.1,6
		c-0.2,2.8,0.9,3.7,3.4,3c0.7-0.2,1.4-0.6,1.9,0.3c0.1,0.2,0.2,0.5,0,0.7c-0.5,0.8-1.1,0.5-1.9,0.2c-2.6-1.1-3.6-0.1-3.5,2.6
		C294.2,116.8,294,118.6,293.9,120.3z"/>
	<path class="st134" d="M294.1,153.5c0-0.7,0-1.3,0-2c1.2,0.3,2.4,0.5,3.6-0.1c0.8-0.4,1.4-0.3,1.8,0.5c0.1,0.3,0.1,0.8,0,1
		c-0.4,0.5-1.1,0.6-1.7,0.3C296.5,152.5,295.2,152.5,294.1,153.5z"/>
	<path class="st133" d="M286.4,75.4c1.5-0.5,2.5-1.5,3.1-2.9c0.2-0.3,0.4-0.4,0.7-0.1c1.6-2.4,0.4-5,0.8-7.5
		c0.1-0.6-0.4-1.7,0.8-1.6c0.8,0,1.4,0.6,1,1.5c-0.5,1.3-0.4,2.2,1.2,2.4c1.4,2.2,1.5,4.5-0.1,6.7c-1.3,0.8-2.1,2.4-0.3,2.6
		c5.3,0.7,3.6,3.6,2.6,6.5c-1.7,0.3-2.3,1.4-2.1,3.1c0.1,1.6,0,3.2,0,4.8c0.3,0.7,0.4,1.3,0,2c0,1.2-0.1,2.3-0.1,3.5
		c-2.5-0.5-3.3-2.1-3-4.6c0.4-3.1,0.2-6-3.4-7.4c-1.8-0.7-0.8-2.7-1.2-4l0-0.3c0.8-1.1,0.8-2.3,0-3.4C286,76.2,286,75.8,286.4,75.4z
		"/>
	<path class="st135" d="M294.1,92.9c0-0.7,0-1.3,0-2c1,0.7,2,0.9,3.1,0.4c0.8-0.4,1.6-0.8,2.3,0.1c0.2,0.2,0.2,0.8,0,1
		c-0.5,1-1.3,0.7-2.2,0.3C296.3,92.3,295.2,92.6,294.1,92.9z"/>
	<path class="st136" d="M451.5,87.6c0.1,2-1.1,3.1-2.9,3.8c-1.8,0.8-3.3,0-4.2-1.4c-1.7-2.9-3-5.1-5.6-0.5c-1.4,2.4-3.2-0.3-4.6-1
		c-1-0.5-2.9-0.8-1.6-2.8c1-1.6,1.8-3.3,2.6-4.9c2.1-4.3,2.1-4.2,6.3-1.6c1.4,0.9,2.5,1.5,1.2,3.4c-0.5,0.8-1.7,1.9-0.4,3
		c1.5,1.2,1.8-0.5,2.5-1.1c1.4-1.3,3-1.3,4.5-0.6C450.8,84.5,451.5,85.8,451.5,87.6z"/>
	<path class="st27" d="M420.7,107.9c0,2.7-1.5,4-3.9,4.2c-2.6,0.2-4-1.5-4.2-3.8c-0.1-2.5,1.3-4.4,4-4.4
		C419.2,103.9,420.5,105.5,420.7,107.9z"/>
	<path class="st137" d="M425.8,108.9c2.3,0.4,3.8,1.8,3.8,4.2c0,2.5-1.4,4.3-4.1,4.2c-2.5-0.1-3.9-1.8-3.9-4.1
		C421.5,110.6,423.2,109.3,425.8,108.9z"/>
	<path class="st2" d="M293.9,73.8c0-2.2,0-4.5,0.1-6.7c0.1-0.1,0.3-0.2,0.3-0.2c0.1-6.4,0.1-6.4,6.6-8.1c6.3-1.6,12.5-3.5,18.7-5.2
		c1-0.3,2-1.1,3.2-0.3c1.4,0.9,2.6,1.4,0.6,3.1c-7.9,6.3-15.7,12.7-23.6,19.1C297.5,77.4,294.8,76.5,293.9,73.8z"/>
	<path class="st0" d="M289.4,126.3c-0.5,0.8-1,1.6-1.5,2.3c-1.8,2.8-3.6,5.6-5.4,8.5c-7.8-8.1-9.5-14-8.7-30.2
		c4.5,3.4,8.7,6.5,12.8,9.7C290.9,119.8,291.3,121.1,289.4,126.3z"/>
	<path class="st0" d="M275.1,157.1c0.3,0.2,0.8,0.4,1.2,0.6c4,2.2,8,4.6,12,6.8c2.7,1.5,2.8,3.4,0.8,5.3c-3.8,3.9-7.8,7.7-11.7,11.5
		c-0.6,0.5-1,1.7-2.1,1.1c-0.9-0.5-1.6-1.2-1.6-2.4c0-7.1,0-14.2,0-21.3C273.7,158,274,157.3,275.1,157.1z"/>
	<path class="st0" d="M290.3,116.5c-5.7-4.3-10.6-8.1-15.6-11.8c-1.5-1.1-1-2.4-1-3.7c0.1-4.5,7-8.2,11-6.3c4.3,2,6.4,4.7,5.7,9.7
		C289.9,108,290.3,111.8,290.3,116.5z"/>
	<path class="st31" d="M282.8,143c7.6,10.3,8.3,12.4,7.1,20.8c-4.4-2.5-8.7-5-13-7.4c-1.2-0.7-1.1-1.5-0.6-2.5
		C278.4,150.3,280.6,146.7,282.8,143z"/>
	<path class="st38" d="M273.7,151.1c0-7.2,0-14.4,0-22.7c2.6,4.1,4.7,7.4,6.9,10.7c0.5,0.8,0.1,1.4-0.3,2c-2,3.4-4,6.8-6,10.2
		C274.1,151.2,273.9,151.2,273.7,151.1z"/>
	<path class="st138" d="M278.2,185.5c3-4.7,7.7-7.9,12.1-12.8c0,4.5,0,8,0,11.5c0,1.5-1,1.4-2,1.4
		C284.9,185.6,281.5,185.6,278.2,185.5C278.2,185.5,278.2,185.5,278.2,185.5z"/>
	<path class="st38" d="M290.1,131.3c0,6,0,11.7,0,17.5C283.5,142.6,283.4,139.7,290.1,131.3z"/>
	<path class="st68" d="M286.4,75.4c0,0.4,0,0.8-0.1,1.3c-3,0.4-5.4-1.4-8.1-2.3c-0.9-0.3-1-1-0.5-1.8c1.4-2,2-4.5,4-6.5
		C283.2,69.4,286.2,71.6,286.4,75.4z"/>
	<path class="st139" d="M290.2,72.4c-0.2,0-0.5,0-0.7,0.1c-3.4-1.5-4.2-5-5.9-7.7c-1.1-1.7,1.4-1.5,2.3-1.9c4.4-1.5,4.4-1.4,4.4,3.1
		C290.3,68.1,290.2,70.2,290.2,72.4z"/>
	<path class="st140" d="M285.5,83.4c-2.5,2.2-5.5,3.2-8.5,4.4c-1.6,0.6-3,0-3.3-1.8c-0.3-1.6-0.3-2.8,2.2-3.2
		C279.2,82.3,282.3,83.4,285.5,83.4z"/>
	<path class="st59" d="M286.6,50.3c-1.8,3.3-3.7,6.7-5.5,10.1c-0.5-0.4-0.8-0.5-1-0.8c-3.3-4.9-3.3-4.9,2.1-7.8
		c1.3-0.7,2.6-1.4,3.8-2.2C286.2,49.9,286.4,50.1,286.6,50.3z"/>
	<path class="st141" d="M290.3,95.7c-1.8,0-2.8-1-3.9-1.7c-1.2-0.7-3.6-1-3.3-2.5c0.4-1.4,2.2-2.7,3.8-3.3c1.7-0.7,3.8-0.8,3.5,2.3
		C290.2,92.2,290.3,94,290.3,95.7z"/>
	<path class="st142" d="M286.3,80.1l0,0.3c-3.2,0.1-6.4,0.3-9.6,0.2c-1,0-2.3,0.7-2.9-0.7c-0.3-0.7,0.1-1.3,0.8-1.9
		c1-0.8,1.4-2.2,3.3-1.5C280.6,77.7,283.6,78.5,286.3,80.1z"/>
	<path class="st133" d="M293.9,171.3c0,3.2,0,6.5,0,9.7c-0.9,0.3-1.8,0.6-3.4,1.1C292.3,178.4,288.1,173.5,293.9,171.3z"/>
	<path class="st143" d="M273.7,60.3c0-1.1,0-1.7,0-2.3c0.1-0.7-0.3-1.6,0.5-1.9c1.1-0.4,1.4,0.6,1.8,1.3c0.5,0.7,0.8,1.6,1.4,2.2
		c2.3,2.4,1,3.2-1.5,3.9C271.2,64.6,275.3,60.5,273.7,60.3z"/>
	<path class="st144" d="M284.1,61c1.5-2.6,2.7-4.9,4.1-7.2c0.3-0.5,0.8-1,1.5-0.8c0.9,0.2,0.5,1,0.6,1.5
		C290.9,59.3,290.8,59.4,284.1,61z"/>
	<path class="st145" d="M274.1,73.4c-0.9-7.3-0.9-7.3,4-7.7C276.8,68.1,275.6,70.3,274.1,73.4z"/>
	<path class="st146" d="M279.4,91.3c-2.1,1.8-3.5,3.1-5,4.4C273.1,92.4,274.1,91.4,279.4,91.3z"/>
	<path class="st0" d="M191.9,131.1c0-5.9,0.1-11.7,0-17.6c0-2.6,0.7-3.6,3.2-2.1c3.1,1.8,5.3,5.3,9.7,4.8c1.2-0.1,1.9,1.8,1.6,3.6
		c-0.4,2.9,3.1,6.7,6.1,6.8c3.9,0.2,7.7,4.2,7.9,8.1c0.2,4.8-0.6,9.7,0.6,14.5c0.5,1.9-1,2.7-2.8,2.6c-2.8-0.2-5.4,0.4-8,1.4
		c-0.9,0.3-1.6,0.6-2.2-0.4c-0.3-0.6-1.2-1-1.6-0.6c-3.5,4.3-7.1-0.2-10.7,0.2c-2.9,0.3-4.2-1.5-4-4.7
		C192.2,142.1,191.9,136.6,191.9,131.1z"/>
	<path class="st147" d="M209.2,156.3c0,0.2,0,0.4-0.1,0.6c-3.5,0-6.9,0-10.4,0c0-0.2,0-0.4,0-0.6
		C202.2,156.3,205.7,156.3,209.2,156.3z"/>
	<path class="st148" d="M212.1,81.3c-0.3,0.6-0.5,1.1-0.8,1.7c-3.4-0.4-7-0.2-9.6-3.1C205.2,80.6,208.5,82,212.1,81.3z"/>
	<path class="st149" d="M56.2,157.8c-5,5-11.3,8.1-17.3,11.6c0.1-0.4,0.1-0.9,0.3-1C45,165,50.2,160.7,56.2,157.8z"/>
	<path class="st150" d="M91.4,129.1c0.5,0.2,0.9,0.5,0.4,1c-3.3,2.9-6.6,5.9-9.9,8.7c-0.4,0.4-0.9,0.1-1-0.5
		C84.4,135.2,87.9,132.2,91.4,129.1z"/>
	<path class="st151" d="M126.7,94.5c-1.3,4-4.9,6.1-7.5,9C120.6,99.5,124.1,97.4,126.7,94.5z"/>
	<path class="st152" d="M99.7,121.7c-0.2,2.4-4.3,6.2-6.7,6.2C95.2,125.8,97.5,123.7,99.7,121.7z"/>
	<path class="st153" d="M72.1,145.8c-2,2.8-5,4.5-7.7,6.4C66.1,149,69.1,147.4,72.1,145.8z"/>
	<path class="st154" d="M111.1,111.3c-0.9,2.6-3.4,4-5.2,5.8c-0.4,0.4-0.9,0-1-0.5C107.3,115.1,108.6,112.4,111.1,111.3z"/>
	<path class="st155" d="M62.3,153.3c-1.5,2.3-3.7,3.6-6.2,4.5C57.8,155.7,59.9,154.2,62.3,153.3z"/>
	<path class="st156" d="M150.7,63c-0.2,2.9-2.2,4.7-3.8,6.8C147.3,67,149,65,150.7,63z"/>
	<path class="st100" d="M131.2,89.6c-0.6,2.2-1.9,3.8-4.1,4.5C128.1,92.3,129.3,90.6,131.2,89.6z"/>
	<path class="st157" d="M135.3,85c-0.8,2-2,3.6-4.1,4.6C131.9,87.5,133.3,86,135.3,85z"/>
	<path class="st158" d="M432.5,140.5c-0.2,0.9-0.7,1.5-1.7,1.4c-0.8-0.1-1.2-0.8-1.2-1.6c0-1.1,0.8-1.5,1.7-1.4
		C432.1,139,432.6,139.5,432.5,140.5z"/>
	<path class="st133" d="M294.5,213.9c0-0.9-0.2-1.8,0-2.6c0.5-1.9-1.4-4.5,1-5.7c2.8-1.4,8.8,0.6,10.5,3.1c2,3,1.9,8-0.3,10.9
		c-1.8,2.4-7.3,3.7-10.3,2.8c-1.3-0.4-0.9-1.3-0.9-2.1C294.5,218.1,294.5,216,294.5,213.9z"/>
	<path class="st159" d="M9.5,213.7c0-0.6-0.1-1.3,0-1.9c0.5-2.1-1.5-5,1.2-6.3c2.8-1.3,8.5,0.6,10.3,2.9c2.1,2.6,2,8.1-0.1,10.9
		c-1.8,2.4-7.9,4.1-10.6,2.9c-1-0.4-0.8-1.1-0.8-1.8C9.5,218.2,9.5,216,9.5,213.7z"/>
	<path class="st160" d="M257.5,213.8c0.1-5,3.6-8.8,8.2-8.8c4.7,0,8.1,4,8,9.3c-0.1,5.1-3.6,8.7-8.3,8.6
		C260.7,222.7,257.4,218.9,257.5,213.8z"/>
	<path class="st161" d="M376.1,243.1c2.5-0.2,5.4,0.1,5.3,3.8c-0.1,4.2-3.7,3.5-6.6,3.9c-4.2,0.6-3.2-2.1-3.5-4.5
		C370.7,242.3,373.4,243.1,376.1,243.1z"/>
	<path class="st160" d="M484.2,208.8c-0.6-2.6,0.5-3.7,3.5-3.4c2.8,0.3,6.1-0.3,6.4,3.8c0.2,2.8-1.9,4-6.6,4
		C484.2,213.3,484.2,213.3,484.2,208.8z"/>
	<path class="st160" d="M409.1,251.9c-0.3,5.2-3.8,8.7-8.5,8.5c-4.8-0.2-8-4.3-7.6-9.7c0.3-5,3.8-8.3,8.5-8.1
		C406.1,242.9,409.4,246.9,409.1,251.9z"/>
	<path class="st159" d="M153.1,243.1c3.1-0.2,6,0,5.8,3.9c-0.3,4.4-3.9,3.4-6.7,3.8c-4.2,0.5-2.8-2.4-3.1-4.4
		C148.4,242.5,151,243,153.1,243.1z"/>
	<path class="st159" d="M102.5,213.3c-1-0.6-3.2,1.1-3.5-1.1c-0.3-2.1-1.1-5.4,0.4-6.4c2-1.2,5.1-0.9,7.5,0.2
		c1.7,0.8,2.3,2.7,1.6,4.5c-0.9,2.4-2.9,2.8-5.2,2.7C103.2,213.3,103,213.3,102.5,213.3z"/>
	<path class="st159" d="M80.7,206.9c1.3,3.6,2.6,7,3.8,10.5c-0.4,0.2-0.6,0.4-0.8,0.4c-2.6,0-6.2,0.9-7.5-0.4
		c-1.3-1.4,1.8-4.1,2.4-6.5C79,209.5,79.3,208,80.7,206.9z"/>
	<path class="st162" d="M481,255.2c1.5-3.7,2.2-7.4,4.4-10.8c1.5,3.8,2.8,7.2,4.2,10.8C486.6,255.2,484,255.2,481,255.2z"/>
	<path class="st163" d="M524.8,217.5c-8.6,0.9-8.6,0.8-5.9-6.7c0.5-1.4,0.5-2.9,2-4.1C522.2,210.4,523.5,213.9,524.8,217.5z"/>
	<path class="st159" d="M148.7,217.7c-3.1,0-5.7,0-8.5,0c1.1-3.8,2.3-7.4,4.2-11.1C145.9,210.3,147.2,213.8,148.7,217.7z"/>
	<path class="st159" d="M205.3,255.1c1.4-3.7,2.8-7.3,4.4-11.3c1.5,3.9,2.8,7.5,4.2,11.3C210.9,255.1,208.3,255.1,205.3,255.1z"/>
	<path class="st159" d="M58.6,213.2c-4.1,1.2-2.9-2-3.2-4.3c-0.5-3.3,1.2-3.8,3.8-3.4c0.7,0.1,1.5,0,2.2,0.1
		c2.2,0.3,3.8,1.3,3.9,3.7c0.1,2.7-1.8,3.6-4,4C60.5,213.3,59.7,213.2,58.6,213.2z"/>
	<path class="st68" d="M82.4,168.7c-1.1,2.6-2.1,4.7-3,6.9c-0.6,1.4-1.5,2-2.9,1.6c-1.6-0.5-2.9-1.8-3.3-3.3
		c-0.4-1.4,1.4-1.5,2.2-1.9C77.5,170.9,79.7,170,82.4,168.7z"/>
	<path class="st164" d="M73.4,177.4c-2.7,0.5-5,0.8-7.5,0.5C70,173.7,71.1,173.6,73.4,177.4z"/>
	<path class="st89" d="M477.6,142.3c-0.2,1-0.8,1.6-1.8,1.5c-0.8-0.1-1.3-0.7-1.3-1.5c0-0.9,0.5-1.5,1.3-1.5
		C476.8,140.7,477.3,141.4,477.6,142.3z"/>
	<path class="st165" d="M216.6,81.9c0-0.2,0-0.4,0.1-0.6c1.1-2.4,3.1-2.6,5.4-2.1c0,0.2,0,0.4-0.1,0.6
		C220.4,81.1,218.5,81.7,216.6,81.9z"/>
	<path class="st166" d="M444.7,124.8c-2,0.1-2.5-0.5-2.5-1.3c-0.1-1,0.2-1.8,1.4-1.8c0.9,0,1.4,0.5,1.5,1.3
		C445.2,124,444.8,124.8,444.7,124.8z"/>
	<path class="st167" d="M520.4,24.4c0.9,0.1,1.5,0.7,1.3,1.7c-0.1,0.8-0.7,1.3-1.5,1.3c-1.1,0-1.4-0.7-1.4-1.7
		C518.9,24.9,519.4,24.4,520.4,24.4z"/>
	<path class="st168" d="M444,37.9c1,0.1,1.4,0.6,1.4,1.5c0,1-0.5,1.6-1.6,1.5c-0.8-0.1-1.3-0.6-1.3-1.5
		C442.4,38.4,443.1,37.9,444,37.9z"/>
	<path class="st38" d="M222,79.2c-1.7,0.8-3.8,0.8-5.4,2.1c-1.7,0.2-2.9,0.4-1.7-2.2c2.6-5.4,4.8-10.9,7.5-16.4
		C222.3,68.2,223.8,73.7,222,79.2z"/>
	<path class="st169" d="M471.9,85.5c-0.9-0.3-1.6-0.8-1.5-1.9c0.1-0.8,0.8-1.4,1.5-1.3c0.9,0.1,1.6,0.7,1.5,1.8
		C473.3,85,472.7,85.3,471.9,85.5z"/>
	<path class="st99" d="M420.1,55.5c0.1-0.9,0.5-1.5,1.3-1.6c1-0.2,1.6,0.5,1.7,1.5c0.1,0.8-0.4,1.5-1.2,1.6
		C420.8,57.1,420.3,56.3,420.1,55.5z"/>
	<path class="st115" d="M443.3,170.9c-0.1,0.9-0.5,1.3-1.4,1.3c-0.9,0-1.4-0.6-1.4-1.4c0-1,0.7-1.6,1.7-1.5
		C442.9,169.4,443.4,170,443.3,170.9z"/>
	<path class="st170" d="M453.2,152.1c-0.1,0.9-0.6,1.4-1.5,1.4c-0.8,0-1.5-0.5-1.4-1.4c0-0.9,0.5-1.7,1.6-1.6
		C452.8,150.6,453.1,151.3,453.2,152.1z"/>
	<path class="st171" d="M448.4,161.2c0.1,1-0.5,1.6-1.5,1.7c-1,0.1-1.6-0.5-1.6-1.5c0-0.9,0.4-1.4,1.3-1.5
		C447.5,159.8,448.3,160,448.4,161.2z"/>
	<path class="st22" d="M55.4,98.6c2.2,2.6,2.2,5.2-0.1,7.6c-5.9,6.2-12,12.3-18.3,18.3c5.2-9.9,10.4-19.7,15.6-29.6
		C56.5,93.9,54.4,97.5,55.4,98.6z"/>
	<path class="st139" d="M79.6,83.9c-7.2,5.2-13,11.9-19.9,17.7c-0.9-2.7-0.5-4.5,1.7-6c4-2.9,7.2-6.6,10.2-10.5
		C73.6,82.4,76.8,84.1,79.6,83.9z"/>
	<path class="st73" d="M91.5,73.5c-5.1,8.3-13.4,8.6-22.1,8C76.8,78.8,84.2,76.1,91.5,73.5z"/>
	<path class="st172" d="M58.8,93.9c-0.7-10,0.9-9.2,9.9-9.4C65.6,87.7,61.7,89.5,58.8,93.9z"/>
	<path class="st173" d="M55.4,98.6c-1.2-1.1-0.3-3.7-2.8-3.7c0.8-1.9,1.5-4,3.2-5.8C56.9,92.6,55.9,95.6,55.4,98.6z"/>
	<path class="st174" d="M449,87.6c-0.2,1-0.8,1.5-1.8,1.3c-0.8-0.1-1.3-0.7-1.2-1.6c0.1-1,0.8-1.6,1.8-1.4
		C448.6,86.1,449,86.8,449,87.6z"/>
	<path class="st175" d="M418.2,108.2c-0.2,0.9-0.8,1.6-1.8,1.5c-0.8-0.1-1.2-0.8-1.2-1.6c0-1.1,0.8-1.5,1.8-1.4
		C417.8,106.8,418.3,107.3,418.2,108.2z"/>
	<path class="st176" d="M427.3,113.1c-0.1,1-0.7,1.6-1.7,1.6c-0.8,0-1.3-0.6-1.3-1.4c0-1,0.3-1.7,1.4-1.8
		C426.7,111.5,427.1,112.2,427.3,113.1z"/>
</g>
</svg>
