<?xml version="1.0" encoding="utf-8"?>
<!-- Generator: Adobe Illustrator 25.2.1, SVG Export Plug-In . SVG Version: 6.00 Build 0)  -->
<svg version="1.1" id="Capa_1" xmlns="http://www.w3.org/2000/svg" xmlns:xlink="http://www.w3.org/1999/xlink" x="0px" y="0px"
	 viewBox="0 0 271.93 283.5" style="enable-background:new 0 0 271.93 283.5;" xml:space="preserve">
<style type="text/css">
	.st0{fill:#080607;}
	.st1{fill:#7E152B;}
	.st2{fill:#192737;}
	.st3{fill:#CF9A0B;}
	.st4{fill:#CF980C;}
	.st5{fill:#7E172B;}
	.st6{fill:#7F172B;}
	.st7{fill:#FFFFFD;}
	.st8{fill:#0D0607;}
	.st9{fill:#8A2827;}
	.st10{fill:#872628;}
	.st11{fill:#841F28;}
	.st12{fill:#872328;}
	.st13{fill:#831F29;}
	.st14{fill:#821B29;}
	.st15{fill:#862128;}
	.st16{fill:#801A2B;}
	.st17{fill:#80192B;}
	.st18{fill:#801A2A;}
	.st19{fill:#811A2A;}
	.st20{fill:#872428;}
	.st21{fill:#8C2A26;}
	.st22{fill:#923223;}
	.st23{fill:#892526;}
	.st24{fill:#C0C7E7;}
</style>
<path class="st0" d="M264.73,152.42c0.1,7.2-0.2,14.4-1.8,21.4c-3.1,13-6.5,26-13.4,37.6c-4,6.7-8,13.5-13.4,19.3
	c-4.2,4.6-8.2,9.4-13,13.4c-8.3,7.1-17.1,13.5-26.9,18.3c-17.7,8.8-36.4,13.8-56.3,14.4c-17.6,0.5-34.7-2.1-51.2-8.3
	c-9.3-3.7-18-8.1-26.3-13.6c-10.2-6.8-19.2-14.9-27.3-24.3c-5.3-6.1-9.4-12.9-13.5-19.8c-7.8-12.9-11.2-27.1-13.9-41.8
	c-1.9-10.4-2.1-20.7-0.5-31c2.2-14.2,5.5-28.3,12.6-41c4-7.1,8-14.3,13.3-20.5c7.9-9.2,16.5-17.8,26.5-24.7
	c11.9-8.2,24.7-14.4,38.6-18.4c1.3-0.4,2.5-0.4,2.5-2.6c0-9.1,7.8-16.6,16.7-15.7c2,0.2,3-0.1,3.9-2.2c2.7-6,8-8.6,14.3-8.5
	c6.4,0.1,11.4,2.8,13.9,9c0.7,1.7,1.3,2.2,3.2,1.9c8.5-1.4,18.5,6.9,17.3,15.8c-0.2,1.4,0.4,1.8,1.6,2.1c12.5,3.7,24.4,8.8,35.4,16
	c9.6,6.3,18.2,13.6,26,22.1c5.6,6.1,9.9,12.9,14.4,19.8c7,10.7,10.5,22.6,13.9,34.7C263.93,134.62,264.53,143.42,264.73,152.42z"/>
<path class="st1" d="M263.03,152.52c0.2,4.6,0.1,9.2-0.7,13.7c-2.5,13-5,26.2-11.2,38.1c-4.3,8.3-9,16.4-15,23.6
	c-7.8,9.2-16.4,17.7-26.4,24.5c-15.6,10.5-32.8,17.7-51.4,20.9c-7.5,1.3-15.1,2.1-22.6,2c-15-0.2-29.8-2.3-44.1-7.6
	c-10.4-3.9-20.3-8.7-29.5-14.9c-3.9-2.7-7.4-5.9-11.2-8.7c-6.8-4.9-11.8-11.6-17.3-17.8c-3.9-4.4-6.7-9.7-9.8-14.8
	c-7.6-12.5-12-26.1-14.1-40.5c-2.7-18.2-1.4-36.2,3.8-53.9c4-13.7,10.7-26,19.3-37.1c8.5-11.2,18.7-20.7,30.6-28.5
	c7.1-4.6,14.5-8.5,22.2-11.8c4.9-2.1,9.9-4,15.2-5.2c1.9-0.4,2.2-1.3,2.2-3.1c-0.3-7.1,3.3-12.3,9.5-14.1c2.4-0.7,5-0.6,7.4-0.1
	c1.4,0.3,1.7-0.1,2-1.2c2.2-8.2,11.7-12.2,20-8.4c3.3,1.5,5.8,4.3,6.7,8c0.5,1.8,1.3,2.1,3.1,1.7c6.4-1.4,12.4,1.9,15.3,7.6
	c1.2,2.3,1.6,4.5,1.3,6.9c-0.2,1.7,0.5,2.4,2,2.8c8.7,2.3,16.9,5.7,24.9,9.6c2.6,1.3,5.1,2.9,7.7,4.4c8.8,5.3,16.8,11.5,24,18.7
	c7.9,8.1,14.6,17.1,20.5,27c7.6,12.9,11.2,26.8,14,41.2C262.63,141.32,262.73,146.92,263.03,152.52z"/>
<path class="st2" d="M142.13,57.92c3.6,0.5,7.2,1,10.8,1.5c8.5,1.3,16.7,3.9,24.5,7.5c11,5.1,20.9,11.8,29.5,20.5
	c5.2,5.2,9.2,11.1,13.2,17.1c11.1,17,14.5,36,13.2,55.9c-0.8,12.6-4.2,24.7-10.4,35.8c-3.7,6.6-7.8,13-13,18.6
	c-7.6,8-16.1,15-25.8,20.2c-11.4,6-23.4,9.9-36.2,11.5c-16.3,2-32.1,0.1-47.4-5.4c-8-2.9-15.5-6.8-22.5-11.7
	c-8.2-5.6-15-12.6-21.3-20.1c-3-3.6-5-7.9-7.5-11.7c-5.5-8.5-8.4-17.9-10.2-27.7c-3.4-18.2-1.8-36,5.4-53.1
	c3.8-9,8.9-17.4,15.3-24.7c11.1-12.9,24.7-22.2,40.6-28c8.8-3.2,17.9-5.6,27.3-5.8c0.5,0,1-0.2,1.6-0.4c0.9,0.3,1.1,0.9,0.7,1.7
	c-0.9,0.9-2.1,1-3.2,1.1c-9.7,0.7-19.1,3.1-28.1,6.5c-2,0.8-3.2,1.9-2.9,4.1c0.2,2.2-0.8,3.5-2.7,4.4c-8.6,4.5-16.2,10.1-23,17
	c-8.9,9-15.3,19.5-19.7,31.4c-4.2,11.1-5.5,22.4-5,34.1c0.4,9.4,3.3,18.3,6.7,27c4.7,12.1,12.3,22.1,21.7,30.6
	c13.9,12.5,30.3,20.2,49,22.7c16,2.2,31.6,0.5,46.6-5.3c8.7-3.4,16.7-7.9,24.1-13.9c10.1-8.2,18.1-18,24-29.6
	c7.2-14.1,9.6-29,8.5-44.6c-0.4-6-1.2-12-3.4-17.7c-4.7-12.2-10.3-23.8-19.7-33.2c-7.1-7.1-14.6-13.5-23.6-17.9
	c-2.2-1.1-3.4-2.5-3.1-5c0.2-1.9-0.7-2.9-2.4-3.6c-9.4-3.8-19-6.2-29.1-7c-1.2-0.1-2.3-0.1-3.2-1
	C140.53,58.52,141.03,58.02,142.13,57.92z"/>
<path class="st3" d="M129.73,59.62c0.2-0.7-0.3-1.1-0.6-1.6c0.3-2.3-1.1-4.2-1.7-6.3c-0.3-1.3-1.4-0.3-2-0.1
	c-3.9,1.2-7.7,2.8-12,2.6c-4.1-0.1-5.5-2.3-3.6-6c1.8-3.4,4.7-5.8,7.6-8.2c2.5-2.1,2.5-2.1,0.2-4.3c-2.2-2.2-5-3.8-6.7-6.5
	c-0.6-1-1.3-2-1.7-3c-0.8-2.6,0.3-4.1,3.1-4.4c4.4-0.5,8.4,1.1,12.5,2.4c3.6,1.1,3.5,1.1,4.4-2.4c0.8-3.2,1.5-6.5,2.9-9.5
	c0.8-1.7,1.8-3.4,4-3.4s3,1.7,3.8,3.3c1.7,3.4,3.2,6.9,3.6,10.8c0.2,2.1,1.1,2,2.6,1.5c3.6-1.3,7.3-2.5,11.2-2.6
	c1.8,0,3.8-0.3,4.8,1.6s0.1,3.7-1.1,5.2c-2.2,2.7-4.1,5.6-7.3,7.4c-2.3,1.3-2.1,2.6,0.1,4c1.1,0.7,2,0.9,2.1-0.9
	c0.1-2.3,1.2-3,3.5-2.2c2.2,0.8,4.5,1.1,6.8,1.6c1.7,0.4,1.5,1.3,1,2.6c-0.4,1.1-0.2,2.7-2.2,1.9c-0.1,0-0.2-0.1-0.3,0
	c-1.1,0.2-2.8-1.6-3.2,0.1c-0.4,1.4,1.8,1.1,2.7,1.3c1.3,0.3,1.6,1,1.2,2.1c-0.4,1,0.1,2.8-2,2.3c-0.4-0.1-0.8-0.5-1.3-0.1
	c-0.1,0.9,0.2,1.6,1.2,1.7c1.8,0.1,1.6,1,1.3,2.4c-0.4,1.9-0.8,2.5-3.1,2.2c-5.6-0.9-11.3-1.5-16.6-3.8c-1.1-0.4-1.7-0.2-1.9,1.1
	c-0.3,1.9-0.7,3.9-1.1,5.8c-0.6,0.4-1.3,0.7-1,1.7c0.2,2.7-1.8,6.7-3.9,7.9c-1.8,1-3.4,0.2-4.6-1
	C130.83,64.62,129.63,62.32,129.73,59.62z"/>
<path class="st3" d="M39.43,209.22c1.8-0.4,3.6-0.8,5.5-1.1c2.2-0.4,4.1,1.2,5,4.4c0.5,1.9-1.3,1.9-2.3,2.7
	c-3.3,2.5-6.6,4.9-9.8,7.5c-1.2,1-2,1.2-2.5-0.4c-0.5-1.4-2.8-2.1-2.2-3.7c0.5-1.1,2.2-1.6,3.4-2.4c0.8-0.5,1.5-1.2,2.6-2.1
	c-2.5-0.2-4.4,0.6-6.4,0.9c-1.3,0.3-2.1,0.1-2.8-1.2c-0.6-1.2-0.6-2,0.4-3c1.4-1.3,2.5-3,4.4-4.3c-2.3-0.1-3.8,1.1-5.5,1.7
	c-3.5,1.2-3.1-2.1-4.1-3.6c-1.2-1.7,1-1.5,1.7-1.8c4.1-1.5,8.3-2.9,12.4-4.3c1.3-0.5,2.2-0.4,3.1,1.1c2.1,3.8,2.2,3.7-0.8,6.8
	c-0.8,0.8-1.5,1.5-2.3,2.2C39.23,208.92,39.33,209.12,39.43,209.22z"/>
<path class="st3" d="M232.93,212.22c1.8,0.9,3.5,1.9,5.4,2.8c1.2,0.6,1.2,1.2,0.7,2.4c-2,4-2.1,4.1-6.1,1.8c-3.6-2-7.1-4.1-10.7-6.2
	c-0.4-0.2-0.9-0.2-0.9-0.8c0-0.8,3.7-4.7,4.5-4.8c1.2-0.1,2.5-0.3,3.7-0.3c1.1-0.1,2.3,0,3.7-0.4c-1.4-0.8-2.8-1.7-4.2-2.5
	c-1.5-0.8-2.3-1.6-0.9-3.2c0.4-0.5,0.8-1.2,1.1-1.9c0.4-1,1-1.3,2-0.7c4.1,2.3,8.2,4.6,12.4,6.9c1.4,0.8,1.2,1.5,0.7,2.8
	c-1.1,3.3-3.8,3.6-6.6,3.7c-1.6,0-3.1,0-4.7,0C232.93,211.92,232.93,212.12,232.93,212.22z"/>
<path class="st3" d="M190.43,58.22c-0.7,1.1-1.4,2.2-2,3.4c-1.8,3.2-0.8,3.3-4.9,1.1c-0.9-0.5-2.2-0.7-1.3-2.3
	c2.3-4.1,4.6-8.3,6.9-12.4c0.2-0.4,0.4-0.8,0.9-0.9c1.4-0.2,5.7,3.1,5.7,4.6c0,2.3,0,4.6,0.6,7c0.9-1.6,1.9-3.1,2.7-4.8
	c0.7-1.3,1.3-1.7,2.7-0.8c4.1,2.5,3.7,1.4,1.6,5.4c-1.7,3.2-3.6,6.4-5.3,9.7c-0.7,1.3-1.1,1.8-2.8,1.1c-4.3-2-4.3-1.9-4.3-6.6
	c0-1.3,0-2.7,0-4C190.83,58.32,190.63,58.32,190.43,58.22z"/>
<path class="st3" d="M22.73,141.72c1.9,0.3,3,0.6,4.2,0.7c3.5,0.4,4.7,2.7,3,5.8c-0.4,0.8-1,0.6-1.6,0.5c-4.7-0.6-9.4-1.4-14-1.9
	c-1.3-0.2-1.7-0.7-1.6-1.9c0.3-2.7,0.6-5.2,4.1-5.9c1.8-0.3,3.4-1.3,5.6-2.2c-2.4-0.3-4.2-0.7-6-0.8c-2-0.1-2.6-1.1-2.1-2.8
	c0.5-1.3-0.7-3.9,2.6-3.3c4.5,0.8,9,1.2,13.5,1.8c0.6,0.1,1.2,0.2,1.5,0.9c0.7,1.9-0.9,5.6-2.8,6.4
	C27.23,139.82,25.33,140.62,22.73,141.72z"/>
<path class="st3" d="M220.63,71.22c0,4.9-4,8.8-8.9,8.8c-5.6,0-9.8-4.1-9.7-9.3c0.1-5.1,4-8.7,9.5-8.7
	C216.73,62.12,220.63,66.12,220.63,71.22z"/>
<path class="st3" d="M225.93,99.52c0-5.1,3.9-8.8,9.2-8.7c5.1,0,9.2,4.1,9.2,9.2s-3.8,9.1-8.9,9.1
	C230.03,109.12,225.93,104.92,225.93,99.52z"/>
<path class="st3" d="M248.33,176.42c-5.4,0-9-3.5-9.1-8.8c0-5.6,3.7-9.6,9-9.5c5.1,0.1,9.4,4.1,9.3,8.9
	C257.43,172.62,253.73,176.42,248.33,176.42z"/>
<path class="st3" d="M88.23,61.82c-5.5,0-9.1-3.5-9.1-9c0-5,4.1-8.8,9.5-8.9c5.3,0,9.1,3.8,9.1,9.1S93.93,61.82,88.23,61.82z"/>
<path class="st3" d="M91.93,262.52c-3.2-0.1-6.3-1.6-9.5-2.9c-1-0.4-1-1-0.6-1.9c1.8-4.3,3.5-8.6,5.2-12.9c0.5-1.2,1.2-1.5,2.3-1
	c2.7,1,5.3,2,7.7,3.6c3.1,2.1,4.3,5.7,3.2,9.4C99.13,260.42,96.13,262.52,91.93,262.52z"/>
<path class="st3" d="M242.23,122.72c-0.6-1.8-0.8-3,1.1-3.4c1.4-0.4,2.3-0.5,2.7,1.3s1.1,3.6,1.8,5.3c0.6,1.5-0.1,2.2-1.4,2.5
	c-6.8,1.5-11.4-3.3-11.9-8.7c-0.4-5.1,5.2-10.7,12.1-8.8c5.8,1.6,8.6,8.3,5.7,13.2c-0.6,1.1-1.1,1.8-2.2,0.3
	c-1.2-1.7-3.7-2.5-2.7-5.4c0.4-1.2-0.9-2.1-2.1-2.3c-1.8-0.3-3.5,0.3-4.5,1.8C239.93,119.82,240.13,121.32,242.23,122.72z"/>
<path class="st3" d="M65.33,250.22c-2.7-2.9-7.7-3.6-5-8.8c-1.2-0.2-1.5,0.6-1.8,1.1c-0.8,1.3-1.5,1.6-2.8,0.4
	c-3.3-2.6-3.3-2.5-0.6-5.9c2.4-3,4.6-6.1,7.3-8.8c1-1,1.6-1,2.6-0.2c1.6,1.3,3.2,2.6,4.8,3.8c2.3,1.8,3.4,4,2.5,6.8
	c-0.8,2.5-2.5,4.1-5.4,3.6c-1.1-0.2-0.8,0.7-0.9,1.2C65.73,245.52,65.53,247.62,65.33,250.22z"/>
<path class="st3" d="M67.03,73.42c-0.2,3.5-2,5.9-5,7.3s-6,1.3-8.6-1.2c-2.3-2.2-4.2-4.9-6.8-6.8c-0.9-0.7-1-1.4,0.1-2
	c0.1,0,0.2-0.1,0.2-0.2c3.9-2.8,3.9-2.9,7.4,0.8c1,1.1,2,2.3,3.1,3.3c0.7,0.7,1.5,1.4,2.6,0.5c1-0.9,0.5-1.9-0.2-2.6
	c-1.7-1.9-3.4-3.7-5.2-5.5c-1.3-1.3-1.8-2.4,0.2-3.5c0.4-0.2,0.7-0.5,1-0.9c1.2-1.5,2-1.6,3.5,0c1.9,2,4,3.7,5.8,5.9
	C66.23,70.02,67.23,71.52,67.03,73.42z"/>
<path class="st3" d="M166.93,261.12c0,5.7-5.4,9.1-10.6,7.6c-2.8-0.8-4.7-2.4-5.3-5.4c-0.6-2.7-1.2-5.4-1.9-8.1
	c-0.3-1.3-0.2-1.8,1.3-2.2c4.8-1.3,4.8-1.4,5.9,3.6c0.4,1.7,0.9,3.5,1.3,5.2c0.3,1,0.7,2,2,1.5c1.1-0.4,1.3-1.3,1-2.4
	c-0.6-2.4-1.1-4.9-1.7-7.3c-0.4-1.6-0.2-2.5,1.6-2.8c4.7-0.8,3.6-1.7,4.8,2.9C166.03,256.42,166.73,259.12,166.93,261.12z"/>
<path class="st3" d="M220.23,238.52c-0.2-0.4-0.5-0.8-0.8-1.2c-2.4-4.2-4.7-8.4-7.1-12.6c-0.7-1.2-0.7-1.9,0.2-3
	c3.2-3.6,3.1-3.7,7.8-2c3.8,1.4,7.5,2.8,11.3,4.2c1.3,0.5,1.6,1.2,0.4,2c-1.6,1.1-1.9,4.3-5.1,3.2c-0.5-0.2-3.1,1.6-2.3,4
	C225.13,234.32,221.63,238.62,220.23,238.52z"/>
<path class="st3" d="M101.53,266.62c2.6-4.4,5.3-8.7,7.8-13.1c1-1.8,1.8-2.3,3.9-1.8c4.7,1,4.7,0.8,5.4,5.6c0.5,3.7,1,7.4,1.6,11.1
	c0.3,1.8-0.5,2.2-1.8,1.6c-1.8-0.7-4.6,0.4-5.3-2.9c-0.2-0.8-2.9-1.4-3.6-0.7c-2.6,2.8-5.1,0.5-7.6,0.4
	C101.73,266.72,101.63,266.62,101.53,266.62z"/>
<path class="st3" d="M206.73,249.22c-1.7,1-3.1,1.9-4.6,2.8c-0.5,0.3-1,0.6-1.7,0.2c-2.3-1-4.3,0.1-4.4,2.6
	c-0.1,1.9-1.8,1.5-2.7,2.1c-3.3,2.1-3.3,2-4.1-1.7c-0.8-3.9-1.6-7.9-2.4-11.8c-0.4-1.6,0.1-2.4,1.4-3.3c4.4-2.6,4.3-2.6,8.2,0.6
	C199.83,243.52,203.23,246.32,206.73,249.22z"/>
<path class="st3" d="M35.83,122.02c0.3,3.1-1.8,5.4-4,7.4c-1.6,1.4-2.4-1.1-3.6-1.7c-1.2-0.5-0.5-1.2,0.1-1.8
	c0.2-0.2,0.4-0.4,0.6-0.6c0.7-0.9,1.8-2.3,0.8-3c-1.1-0.7-1.5,1.1-2,1.9c-1.3,2-3,3.1-5.4,2.4c-3.1-0.8-4.5-2.3-4.7-5
	c-0.1-2,0-3.9,1-5.7c1.9-3.4,2.3-3.5,5.2-1.1c0.9,0.8,1.4,1.2,0.3,2.2c-0.5,0.5-0.8,1.2-1.1,1.8c-0.1,0.4-0.1,1.1,0.2,1.2
	c0.6,0.4,0.9-0.2,1.2-0.6c0.2-0.3,0.4-0.6,0.5-0.9c1.9-3.1,3.3-3.8,6-3C34.23,116.42,35.83,118.42,35.83,122.02z"/>
<path class="st3" d="M61.43,225.52c-0.4,0.2-0.8,0.3-1,0.6c-1.9,2.1-3.5,2.3-5.2-0.3c-0.3-0.5-0.8-1.5-1.6-0.8
	c-0.7,0.7,0.3,1.2,0.6,1.8c0.6,1,2.6,1.6,0.6,3.3c-1.7,1.4-2.7,1.7-4-0.3c-0.4-0.7-0.9-2-2-1c-0.8,0.7,0.3,1.4,0.8,2
	c2.1,2.7,2.1,2.9-0.3,4.6c-1.1,0.8-2,0.8-2.8-0.2c-1.8-2.1-3.5-4.3-5.3-6.4c-0.8-0.9-0.9-1.6,0.1-2.4c3.8-2.9,7.6-5.9,11.3-9
	c1-0.9,1.5-0.4,2.1,0.4C57.03,220.42,59.23,222.92,61.43,225.52z"/>
<path class="st4" d="M251.73,154.82c0.9-2.3,2-4.5-0.5-6.1c-1.3-0.8-3.1-0.9-4.3,0.2c-2.3,1.9-0.8,4,0.3,6.4c-1.9,0-3.5,0-5.1,0
	c-1.1,0-1.5-0.7-1.8-1.6c-1.1-3.7,0.1-7.8,3.1-10.1c2.9-2.2,8.1-2.3,11.3,0c2.8,2,4.2,6.4,3.3,9.9c-0.3,1.1-0.9,1.4-1.9,1.4
	C254.83,154.82,253.43,154.82,251.73,154.82z"/>
<path class="st3" d="M183.13,250.52c-2.3-0.4-4.7-0.8-5.9,1.7c-0.7,1.4-0.4,3.1,1.1,4.1c2.8,1.7,4.6-0.5,6.5-2.3
	c0.4,1,0.6,1.8,0.9,2.6c1.4,3.5,1.1,4.2-2.4,5.5c-5.3,2-10.6-0.4-12.3-5.7c-1.7-5.1,1.3-9.9,6.8-11.5c1.8-0.5,2.8-0.1,3.7,1.4
	C182.23,247.72,182.83,249.02,183.13,250.52z"/>
<path class="st3" d="M181.83,54.02c-1.3,1.4-1.7,2.7-2.1,4c-0.6,2.2-2,2.4-3.9,1.8c-3.9-1.1-6.5-3.9-6.9-7.4
	c-0.4-3.7,1.3-7.4,4.3-9.2c2.9-1.7,8.1-1.3,10.7,0.7c0.8,0.6,1.2,1.2,0.7,2.2c-0.6,1.4-1.1,2.8-1.7,4.3c-2.1-1.4-3.9-3.6-6.6-1.9
	c-1.3,0.8-1.8,2.3-1.1,3.8C176.73,55.02,179.03,54.82,181.83,54.02z"/>
<path class="st4" d="M129.43,254.52c5.2-1.3,5.7-1.1,8.8,3.3c0.8-6.1,5.4-3.3,9.2-4.4c-1.9,3.3-3.2,6.2-5.1,8.8
	c-1.6,2.2-1.5,4.5-0.7,6.7c0.6,1.7,0,1.8-1.3,1.9c-5.2,0.5-5.3,0.5-5.2-4.8c0-1.6-0.4-2.9-1.3-4.2c-1.5-2.1-2.8-4.4-4.2-6.5
	C129.53,255.12,129.53,254.92,129.43,254.52z"/>
<path class="st3" d="M208.23,226.62c1.2,0.7,2.1,2.1,3.1,3.3c0.9,1.1-0.3,1.6-0.9,2.1c-1.2,1-0.3,1.8,0.3,2.5
	c1.5,1.9,3.1,3.7,4.8,5.4c1.2,1.2,1.1,2-0.2,2.9c-0.7,0.5-1.3,1.2-2,1.8c-0.8,0.7-1.4,0.7-2.2-0.2c-1.8-2.1-3.8-3.9-5.7-6
	c-0.8-0.9-1.3-1.4-2.6-0.4c-2.5,2.1-2.7-1.2-3.9-1.9c-1.4-0.9-0.5-1.7,0.3-2.5c2.4-2.1,4.9-4.2,7.3-6.3
	C206.93,227.02,207.33,226.52,208.23,226.62z"/>
<path class="st3" d="M74.83,70.62c-0.9,0.1-1.2-0.5-1.6-1c-1.5-2.2-3.2-4.3-4.6-6.6c-0.7-1.1-1.2-1.4-2.5-0.6
	c-2.8,1.8-2.5-1.7-3.8-2.6c-1.3-0.9-0.1-1.6,0.7-2.1c2.6-1.8,5.2-3.5,7.6-5.4c1.2-0.9,1.9-0.7,2.5,0.5c0.4,0.7,1,1.2,1.6,1.8
	c1,0.8,1.2,1.8-0.4,2.4c-2.1,0.7-1.5,2-0.4,3c1.9,1.6,2.9,3.8,4.4,5.7c1.2,1.4,0.8,2.3-0.7,3.1C76.73,69.12,75.73,69.92,74.83,70.62
	z"/>
<path class="st3" d="M41.43,86.12c-0.3,0.3-0.5,0.5-0.8,0.7c-0.7,0.4-0.7,2-1.9,1.2c-1.3-0.8-2.4-1.8-3.5-2.9
	c-0.3-0.3,0.2-0.8,0.4-1.1c2.1-2.6,4.2-5.1,6.2-7.7c1-1.3,2-1.2,2.7-0.1s3.7,1.3,1.8,3.5c-1.2,1.4-0.5,2.2,0.6,2.7
	c2.1,1,3.8,2.7,5.5,4.2c0.6,0.6,2.2,0.8,1.7,2c-0.7,1.6-1.9,3-3.4,4.1c-0.6,0.4-1.1-0.4-1.5-0.8c-2.3-1.7-4.5-3.4-6.8-5.1
	C42.03,86.62,41.73,86.42,41.43,86.12z"/>
<path class="st3" d="M31.63,100.32c-1.9,3.4,1,3.3,2.8,4.1c1.2,0.5,2.3,1,3.4,1.6c3.3,1.6,3.6,3.7,1.2,6.5c-0.7,0.9-1.3,0.3-1.8,0
	c-2.5-1.1-5.1-2.2-7.6-3.3c-1-0.5-1.8-0.8-2.5,0.7c-1.4,3-2.9,0.1-4.4-0.1c-1.5-0.3-1.3-1.3-0.7-2.4c1.4-2.7,2.6-5.5,3.9-8.2
	c0.4-0.7,0.5-2,1.7-1.3C29.13,98.52,30.93,98.62,31.63,100.32z"/>
<path class="st3" d="M222.53,95.02c-0.7-0.5-1.4-0.8-1.8-1.3c-1.8-2.2-3.5-4.5-5.4-6.7c-0.9-1-0.7-1.7,0.3-2.4
	c3.8-2.9,7.6-5.8,11.4-8.8c0.9-0.7,1.4-0.4,1.9,0.3c0.5,0.6,1,1.3,1.6,1.8c1.6,1.4,1.1,2.4-0.5,3.5c-1.7,1.2-3.1,2.8-4.8,3.8
	c-2.2,1.3-1.8,2.6-0.4,4.1c0.6,0.7,2.1,1.4,1.3,2.5C225.23,93.12,223.83,94.02,222.53,95.02z"/>
<path class="st4" d="M74.53,255.42c-1.4-0.5-3-1.6-4.5-2.6c-0.6-0.4,0-1,0.3-1.4c2.6-4.1,5.3-8.2,7.9-12.3c0.5-0.8,0.9-0.8,1.8-0.5
	c4.2,1.8,4.4,2.3,2.1,6.3c-1.8,3.1-3.6,6.1-5.5,9.2C76.13,254.72,75.93,255.72,74.53,255.42z"/>
<path class="st4" d="M43.83,102.62c-0.5-0.2-0.8-0.4-1.1-0.5c-4.1-2.3-8.2-4.6-12.4-6.8c-1.2-0.6-1.4-1.2-0.7-2.4
	c2.3-4.2,2.3-4.2,6.5-1.9c3.2,1.8,6.3,3.7,9.5,5.5c1.3,0.7,1.7,1.4,0.7,2.6C45.33,100.22,45.13,101.82,43.83,102.62z"/>
<path class="st4" d="M256.83,135.12c0.3,1.2-0.2,1.3-0.9,1.4c-4.9,0.9-9.8,1.8-14.7,2.8c-1.1,0.2-1.5-0.2-1.6-1.1
	c-0.2-0.8-0.2-1.6-0.5-2.4c-0.6-1.8-0.1-2.5,1.8-2.9c4.2-0.7,8.4-1.4,12.6-2.4c1.9-0.4,2.8-0.1,2.9,1.9
	C256.43,133.52,256.63,134.42,256.83,135.12z"/>
<path class="st3" d="M21.63,152.02c2.3,0,4.6,0.1,6.9,0c1.3,0,2,0.4,1.9,1.8c-0.1,0.9-0.1,1.8,0,2.7c0.1,1.3-0.5,1.6-1.7,1.7
	c-4.5,0.1-9.1-0.2-13.6,0.4c-1.2,0.1-2.1-0.1-2-1.7c0-0.9-0.2-1.8-0.3-2.6c-0.2-1.4,0.2-2.2,1.9-2.1c2.3,0.1,4.6,0,6.9,0
	C21.63,152.12,21.63,152.02,21.63,152.02z"/>
<path class="st4" d="M242.13,183.92c2.4,0.1,3.9,1.8,3.8,4.2c-0.1,2.2-1.9,3.9-4,3.8c-2.1-0.1-3.8-1.9-3.8-4
	C238.23,185.42,239.73,183.82,242.13,183.92z"/>
<path class="st4" d="M21.23,177.42c1-2.1,2.8-2.6,4.9-2.1c1.5,0.3,2.3,1.4,2.6,2.8c0.4,2-0.2,3.8-2.2,4.6c-2.1,0.9-4,0-5.4-2.4
	C20.63,179.22,20.63,178.32,21.23,177.42z"/>
<path class="st1" d="M126.93,46.52c0.4,1.8-0.2,2.5-1.7,3c-3.2,1-6.2,2.1-9.5,2.7c-1.6,0.3-3.5,0.9-4.4-0.8c-0.8-1.5,0.5-3,1.5-4
	c2.6-2.7,5.4-5.2,8.1-7.7c0.4-0.4,0.8-0.6,1.4-0.2C124.83,41.32,127.83,42.82,126.93,46.52z"/>
<path class="st1" d="M114.93,23.52c3.8,0.6,7.9,1.9,11.9,3.4c1.4,0.5,0.9,5.2-0.5,6.4c-0.1,0.1-0.2,0.1-0.2,0.2
	c-4,3.1-4,3.2-7.9-0.2c-2.1-1.8-4-3.8-5.8-5.8c-0.7-0.7-1.6-1.7-1-2.9C111.93,23.32,113.23,23.52,114.93,23.52z"/>
<path class="st1" d="M130.83,24.42c1-4,1.7-8.2,3.5-12c0.4-0.8,0.9-1.7,1.9-1.7s1.5,1,1.8,1.7c1.3,2.7,2,5.5,2.8,8.4
	c1.3,5.2,1.3,5.3-4,6.9c-2.3,0.7-4-1-5.8-2C130.83,25.62,130.93,24.92,130.83,24.42z"/>
<path class="st1" d="M157.43,23.52c1.4,0,2.4,0,2.9,0.9s0.1,1.7-0.4,2.5c-2.3,3.7-5.9,6-9,9c-0.2,0.2-0.6,0.4-0.9,0.4
	c-1.5-0.1-4.7-4-5.2-5.4c-1-3.4,0.8-4.5,3.6-5.2C151.53,24.82,154.63,23.82,157.43,23.52z"/>
<path class="st5" d="M144.23,46.82c-1.1-4.1,2.8-5.2,5.3-7.3c0.7-0.6,1.2,0,1.6,0.3c1.2,1,2.7,1.8,3.6,3.1c1.1,1.6-0.9,2.8-1.1,4.3
	c-0.8,4.1-0.9,4.1-4.9,2.9c-1.3-0.4-2.5-1-3.8-1.4C144.13,48.62,143.83,48.12,144.23,46.82z"/>
<path class="st5" d="M131.83,58.92c-0.8-2.3-1.1-4.8-1.7-7.2c-0.3-1.3,0.3-1.8,1.3-2.2c1.2-0.5,1.2,0.3,1.7,1.1
	c1.1,1.8,3,0.6,4.6,0.8c1.8,0.2,0.9-1.5,1.5-2.2c1.4,0.1,2.2,0.7,1.8,2.2c-0.6,2.5-1.2,5-1.9,7.5
	C136.63,58.52,134.23,58.52,131.83,58.92z"/>
<path class="st6" d="M143.03,34.72c-4.7,0-9,0-13.5,0C133.03,30.12,138.43,30.12,143.03,34.72z"/>
<path class="st7" d="M138.83,59.52c-0.3,0.8-0.5,1.7-0.8,2.5c-0.5,1.3-1,3.1-2.5,3c-1.4-0.1-2-1.8-2.6-3.1c-0.4-0.8-0.6-1.6-0.9-2.5
	C134.33,58.32,136.53,58.32,138.83,59.52z"/>
<path class="st8" d="M138.83,59.52c-2.3,0-4.5,0-6.8,0c-0.1-0.2-0.2-0.4-0.2-0.6c1.6-1.5,5.7-1.5,7.3,0
	C139.03,59.12,138.93,59.32,138.83,59.52z"/>
<path class="st9" d="M129.53,36.92c0.2,1.7-0.1,3.6,2.7,3.6c1.2,0,1,1.6,0.7,2.4c-0.4,1-1.2,0-1.8-0.2
	C128.03,41.42,129.83,38.92,129.53,36.92z"/>
<path class="st10" d="M139.33,43.32c-0.1-1.2-1.2-2.8,0.8-3.1c0.9-0.1,2.4-0.6,2.5,0.6C142.83,43.12,140.23,42.02,139.33,43.32z"/>
<path class="st11" d="M145.03,35.62c1.3,0.6,2.8,1.1,2.8,2.1c0,1.2-1.6,1.7-2.8,2.5C145.03,38.52,145.03,37.22,145.03,35.62z"/>
<path class="st12" d="M129.33,45.62c0.1-0.5-0.2-1.5,0.5-1.2c1.1,0.4,2.7,0.7,2.9,2c0.2,1-1.3,1-2.1,1.2
	C128.93,47.92,129.53,46.42,129.33,45.62z"/>
<path class="st13" d="M126.63,35.42c0,1.8,0,3,0,4.4c-1.4-0.4-2.3-1.1-3.2-2.2C124.43,36.92,125.43,36.32,126.63,35.42z"/>
<path class="st14" d="M138.33,29.22c1.9-0.4,2.9-1.8,4.2-0.6c0.5,0.5,0.6,2,0.1,2.2C141.13,31.52,140.13,30.32,138.33,29.22z"/>
<path class="st15" d="M142.33,45.82c-0.3,0.7,0.2,2.1-1.3,1.7c-0.7-0.2-1.9-0.3-1.8-1.2c0.2-1.1,1.5-1.5,2.5-1.7
	C142.73,44.42,142.43,45.22,142.33,45.82z"/>
<path class="st9" d="M133.13,29.22c-0.9,1.1-1.9,1.6-3.1,1.9c-0.3-1-0.4-2.1,0.5-2.7C131.33,27.82,132.13,28.72,133.13,29.22z"/>
<path class="st16" d="M208.73,71.02c0.3-1.7,1.3-2.9,3.3-3c1.7,0,2.7,1.1,2.6,2.7c-0.1,1.8-1.4,3.2-3.3,3.2
	C209.73,74.02,208.73,72.92,208.73,71.02z"/>
<path class="st6" d="M235.53,102.62c-2.4,0.1-3.6-0.6-3.7-2.5c-0.1-1.7,1.6-3.3,3.5-3.2c1.7,0.1,3,0.9,3,2.8
	C238.23,101.72,236.83,102.52,235.53,102.62z"/>
<path class="st17" d="M248.43,170.02c-1.9,0-3.5-0.7-3.5-2.6c0-2,1.4-3,3.4-2.8c1.8,0.2,3.5,0.8,3.3,3
	C251.53,169.42,250.13,170.22,248.43,170.02z"/>
<path class="st18" d="M88.23,49.82c2,0.2,3.6,2,3.3,3.7c-0.3,1.7-1.3,2.7-3.2,2.5c-2.1-0.3-3.2-1.6-3.1-3.7
	C85.43,50.62,86.83,49.82,88.23,49.82z"/>
<path class="st19" d="M94.43,253.42c0,1.9-0.8,3-2.2,3.5c-0.8,0.3-1.6,0.2-2.2-0.4c-0.6-0.6,0.1-1.1,0.2-1.7
	c0.2-0.7,0.5-1.4,0.8-1.9c0.4-0.7,0.2-2.3,1.6-1.9C93.73,251.32,94.53,252.32,94.43,253.42z"/>
<path class="st20" d="M65.33,237.72c-0.8-0.2-1.6-0.4-1.5-1.1c0.1-0.9,0.7-2,1.7-2c0.7,0,1.3,0.7,1.2,1.5
	C66.73,237.12,66.03,237.52,65.33,237.72z"/>
<path class="st21" d="M218.33,224.72c1.6,0.6,2.4,0.9,3.4,1.3c0.4,0.2,1,0.3,0.9,0.8c0,0.4-0.4,0.8-0.7,1c-0.5,0.3-1,0.3-1.4-0.2
	C219.83,226.92,219.33,226.12,218.33,224.72z"/>
<path class="st22" d="M113.13,258.32c0,1.3,0,2.2,0,3.1c0,0.8-0.4,1.1-1.2,1c-0.8-0.1-1.1-0.5-0.8-1.3
	C111.63,260.32,111.83,259.22,113.13,258.32z"/>
<path class="st23" d="M192.73,245.32c1.1,0.7,1.8,1.2,2.5,1.7c0.4,0.3,1,0.7,0.8,1.2c-0.1,0.4-0.8,0.6-1.3,0.8
	c-0.6,0.2-1-0.2-1.1-0.8C193.33,247.42,193.03,246.62,192.73,245.32z"/>
<path class="st2" d="M185.93,212.12c1.9,3.4-0.6,4.5-2.5,5.6c-5.3,3.1-10.4,6.6-16.2,8.5c-1.4,0.4-2.2,0.3-3-0.7
	c-0.2-0.2-0.4-0.4-0.6-0.6c-5.1-5.1-5.4-5.1-12.4-2.8c-0.9,0.3-1.4,0.6-1.4,1.6c0,0.2-0.2,0.5-0.2,0.8c-1.9,7.2-1.9,7.2-9.4,7.5
	c-4.8,0.2-9.6-0.2-14.5-0.5c-1.4-0.1-2.4-0.6-2.5-2.1c-0.4-5.7-3.4-8.6-9.1-9.1c-1.4-0.1-2.4-0.1-3.2,1c-0.4,0.5-0.8,0.9-1.3,1.4
	c-3.9,4.1-3.9,4-9.2,1.5c-4.4-2.1-8.3-4.8-12.4-7.3c-2.7-1.7-5.6-0.7-8.3-1.4c-1.7-0.4-2.4-0.7-2.5-2.6c-0.2-3.2-0.7-6.4-1-9.6
	c-0.2-1.5-0.5-2.4-2.3-1.6c-1.5,0.7-2.3-0.3-3-1.4c-3-4.2-5.7-8.6-8-13.3c-0.6-1.3-1.4-2.6-2.2-3.8s-0.3-2.1,0.7-2.6
	c2.1-1.1,3.3-3.2,5-4.7c0.6-0.5,0.7-1.1,0.5-1.9c-0.6-1.9-1.1-3.8-1.4-5.7c-0.2-1.2-1-1.6-2-1.8c-1.8-0.4-3.6-1-5.5-1.2
	s-2.5-1.3-2.6-3c-0.5-6.4-0.6-12.7,0.3-19c0.2-1.4,0.6-2.1,2-2.2c0.4,0,0.9-0.3,1.3-0.2c5.7,0.3,7.5-3.3,8.2-8.1
	c0.2-1,0.2-1.7-0.6-2.3c-1.9-1.5-3-3.8-5.2-4.9c-1-0.5-0.7-1.3-0.2-2.1c3.3-5.4,5.9-11.3,9.8-16.4c1-1.3,2-2.2,3.7-1.5
	c0.5,0.2,1.1,0.1,1.6,0.3c4.3,1.9,7.7,0.8,10.5-3c0.7-1,1-1.7,0.8-2.8c-0.4-1.6-0.6-3.2-1.2-4.7c-1.1-2.2-0.1-3.5,1.7-4.5
	c1.8-1,3.5-2.1,5.2-3.2c1.3-0.9,3.5-1.3,2.4-3.9c-0.4-0.9,0.6-0.9,1.1-1.1c1.2-0.3,2.4-0.9,3.6-0.8c3.1,0.2,3.3-1.5,3.2-4
	c-0.2-4.6,0-4.6,4.5-5.3c13.6-2.2,27.2-2.7,40.9-1.6c5.3,0.5,10.6,1.2,15.9,2.1c1.3,0.2,1.6,0.8,1.6,2c0,2.1-0.6,4.6,0.4,6
	s3.8,0.8,5.8,1.3c0.9,0.2,2.2,0.1,1.9,1.9c-0.1,0.8,0.9,1,1.4,1.3c3.1,1.9,6.1,3.9,9.3,5.7c1.5,0.8,1.6,1.9,1.1,3.3
	c0,0.1,0,0.2-0.1,0.3c-1.9,7.2-1.9,7.2,3.5,11.9c0.6,0.5,1.1,0.7,1.9,0.5c1.7-0.5,3.5-0.6,5.2-1.2c2.5-0.9,4-0.2,5.4,2
	c3.1,5,6.3,10,9.1,15.3c1,1.9,0.6,3-1,4.2c-1.4,1-2.8,1.8-4.1,3c-0.8,0.8-1.5,1.5-0.8,2.5c0.6,1,1.4,0.1,2.1-0.1
	c2.9-0.9,2.9-0.9,2.4,2.2c-0.1,0.9-0.5,1.8-0.4,2.6c0.1,1-1.1,1.4-1.1,2.4c1.7,0.4,3.4,1.1,5.1,1.3c2.5,0.3,3.3,1.6,3.5,4
	c0.4,5.6,0.4,11.3,0,16.9c-0.2,2-0.7,3.6-3.1,3.8c-0.8,0.1-1.6,0.6-2.3,0.6c-3.7,0-5,2-5.6,5.5c-0.8,4.2-0.9,4.6,2.3,7.2
	c3.7,3,3.9,5.3,1.1,9.1c-3.8,5.1-7.5,10.2-6.3,17.1c0.5,2.7-0.8,3.9-3.2,4.9C195.53,212.22,191.03,212.32,185.93,212.12z"/>
<g>
	<path class="st24" d="M149.01,92.72c3.22,5.41,4.42,11.26,3.24,17.63c0.12,2.76-1.14,5.02-2.35,7.24
		c-2.55,4.65-6.3,7.74-10.93,9.59c-1.47,0.58-3,0.85-4.53,1.13c-1.49,0.2-2.97,0.16-4.46,0.01c-0.82-0.27-1.68-0.27-2.5-0.54
		c-3.08-0.88-5.88-2.36-8.36-4.57c-0.49-0.44-0.92-0.9-1.15-1.55c-3.07-3.59-5.19-7.7-5.85-12.65c-0.78-5.86,0.3-11.29,3.37-16.12
		c3.05-4.78,7.26-7.84,12.5-9.14c0.67-0.17,1.45,0.14,2.03-0.47c1.53,0,3.07,0,4.6,0c3.22,0.18,6.14,1.35,8.87,3.16
		c1.71,1.47,3.48,2.87,4.8,4.81C148.63,91.7,149.07,92.06,149.01,92.72z"/>
	<path class="st24" d="M238.78,92.72c0.76-0.99,1.6-1.93,2.26-3c0.7-1.14,1.19-0.46,1.75,0.07c0.54,0.51,1.3,0.84,0.47,1.9
		c-2.42,3.09-4.76,6.26-7.12,9.4c-4.72,6.28-9.43,12.58-14.16,18.86c-5.21,6.92-10.45,13.81-15.67,20.72
		c-1.31,1.73-2.59,3.48-3.9,5.19c-0.26,0.33-0.48,0.53-0.18,1.01c2.62,4.11,1.72,7.91-0.91,11.53c-0.09,0.12-0.16,0.25-0.24,0.37
		c-0.15,0.68-0.51,1.21-0.92,1.74c-3.93,5.18-7.9,10.33-11.77,15.56c-0.39,0.53-0.76,1.08-1.39,1.3c-3,3.87-6,7.74-9.01,11.61
		c-1.54,2.41-3.82,3.08-6.26,2.83c-3.74-0.38-5.84-3.21-7.4-6.62c-0.36-0.79-0.65-1.63-0.89-2.48c-0.81-3.21-1.85-6.35-2.72-9.54
		c-0.48-1.53-0.77-3.11-1.32-4.62c-0.47-1.43-0.76-2.91-1.23-4.34c-0.42-1.27-2.79-2.16-3.84-1.45c-0.43,0.29-0.17,0.65-0.08,0.96
		c1.28,4.81,2.51,9.64,3.82,14.45c1.45,5.47,2.82,10.96,4.33,16.41c0.15,0.55,0.29,1.11,0.11,1.69c0.74,2.99,1.48,5.99,2.24,9.05
		c-21.13,0-42.26,0-63.45,0c2.55-10.33,5.09-20.61,7.62-30.89c0.09-0.35,0.11-0.71,0.17-1.07c-0.05-2.55,1.04-4.82,1.44-7.26
		c0.09-0.56,0.3-1.1,0.42-1.65c-0.04-0.58,0.79-1.29-0.17-1.71c-1.1-0.47-2.82,0.05-3.13,0.92c-0.53,1.5-0.75,3.11-1.2,4.64
		c-0.5,1.34-0.37,2.93-1.38,4.06c-1.55,6.13-3.1,12.26-4.65,18.39c-1.15,4.54-2.32,9.08-3.43,13.63c-0.2,0.81-0.55,1.04-1.28,1.04
		c-5.32-0.03-10.64-0.05-15.96-0.01c-0.92,0.01-1.01-0.3-0.79-1.16c4.05-16.07,8.29-32.08,12.05-48.23
		c2.2-9.48,7.16-16.26,14.66-21.1c1.29-0.83,2.69-1.45,4.04-2.17c0.44-0.72,1.18-0.86,1.86-1.07c2.23-0.67,4.5-0.96,6.81-0.99
		c7.37-0.1,14.73,0.07,22.1-0.07c2.11-0.04,4.2,0.29,6.3,0.22c0.29-0.01,0.57,0.06,0.78,0.32c2.88,0.47,5.76,0.9,8.53,2.03
		c3.34,1.36,6.23,3.47,8.99,5.84c1.2,0.42,1.86,1.54,2.63,2.49c0.84,1.04,1.63,2.14,2.36,3.28c0.82,1.4,1.59,2.84,2.28,4.32
		c1.27,3.13,2.09,6.41,2.93,9.69c0.3,1.07,0.45,2.2,0.98,3.36c2.23-2.64,4.08-5.43,6.21-7.95c2.03-2.91,4.29-5.62,6.42-8.45
		c0.69-0.91,1.51-1.77,2.72-1.83c1.46-0.78,3.01-0.99,4.61-0.91c0.84-0.51,1.63-0.06,2.31,0.32c0.97,0.53,1.56,0.29,2.21-0.58
		c3.79-5.07,7.61-10.12,11.41-15.17c2.58-3.42,5.22-6.79,7.74-10.27c0.31-0.42,0.66-0.75,1.09-0.99c2.81-3.67,5.63-7.33,8.42-11.02
		C232.53,101.12,235.64,96.91,238.78,92.72z"/>
</g>
</svg>
