<svg version="1.1" id="Layer_1" xmlns="http://www.w3.org/2000/svg" xmlns:xlink="http://www.w3.org/1999/xlink" x="0px" y="0px"
	 width="100%" viewBox="0 0 1080 1080" enable-background="new 0 0 1080 1080" xml:space="preserve">
<path fill="#FFFFFF" opacity="1.000000" stroke="none" 
	d="
M931.000000,0.999995 
	C980.984497,1.000000 1030.968994,1.000000 1080.947144,1.000002 
	C1080.940796,361.000000 1080.940796,721.000000 1080.940796,1081.000000 
	C1031.230347,1081.000000 981.579041,1081.000000 931.699890,1080.721924 
	C946.701233,1076.834473 956.997437,1065.757202 957.122925,1051.348267 
	C957.423462,1016.862427 957.541992,982.367859 957.087219,947.885376 
	C956.838806,929.053711 942.844360,917.323975 922.744568,918.040527 
	C906.827026,918.608032 894.282043,934.147644 894.690979,949.407898 
	C895.253052,970.386597 894.829834,991.391602 894.828796,1012.385376 
	C894.828674,1014.158325 894.828796,1015.931213 894.828796,1018.136047 
	C892.019165,1018.136047 889.882446,1018.136047 887.745728,1018.136047 
	C618.992432,1018.136047 350.239197,1018.136536 81.485931,1018.128296 
	C79.323936,1018.128235 77.161934,1018.010986 74.916641,1017.753906 
	C74.679924,1017.311340 74.470329,1017.127441 74.145409,1016.541992 
	C74.075104,860.249390 74.070648,704.422363 74.011269,548.595337 
	C74.009888,544.983093 73.390617,541.371094 73.057999,537.759033 
	C71.507256,520.919250 54.201324,507.709778 34.301662,512.868164 
	C19.913729,516.597778 11.218026,528.799377 11.216550,544.602295 
	C11.204998,668.264099 11.209971,791.925842 11.210069,915.587646 
	C11.210104,959.585876 11.171838,1003.584229 11.234035,1047.582397 
	C11.253644,1061.452637 17.099342,1071.942627 29.834969,1078.148438 
	C31.869951,1079.140015 33.943996,1080.051514 35.999996,1081.000000 
	C24.336708,1081.000000 12.673416,1081.000000 1.007593,1081.000000 
	C1.005062,721.107483 1.005062,361.215027 1.005062,1.000000 
	C122.357224,1.000000 243.714722,1.000000 365.312866,1.290468 
	C358.277771,3.050873 352.417755,6.816613 347.220184,12.084173 
	C294.899017,65.109596 242.517990,118.075996 190.120117,171.025665 
	C134.321930,227.411469 78.681259,283.955658 22.519156,339.976868 
	C10.007731,352.456940 8.151036,373.132233 14.081523,387.095734 
	C18.811693,398.233063 27.786234,405.669067 39.694443,405.710480 
	C150.685730,406.096680 261.678864,405.950989 372.671478,405.935394 
	C374.134186,405.935181 375.650208,405.816132 377.051392,405.427948 
	C394.572937,400.573944 402.856415,389.557861 402.857697,371.127747 
	C402.864807,270.967255 402.861298,170.806793 402.861450,70.646309 
	C402.861450,68.539795 402.861450,66.433289 402.861450,64.124756 
	C567.074646,64.124756 730.647095,64.124756 894.414795,64.124756 
	C894.414795,186.904846 894.414795,309.423828 894.414795,432.344971 
	C891.856873,432.344971 889.710388,432.345001 887.563904,432.345001 
	C733.073425,432.345001 578.582947,432.343475 424.092499,432.356659 
	C421.263428,432.356903 418.430145,432.680817 415.605927,432.601562 
	C396.588226,432.068085 383.001038,447.957001 383.064392,467.195862 
	C383.427124,577.354553 383.240540,687.515015 383.241028,797.674866 
	C383.241058,801.341309 383.104248,805.014465 383.276703,808.672913 
	C383.901398,821.927124 389.581818,832.398804 402.064819,837.447876 
	C408.023041,839.857788 415.032410,840.525452 421.566742,840.530334 
	C625.220764,840.682373 828.874817,840.662231 1032.528931,840.608398 
	C1037.170288,840.607178 1041.934937,840.459900 1046.430298,839.443970 
	C1061.635376,836.007629 1070.777954,823.252625 1070.779663,806.030212 
	C1070.790894,693.370483 1070.785645,580.710754 1070.785522,468.051056 
	C1070.785522,467.217773 1070.805420,466.383636 1070.775391,465.551361 
	C1070.069946,446.007385 1058.472656,433.350800 1039.126099,432.808350 
	C1013.982239,432.103363 988.808777,432.450073 963.648071,432.346039 
	C961.713806,432.338043 959.779541,432.344971 957.307190,432.344971 
	C957.307190,429.516571 957.307190,427.387085 957.307190,425.257568 
	C957.307190,296.265533 957.307678,167.273514 957.303040,38.281479 
	C957.302917,35.949123 957.331543,33.611343 957.192078,31.285372 
	C956.651794,22.272528 953.669556,14.156842 946.237915,8.774007 
	C941.675354,5.469266 936.113220,3.544468 931.000000,0.999995 
z"/>
<path fill="#4FC497" opacity="1.000000" stroke="none" 
	d="
M930.531372,0.999995 
	C936.113220,3.544468 941.675354,5.469266 946.237915,8.774007 
	C953.669556,14.156842 956.651794,22.272528 957.192078,31.285372 
	C957.331543,33.611343 957.302917,35.949123 957.303040,38.281479 
	C957.307678,167.273514 957.307190,296.265533 957.307190,425.257568 
	C957.307190,427.387085 957.307190,429.516571 957.307190,432.344971 
	C959.779541,432.344971 961.713806,432.338043 963.648071,432.346039 
	C988.808777,432.450073 1013.982239,432.103363 1039.126099,432.808350 
	C1058.472656,433.350800 1070.069946,446.007385 1070.775391,465.551361 
	C1070.805420,466.383636 1070.785522,467.217773 1070.785522,468.051056 
	C1070.785645,580.710754 1070.790894,693.370483 1070.779663,806.030212 
	C1070.777954,823.252625 1061.635376,836.007629 1046.430298,839.443970 
	C1041.934937,840.459900 1037.170288,840.607178 1032.528931,840.608398 
	C828.874817,840.662231 625.220764,840.682373 421.566742,840.530334 
	C415.032410,840.525452 408.023041,839.857788 402.064819,837.447876 
	C389.581818,832.398804 383.901398,821.927124 383.276703,808.672913 
	C383.104248,805.014465 383.241058,801.341309 383.241028,797.674866 
	C383.240540,687.515015 383.427124,577.354553 383.064392,467.195862 
	C383.001038,447.957001 396.588226,432.068085 415.605927,432.601562 
	C418.430145,432.680817 421.263428,432.356903 424.092499,432.356659 
	C578.582947,432.343475 733.073425,432.345001 887.563904,432.345001 
	C889.710388,432.345001 891.856873,432.344971 894.414795,432.344971 
	C894.414795,309.423828 894.414795,186.904846 894.414795,64.124756 
	C730.647095,64.124756 567.074646,64.124756 402.861450,64.124756 
	C402.861450,66.433289 402.861450,68.539795 402.861450,70.646309 
	C402.861298,170.806793 402.864807,270.967255 402.857697,371.127747 
	C402.856415,389.557861 394.572937,400.573944 377.051392,405.427948 
	C375.650208,405.816132 374.134186,405.935181 372.671478,405.935394 
	C261.678864,405.950989 150.685730,406.096680 39.694443,405.710480 
	C27.786234,405.669067 18.811693,398.233063 14.081523,387.095734 
	C8.151036,373.132233 10.007731,352.456940 22.519156,339.976868 
	C78.681259,283.955658 134.321930,227.411469 190.120117,171.025665 
	C242.517990,118.075996 294.899017,65.109596 347.220184,12.084173 
	C352.417755,6.816613 358.277771,3.050873 365.776733,1.290468 
	C554.020874,1.000000 742.041809,1.000000 930.531372,0.999995 
M446.065857,541.500000 
	C446.065857,620.109009 446.065857,698.718018 446.065857,777.601501 
	C633.558777,777.601501 820.456299,777.601501 1007.652222,777.601501 
	C1007.652222,683.444641 1007.652222,589.559326 1007.652222,495.575012 
	C820.346436,495.575012 633.335022,495.575012 446.065918,495.575012 
	C446.065918,510.850739 446.065918,525.675354 446.065857,541.500000 
M232.619659,217.119217 
	C191.426392,258.813721 150.233124,300.508209 108.439140,342.810730 
	C186.367081,342.810730 262.940308,342.810730 339.755341,342.810730 
	C339.755341,264.972565 339.755341,187.447769 339.755341,113.377930 
	C305.304993,146.730499 269.211426,181.673965 232.619659,217.119217 
z"/>
<path fill="#4FC497" opacity="1.000000" stroke="none" 
	d="
M36.468655,1081.000000 
	C33.943996,1080.051514 31.869951,1079.140015 29.834969,1078.148438 
	C17.099342,1071.942627 11.253644,1061.452637 11.234035,1047.582397 
	C11.171838,1003.584229 11.210104,959.585876 11.210069,915.587646 
	C11.209971,791.925842 11.204998,668.264099 11.216550,544.602295 
	C11.218026,528.799377 19.913729,516.597778 34.301662,512.868164 
	C54.201324,507.709778 71.507256,520.919250 73.057999,537.759033 
	C73.390617,541.371094 74.009888,544.983093 74.011269,548.595337 
	C74.070648,704.422363 74.075104,860.249390 74.126015,1016.798218 
	C74.443832,1017.662903 74.721886,1017.805725 74.999939,1017.948486 
	C77.161934,1018.010986 79.323936,1018.128235 81.485931,1018.128296 
	C350.239197,1018.136536 618.992432,1018.136047 887.745728,1018.136047 
	C889.882446,1018.136047 892.019165,1018.136047 894.828796,1018.136047 
	C894.828796,1015.931213 894.828674,1014.158325 894.828796,1012.385376 
	C894.829834,991.391602 895.253052,970.386597 894.690979,949.407898 
	C894.282043,934.147644 906.827026,918.608032 922.744568,918.040527 
	C942.844360,917.323975 956.838806,929.053711 957.087219,947.885376 
	C957.541992,982.367859 957.423462,1016.862427 957.122925,1051.348267 
	C956.997437,1065.757202 946.701233,1076.834473 931.236023,1080.721924 
	C632.979126,1081.000000 334.958221,1081.000000 36.468655,1081.000000 
z"/>
<path fill="#ECF9F4" opacity="1.000000" stroke="none" 
	d="
M74.916641,1017.753906 
	C74.721886,1017.805725 74.443832,1017.662903 74.185165,1017.263794 
	C74.470329,1017.127441 74.679924,1017.311340 74.916641,1017.753906 
z"/>
<path fill="#DFFDFF" opacity="1.000000" stroke="none" 
	d="
M446.065887,541.000000 
	C446.065918,525.675354 446.065918,510.850739 446.065918,495.575012 
	C633.335022,495.575012 820.346436,495.575012 1007.652222,495.575012 
	C1007.652222,589.559326 1007.652222,683.444641 1007.652222,777.601501 
	C820.456299,777.601501 633.558777,777.601501 446.065857,777.601501 
	C446.065857,698.718018 446.065857,620.109009 446.065887,541.000000 
M568.877625,631.386169 
	C579.991821,613.598694 591.118774,595.819153 602.214783,578.020264 
	C607.363159,569.761780 606.213867,562.718628 598.207214,557.303162 
	C594.718689,554.943604 590.559448,553.149902 586.451172,552.222046 
	C578.182068,550.354614 574.212769,552.570862 570.067261,559.956055 
	C567.134399,565.180969 564.123413,570.362244 561.134888,575.555847 
	C554.349487,587.347778 547.556458,599.135437 540.526306,611.341919 
	C539.476013,609.791931 538.675293,608.755493 538.026855,607.631287 
	C528.796753,591.627563 519.368225,575.732117 510.483704,559.538330 
	C507.065948,553.308899 502.453369,551.352783 495.777283,551.882141 
	C478.187439,553.276794 471.241089,566.413940 480.435272,581.086731 
	C491.395172,598.577271 502.180023,616.178589 513.279602,633.579468 
	C515.352844,636.829712 515.527832,638.985718 513.318115,642.315491 
	C500.892212,661.039856 488.744965,679.949585 476.553131,698.828735 
	C472.286560,705.435547 472.800415,710.335205 478.191650,715.893311 
	C483.435791,721.299805 489.941803,723.841309 497.383148,724.239441 
	C502.166473,724.495361 505.501587,722.675415 507.966797,718.344727 
	C515.788208,704.604431 523.893677,691.025696 531.902893,677.392517 
	C534.570190,672.852234 537.278748,668.336182 540.276245,663.291138 
	C541.622192,665.391174 542.558533,666.749695 543.392273,668.168457 
	C552.921692,684.383484 562.458374,700.594299 571.942383,716.835876 
	C575.940735,723.683105 578.432922,725.518005 586.060974,723.822815 
	C591.255615,722.668396 596.618652,720.419617 600.865479,717.260803 
	C608.309998,711.723328 608.752075,705.972717 603.698486,698.151062 
	C592.044373,680.113525 580.529114,661.981689 568.553528,644.159607 
	C565.518860,639.643433 564.580688,636.088867 568.877625,631.386169 
M893.184631,700.707764 
	C900.428040,688.426208 907.671387,676.144714 915.235779,663.318909 
	C916.543823,665.317200 917.492004,666.642578 918.315002,668.041626 
	C927.852051,684.254944 937.397888,700.463196 946.880493,716.708435 
	C950.990295,723.749268 953.591431,725.551636 961.425781,723.811279 
	C966.322998,722.723450 971.346863,720.616882 975.410583,717.706299 
	C983.217102,712.114990 983.814270,706.070374 978.501038,697.851074 
	C966.480469,679.255859 954.523743,660.618225 942.323669,642.141296 
	C940.256287,639.010193 940.292114,636.908447 942.294067,633.767212 
	C954.103760,615.236450 965.672546,596.552063 977.291077,577.899780 
	C982.318298,569.829163 981.232849,562.872925 973.497437,557.518188 
	C970.031494,555.118958 965.903259,553.275024 961.807861,552.270935 
	C953.447021,550.220947 949.300720,552.500122 945.006104,560.084717 
	C940.003296,568.920105 934.910767,577.704712 929.847534,586.505859 
	C925.157654,594.657898 920.455139,602.802673 915.430298,611.519531 
	C913.838867,608.887390 912.608948,606.935852 911.459106,604.938293 
	C902.822998,589.934875 894.226074,574.908875 885.567566,559.918457 
	C881.168213,552.301941 877.752380,550.717896 869.160767,552.065674 
	C852.040161,554.751465 846.448853,566.747314 855.514526,581.201355 
	C866.482727,598.688904 877.267700,616.293213 888.415649,633.664856 
	C890.588196,637.050293 890.328125,639.227112 888.223083,642.417053 
	C875.935913,661.036316 863.868774,679.800964 851.770142,698.544128 
	C847.918945,704.510376 847.719238,709.260010 851.340027,713.769165 
	C857.270630,721.154846 865.163635,724.791992 874.543762,723.967590 
	C877.215332,723.732727 880.470398,721.582886 882.064636,719.326660 
	C886.085205,713.636658 889.312622,707.386230 893.184631,700.707764 
M812.381653,626.089783 
	C803.832581,621.994202 795.166992,618.121033 786.776367,613.723145 
	C781.375916,610.892456 775.878723,607.863708 771.331055,603.887268 
	C765.863342,599.106262 766.695068,590.968201 772.926025,587.259216 
	C776.760010,584.976929 781.504822,583.674194 785.984985,583.138062 
	C796.649231,581.861816 806.698181,584.004944 816.207886,589.430542 
	C823.144226,593.388000 829.544006,591.116211 833.725159,584.319702 
	C840.391174,573.484009 837.786133,563.853210 826.497009,558.185791 
	C823.845337,556.854553 820.980530,555.836731 818.107361,555.076843 
	C803.731750,551.275146 789.111206,550.692505 774.548035,553.301758 
	C760.240234,555.865356 747.371277,561.663574 738.962524,574.270203 
	C726.339355,593.195312 728.829468,623.379639 751.872742,638.662109 
	C761.937378,645.336975 773.266479,650.079590 783.832153,656.035278 
	C789.587219,659.279297 795.678772,662.475647 800.327209,667.015686 
	C809.195251,675.676758 805.653015,687.361450 793.829834,691.124695 
	C781.971436,694.899109 771.234802,692.392456 761.203430,685.673035 
	C757.610046,683.265930 754.267761,680.482788 750.664185,678.092407 
	C745.343018,674.562744 739.551880,674.620911 735.118591,679.065613 
	C725.927429,688.280090 723.674683,697.815552 733.312622,707.737488 
	C736.502197,711.021118 740.429871,713.754333 744.407043,716.076538 
	C759.383301,724.821167 775.861267,726.543274 792.655762,724.778870 
	C826.063782,721.268860 845.939270,698.359436 840.275208,663.302002 
	C837.537659,646.357727 827.200500,634.965332 812.381653,626.089783 
M621.281616,564.225708 
	C621.257446,611.557190 621.427002,658.890137 621.068665,706.219116 
	C620.982422,717.605469 625.391846,722.734009 637.679626,722.901978 
	C661.507996,723.227600 685.343872,723.029480 709.176514,722.978516 
	C715.849426,722.964233 719.604675,718.839355 720.835815,710.540894 
	C721.968628,702.905029 718.448547,693.739624 713.676697,692.133545 
	C712.597473,691.770325 711.375000,691.732483 710.216553,691.720398 
	C694.891296,691.560852 679.565674,691.430786 664.240173,691.298889 
	C662.294617,691.282166 660.348816,691.296570 657.785889,691.296570 
	C657.785889,686.731323 657.785889,682.779480 657.785889,678.827637 
	C657.785706,641.828552 657.793640,604.829468 657.779114,567.830383 
	C657.775940,559.775024 654.943054,555.590942 647.378113,554.430298 
	C642.191589,553.634583 636.719116,553.789368 631.490295,554.444092 
	C626.491211,555.069946 622.366821,557.691040 621.281616,564.225708 
z"/>
<path fill="#DFFDFF" opacity="1.000000" stroke="none" 
	d="
M232.868744,216.868317 
	C269.211426,181.673965 305.304993,146.730499 339.755341,113.377930 
	C339.755341,187.447769 339.755341,264.972565 339.755341,342.810730 
	C262.940308,342.810730 186.367081,342.810730 108.439140,342.810730 
	C150.233124,300.508209 191.426392,258.813721 232.868744,216.868317 
z"/>
<path fill="#50C498" opacity="1.000000" stroke="none" 
	d="
M568.682434,631.693848 
	C564.580688,636.088867 565.518860,639.643433 568.553528,644.159607 
	C580.529114,661.981689 592.044373,680.113525 603.698486,698.151062 
	C608.752075,705.972717 608.309998,711.723328 600.865479,717.260803 
	C596.618652,720.419617 591.255615,722.668396 586.060974,723.822815 
	C578.432922,725.518005 575.940735,723.683105 571.942383,716.835876 
	C562.458374,700.594299 552.921692,684.383484 543.392273,668.168457 
	C542.558533,666.749695 541.622192,665.391174 540.276245,663.291138 
	C537.278748,668.336182 534.570190,672.852234 531.902893,677.392517 
	C523.893677,691.025696 515.788208,704.604431 507.966797,718.344727 
	C505.501587,722.675415 502.166473,724.495361 497.383148,724.239441 
	C489.941803,723.841309 483.435791,721.299805 478.191650,715.893311 
	C472.800415,710.335205 472.286560,705.435547 476.553131,698.828735 
	C488.744965,679.949585 500.892212,661.039856 513.318115,642.315491 
	C515.527832,638.985718 515.352844,636.829712 513.279602,633.579468 
	C502.180023,616.178589 491.395172,598.577271 480.435272,581.086731 
	C471.241089,566.413940 478.187439,553.276794 495.777283,551.882141 
	C502.453369,551.352783 507.065948,553.308899 510.483704,559.538330 
	C519.368225,575.732117 528.796753,591.627563 538.026855,607.631287 
	C538.675293,608.755493 539.476013,609.791931 540.526306,611.341919 
	C547.556458,599.135437 554.349487,587.347778 561.134888,575.555847 
	C564.123413,570.362244 567.134399,565.180969 570.067261,559.956055 
	C574.212769,552.570862 578.182068,550.354614 586.451172,552.222046 
	C590.559448,553.149902 594.718689,554.943604 598.207214,557.303162 
	C606.213867,562.718628 607.363159,569.761780 602.214783,578.020264 
	C591.118774,595.819153 579.991821,613.598694 568.682434,631.693848 
z"/>
<path fill="#50C498" opacity="1.000000" stroke="none" 
	d="
M893.021240,701.034058 
	C889.312622,707.386230 886.085205,713.636658 882.064636,719.326660 
	C880.470398,721.582886 877.215332,723.732727 874.543762,723.967590 
	C865.163635,724.791992 857.270630,721.154846 851.340027,713.769165 
	C847.719238,709.260010 847.918945,704.510376 851.770142,698.544128 
	C863.868774,679.800964 875.935913,661.036316 888.223083,642.417053 
	C890.328125,639.227112 890.588196,637.050293 888.415649,633.664856 
	C877.267700,616.293213 866.482727,598.688904 855.514526,581.201355 
	C846.448853,566.747314 852.040161,554.751465 869.160767,552.065674 
	C877.752380,550.717896 881.168213,552.301941 885.567566,559.918457 
	C894.226074,574.908875 902.822998,589.934875 911.459106,604.938293 
	C912.608948,606.935852 913.838867,608.887390 915.430298,611.519531 
	C920.455139,602.802673 925.157654,594.657898 929.847534,586.505859 
	C934.910767,577.704712 940.003296,568.920105 945.006104,560.084717 
	C949.300720,552.500122 953.447021,550.220947 961.807861,552.270935 
	C965.903259,553.275024 970.031494,555.118958 973.497437,557.518188 
	C981.232849,562.872925 982.318298,569.829163 977.291077,577.899780 
	C965.672546,596.552063 954.103760,615.236450 942.294067,633.767212 
	C940.292114,636.908447 940.256287,639.010193 942.323669,642.141296 
	C954.523743,660.618225 966.480469,679.255859 978.501038,697.851074 
	C983.814270,706.070374 983.217102,712.114990 975.410583,717.706299 
	C971.346863,720.616882 966.322998,722.723450 961.425781,723.811279 
	C953.591431,725.551636 950.990295,723.749268 946.880493,716.708435 
	C937.397888,700.463196 927.852051,684.254944 918.315002,668.041626 
	C917.492004,666.642578 916.543823,665.317200 915.235779,663.318909 
	C907.671387,676.144714 900.428040,688.426208 893.021240,701.034058 
z"/>
<path fill="#50C498" opacity="1.000000" stroke="none" 
	d="
M812.695801,626.275024 
	C827.200500,634.965332 837.537659,646.357727 840.275208,663.302002 
	C845.939270,698.359436 826.063782,721.268860 792.655762,724.778870 
	C775.861267,726.543274 759.383301,724.821167 744.407043,716.076538 
	C740.429871,713.754333 736.502197,711.021118 733.312622,707.737488 
	C723.674683,697.815552 725.927429,688.280090 735.118591,679.065613 
	C739.551880,674.620911 745.343018,674.562744 750.664185,678.092407 
	C754.267761,680.482788 757.610046,683.265930 761.203430,685.673035 
	C771.234802,692.392456 781.971436,694.899109 793.829834,691.124695 
	C805.653015,687.361450 809.195251,675.676758 800.327209,667.015686 
	C795.678772,662.475647 789.587219,659.279297 783.832153,656.035278 
	C773.266479,650.079590 761.937378,645.336975 751.872742,638.662109 
	C728.829468,623.379639 726.339355,593.195312 738.962524,574.270203 
	C747.371277,561.663574 760.240234,555.865356 774.548035,553.301758 
	C789.111206,550.692505 803.731750,551.275146 818.107361,555.076843 
	C820.980530,555.836731 823.845337,556.854553 826.497009,558.185791 
	C837.786133,563.853210 840.391174,573.484009 833.725159,584.319702 
	C829.544006,591.116211 823.144226,593.388000 816.207886,589.430542 
	C806.698181,584.004944 796.649231,581.861816 785.984985,583.138062 
	C781.504822,583.674194 776.760010,584.976929 772.926025,587.259216 
	C766.695068,590.968201 765.863342,599.106262 771.331055,603.887268 
	C775.878723,607.863708 781.375916,610.892456 786.776367,613.723145 
	C795.166992,618.121033 803.832581,621.994202 812.695801,626.275024 
z"/>
<path fill="#4FC497" opacity="1.000000" stroke="none" 
	d="
M621.362732,563.808228 
	C622.366821,557.691040 626.491211,555.069946 631.490295,554.444092 
	C636.719116,553.789368 642.191589,553.634583 647.378113,554.430298 
	C654.943054,555.590942 657.775940,559.775024 657.779114,567.830383 
	C657.793640,604.829468 657.785706,641.828552 657.785889,678.827637 
	C657.785889,682.779480 657.785889,686.731323 657.785889,691.296570 
	C660.348816,691.296570 662.294617,691.282166 664.240173,691.298889 
	C679.565674,691.430786 694.891296,691.560852 710.216553,691.720398 
	C711.375000,691.732483 712.597473,691.770325 713.676697,692.133545 
	C718.448547,693.739624 721.968628,702.905029 720.835815,710.540894 
	C719.604675,718.839355 715.849426,722.964233 709.176514,722.978516 
	C685.343872,723.029480 661.507996,723.227600 637.679626,722.901978 
	C625.391846,722.734009 620.982422,717.605469 621.068665,706.219116 
	C621.427002,658.890137 621.257446,611.557190 621.362732,563.808228 
z"/>
</svg>