<?xml version="1.0" encoding="utf-8"?>
<!-- Generator: Adobe Illustrator 27.2.0, SVG Export Plug-In . SVG Version: 6.00 Build 0)  -->
<svg version="1.1" id="Capa_1" xmlns="http://www.w3.org/2000/svg" xmlns:xlink="http://www.w3.org/1999/xlink" x="0px" y="0px"
	 viewBox="0 0 800 800" style="enable-background:new 0 0 800 800;" xml:space="preserve">
<style type="text/css">
	.st0{fill-rule:evenodd;clip-rule:evenodd;fill:#DFFCFF;}
	.st1{fill-rule:evenodd;clip-rule:evenodd;fill:#4FC497;}
</style>
<path class="st0" d="M269.6,378.9l51.3,51.3l51.3-25.6l25.6-51.3L346.6,302c0,0,54.8-13,102.6,25.6c0,0,41.1,45.7,26.5,105.2
	l101.4,106.5c0,0,31.3,21.8,19.2,53.5c-12.1,31.7-44.2,39.1-44.2,39.1s-23.8,5.8-51-26.8l-103.2-98c0,0-51.9,14.6-102.6-25.6
	C295.3,481.4,259.9,439.6,269.6,378.9z"/>
<path id="Combined-Shape" class="st1" d="M567.7,166.7L701,300v433.3H167.7V166.7H567.7z M540.1,233.3H234.3v433.3h400V327.6
	L540.1,233.3z M467.7,66.7l66.7,66.7h-400v500H67.7V66.7H467.7z"/>
</svg>
