<?xml version="1.0" encoding="utf-8"?>
<!-- Generator: Adobe Illustrator 27.2.0, SVG Export Plug-In . SVG Version: 6.00 Build 0)  -->
<svg version="1.1" id="Capa_1" xmlns="http://www.w3.org/2000/svg" xmlns:xlink="http://www.w3.org/1999/xlink" x="0px" y="0px"
	 viewBox="0 0 800 800" style="enable-background:new 0 0 800 800;" xml:space="preserve">
<style type="text/css">
	.st0{fill-rule:evenodd;clip-rule:evenodd;fill:#4FC497;}
	.st1{fill-rule:evenodd;clip-rule:evenodd;fill:#DFFCFF;}
</style>
<path id="Combined-Shape" class="st0" d="M567.7,166.7L701,300v433.3H167.7V166.7H567.7z M540.1,233.3H234.3v433.3h400V327.6
	L540.1,233.3z M467.7,66.7l66.7,66.7h-400v500H67.7V66.7H467.7z"/>
<path class="st1" d="M455.4,302.6l126.3,126.3c11.6,11.6,11.6,30.5,0,42.1L455.4,597.4c-11.6,11.6-30.5,11.6-42.1,0L287,471.1
	c-11.6-11.6-11.6-30.5,0-42.1l126.3-126.3C424.9,291,443.8,291,455.4,302.6z M434.3,491c-10.6,0-18.6,7.9-18.6,18.4
	c0,10.5,7.7,18.8,18.6,18.8c10.9,0,18.6-7.9,18.6-18.6C453,498.8,445,491,434.3,491z M449.2,375.5h-29.8v89.4h29.8V375.5z"/>
</svg>
