<?xml version="1.0" encoding="utf-8"?>
<!-- Generator: Adobe Illustrator 25.2.1, SVG Export Plug-In . SVG Version: 6.00 Build 0)  -->
<svg version="1.1" id="Capa_1" xmlns="http://www.w3.org/2000/svg" xmlns:xlink="http://www.w3.org/1999/xlink" x="0px" y="0px"
	 viewBox="0 0 270 284" style="enable-background:new 0 0 270 284;" xml:space="preserve">
<style type="text/css">
	.st0{fill:#AC5919;}
	.st1{fill:#0B0404;}
	.st2{fill:#7E162A;}
	.st3{fill:#182737;}
	.st4{fill:#D09906;}
	.st5{fill:#D09806;}
	.st6{fill:#7E172A;}
	.st7{fill:#7F172A;}
	.st8{fill:#FEFEFC;}
	.st9{fill:#110303;}
	.st10{fill:#892726;}
	.st11{fill:#862527;}
	.st12{fill:#841F27;}
	.st13{fill:#862227;}
	.st14{fill:#831F28;}
	.st15{fill:#821B28;}
	.st16{fill:#852127;}
	.st17{fill:#892826;}
	.st18{fill:#7F192A;}
	.st19{fill:#7F182A;}
	.st20{fill:#801929;}
	.st21{fill:#811A29;}
	.st22{fill:#862327;}
	.st23{fill:#8B2925;}
	.st24{fill:#913223;}
	.st25{fill:#882526;}
	.st26{fill:#C0C7E6;}
</style>
<path class="st0" d="M439,141.6c0,0.9,0,1.9,0,2.8C437.3,143.5,437.4,142.5,439,141.6z"/>
<g>
	<path class="st1" d="M264.3,148c0.1,7.2-0.2,14.4-1.8,21.4c-3.1,13-6.5,26-13.4,37.6c-4,6.7-8,13.5-13.4,19.3
		c-4.2,4.6-8.2,9.4-13,13.4c-8.3,7.1-17.1,13.5-26.9,18.3c-17.7,8.8-36.4,13.8-56.3,14.4c-17.6,0.5-34.7-2.1-51.2-8.3
		C79,260.4,70.3,256,62,250.5c-10.2-6.8-19.2-14.9-27.3-24.3c-5.3-6.1-9.4-12.9-13.5-19.8c-7.8-12.9-11.2-27.1-13.9-41.8
		c-1.9-10.4-2.1-20.7-0.5-31c2.2-14.2,5.5-28.3,12.6-41c4-7.1,8-14.3,13.3-20.5c7.9-9.2,16.5-17.8,26.5-24.7
		c11.9-8.2,24.7-14.4,38.6-18.4c1.3-0.4,2.5-0.4,2.5-2.6c0-9.1,7.8-16.6,16.7-15.7c2,0.2,3-0.1,3.9-2.2c2.7-6,8-8.6,14.3-8.5
		c6.4,0.1,11.4,2.8,13.9,9c0.7,1.7,1.3,2.2,3.2,1.9c8.5-1.4,18.5,6.9,17.3,15.8c-0.2,1.4,0.4,1.8,1.6,2.1c12.5,3.7,24.4,8.8,35.4,16
		c9.6,6.3,18.2,13.6,26,22.1c5.6,6.1,9.9,12.9,14.4,19.8c7,10.7,10.5,22.6,13.9,34.7C263.5,130.2,264.1,139,264.3,148z"/>
	<path class="st2" d="M262.6,148.1c0.2,4.6,0.1,9.2-0.7,13.7c-2.5,13-5,26.2-11.2,38.1c-4.3,8.3-9,16.4-15,23.6
		c-7.8,9.2-16.4,17.7-26.4,24.5c-15.6,10.5-32.8,17.7-51.4,20.9c-7.5,1.3-15.1,2.1-22.6,2c-15-0.2-29.8-2.3-44.1-7.6
		c-10.4-3.9-20.3-8.7-29.5-14.9c-3.9-2.7-7.4-5.9-11.2-8.7c-6.8-4.9-11.8-11.6-17.3-17.8c-3.9-4.4-6.7-9.7-9.8-14.8
		c-7.6-12.5-12-26.1-14.1-40.5c-2.7-18.2-1.4-36.2,3.8-53.9c4-13.7,10.7-26,19.3-37.1C40.9,64.4,51.1,54.9,63,47.1
		c7.1-4.6,14.5-8.5,22.2-11.8c4.9-2.1,9.9-4,15.2-5.2c1.9-0.4,2.2-1.3,2.2-3.1c-0.3-7.1,3.3-12.3,9.5-14.1c2.4-0.7,5-0.6,7.4-0.1
		c1.4,0.3,1.7-0.1,2-1.2c2.2-8.2,11.7-12.2,20-8.4c3.3,1.5,5.8,4.3,6.7,8c0.5,1.8,1.3,2.1,3.1,1.7c6.4-1.4,12.4,1.9,15.3,7.6
		c1.2,2.3,1.6,4.5,1.3,6.9c-0.2,1.7,0.5,2.4,2,2.8c8.7,2.3,16.9,5.7,24.9,9.6c2.6,1.3,5.1,2.9,7.7,4.4c8.8,5.3,16.8,11.5,24,18.7
		c7.9,8.1,14.6,17.1,20.5,27c7.6,12.9,11.2,26.8,14,41.2C262.2,136.9,262.3,142.5,262.6,148.1z"/>
	<path class="st3" d="M141.7,53.5c3.6,0.5,7.2,1,10.8,1.5c8.5,1.3,16.7,3.9,24.5,7.5c11,5.1,20.9,11.8,29.5,20.5
		c5.2,5.2,9.2,11.1,13.2,17.1c11.1,17,14.5,36,13.2,55.9c-0.8,12.6-4.2,24.7-10.4,35.8c-3.7,6.6-7.8,13-13,18.6
		c-7.6,8-16.1,15-25.8,20.2c-11.4,6-23.4,9.9-36.2,11.5c-16.3,2-32.1,0.1-47.4-5.4c-8-2.9-15.5-6.8-22.5-11.7
		c-8.2-5.6-15-12.6-21.3-20.1c-3-3.6-5-7.9-7.5-11.7c-5.5-8.5-8.4-17.9-10.2-27.7c-3.4-18.2-1.8-36,5.4-53.1
		c3.8-9,8.9-17.4,15.3-24.7C70.4,74.8,84,65.5,99.9,59.7c8.8-3.2,17.9-5.6,27.3-5.8c0.5,0,1-0.2,1.6-0.4c0.9,0.3,1.1,0.9,0.7,1.7
		c-0.9,0.9-2.1,1-3.2,1.1c-9.7,0.7-19.1,3.1-28.1,6.5c-2,0.8-3.2,1.9-2.9,4.1c0.2,2.2-0.8,3.5-2.7,4.4c-8.6,4.5-16.2,10.1-23,17
		c-8.9,9-15.3,19.5-19.7,31.4c-4.2,11.1-5.5,22.4-5,34.1c0.4,9.4,3.3,18.3,6.7,27c4.7,12.1,12.3,22.1,21.7,30.6
		c13.9,12.5,30.3,20.2,49,22.7c16,2.2,31.6,0.5,46.6-5.3c8.7-3.4,16.7-7.9,24.1-13.9c10.1-8.2,18.1-18,24-29.6
		c7.2-14.1,9.6-29,8.5-44.6c-0.4-6-1.2-12-3.4-17.7c-4.7-12.2-10.3-23.8-19.7-33.2c-7.1-7.1-14.6-13.5-23.6-17.9
		c-2.2-1.1-3.4-2.5-3.1-5c0.2-1.9-0.7-2.9-2.4-3.6c-9.4-3.8-19-6.2-29.1-7c-1.2-0.1-2.3-0.1-3.2-1C140.1,54.1,140.6,53.6,141.7,53.5
		z"/>
	<path class="st4" d="M129.3,55.2c0.2-0.7-0.3-1.1-0.6-1.6c0.3-2.3-1.1-4.2-1.7-6.3c-0.3-1.3-1.4-0.3-2-0.1c-3.9,1.2-7.7,2.8-12,2.6
		c-4.1-0.1-5.5-2.3-3.6-6c1.8-3.4,4.7-5.8,7.6-8.2c2.5-2.1,2.5-2.1,0.2-4.3c-2.2-2.2-5-3.8-6.7-6.5c-0.6-1-1.3-2-1.7-3
		c-0.8-2.6,0.3-4.1,3.1-4.4c4.4-0.5,8.4,1.1,12.5,2.4c3.6,1.1,3.5,1.1,4.4-2.4c0.8-3.2,1.5-6.5,2.9-9.5c0.8-1.7,1.8-3.4,4-3.4
		c2.2,0,3,1.7,3.8,3.3c1.7,3.4,3.2,6.9,3.6,10.8c0.2,2.1,1.1,2,2.6,1.5c3.6-1.3,7.3-2.5,11.2-2.6c1.8,0,3.8-0.3,4.8,1.6
		c1,1.9,0.1,3.7-1.1,5.2c-2.2,2.7-4.1,5.6-7.3,7.4c-2.3,1.3-2.1,2.6,0.1,4c1.1,0.7,2,0.9,2.1-0.9c0.1-2.3,1.2-3,3.5-2.2
		c2.2,0.8,4.5,1.1,6.8,1.6c1.7,0.4,1.5,1.3,1,2.6c-0.4,1.1-0.2,2.7-2.2,1.9c-0.1,0-0.2-0.1-0.3,0c-1.1,0.2-2.8-1.6-3.2,0.1
		c-0.4,1.4,1.8,1.1,2.7,1.3c1.3,0.3,1.6,1,1.2,2.1c-0.4,1,0.1,2.8-2,2.3c-0.4-0.1-0.8-0.5-1.3-0.1c-0.1,0.9,0.2,1.6,1.2,1.7
		c1.8,0.1,1.6,1,1.3,2.4c-0.4,1.9-0.8,2.5-3.1,2.2c-5.6-0.9-11.3-1.5-16.6-3.8c-1.1-0.4-1.7-0.2-1.9,1.1c-0.3,1.9-0.7,3.9-1.1,5.8
		c-0.6,0.4-1.3,0.7-1,1.7c0.2,2.7-1.8,6.7-3.9,7.9c-1.8,1-3.4,0.2-4.6-1C130.4,60.2,129.2,57.9,129.3,55.2z"/>
	<path class="st4" d="M39,204.8c1.8-0.4,3.6-0.8,5.5-1.1c2.2-0.4,4.1,1.2,5,4.4c0.5,1.9-1.3,1.9-2.3,2.7c-3.3,2.5-6.6,4.9-9.8,7.5
		c-1.2,1-2,1.2-2.5-0.4c-0.5-1.4-2.8-2.1-2.2-3.7c0.5-1.1,2.2-1.6,3.4-2.4c0.8-0.5,1.5-1.2,2.6-2.1c-2.5-0.2-4.4,0.6-6.4,0.9
		c-1.3,0.3-2.1,0.1-2.8-1.2c-0.6-1.2-0.6-2,0.4-3c1.4-1.3,2.5-3,4.4-4.3c-2.3-0.1-3.8,1.1-5.5,1.7c-3.5,1.2-3.1-2.1-4.1-3.6
		c-1.2-1.7,1-1.5,1.7-1.8c4.1-1.5,8.3-2.9,12.4-4.3c1.3-0.5,2.2-0.4,3.1,1.1c2.1,3.8,2.2,3.7-0.8,6.8c-0.8,0.8-1.5,1.5-2.3,2.2
		C38.8,204.5,38.9,204.7,39,204.8z"/>
	<path class="st4" d="M232.5,207.8c1.8,0.9,3.5,1.9,5.4,2.8c1.2,0.6,1.2,1.2,0.7,2.4c-2,4-2.1,4.1-6.1,1.8c-3.6-2-7.1-4.1-10.7-6.2
		c-0.4-0.2-0.9-0.2-0.9-0.8c0-0.8,3.7-4.7,4.5-4.8c1.2-0.1,2.5-0.3,3.7-0.3c1.1-0.1,2.3,0,3.7-0.4c-1.4-0.8-2.8-1.7-4.2-2.5
		c-1.5-0.8-2.3-1.6-0.9-3.2c0.4-0.5,0.8-1.2,1.1-1.9c0.4-1,1-1.3,2-0.7c4.1,2.3,8.2,4.6,12.4,6.9c1.4,0.8,1.2,1.5,0.7,2.8
		c-1.1,3.3-3.8,3.6-6.6,3.7c-1.6,0-3.1,0-4.7,0C232.5,207.5,232.5,207.7,232.5,207.8z"/>
	<path class="st4" d="M190,53.8c-0.7,1.1-1.4,2.2-2,3.4c-1.8,3.2-0.8,3.3-4.9,1.1c-0.9-0.5-2.2-0.7-1.3-2.3
		c2.3-4.1,4.6-8.3,6.9-12.4c0.2-0.4,0.4-0.8,0.9-0.9c1.4-0.2,5.7,3.1,5.7,4.6c0,2.3,0,4.6,0.6,7c0.9-1.6,1.9-3.1,2.7-4.8
		c0.7-1.3,1.3-1.7,2.7-0.8c4.1,2.5,3.7,1.4,1.6,5.4c-1.7,3.2-3.6,6.4-5.3,9.7c-0.7,1.3-1.1,1.8-2.8,1.1c-4.3-2-4.3-1.9-4.3-6.6
		c0-1.3,0-2.7,0-4C190.4,53.9,190.2,53.9,190,53.8z"/>
	<path class="st4" d="M22.3,137.3c1.9,0.3,3,0.6,4.2,0.7c3.5,0.4,4.7,2.7,3,5.8c-0.4,0.8-1,0.6-1.6,0.5c-4.7-0.6-9.4-1.4-14-1.9
		c-1.3-0.2-1.7-0.7-1.6-1.9c0.3-2.7,0.6-5.2,4.1-5.9c1.8-0.3,3.4-1.3,5.6-2.2c-2.4-0.3-4.2-0.7-6-0.8c-2-0.1-2.6-1.1-2.1-2.8
		c0.5-1.3-0.7-3.9,2.6-3.3c4.5,0.8,9,1.2,13.5,1.8c0.6,0.1,1.2,0.2,1.5,0.9c0.7,1.9-0.9,5.6-2.8,6.4
		C26.8,135.4,24.9,136.2,22.3,137.3z"/>
	<path class="st4" d="M220.2,66.8c0,4.9-4,8.8-8.9,8.8c-5.6,0-9.8-4.1-9.7-9.3c0.1-5.1,4-8.7,9.5-8.7
		C216.3,57.7,220.2,61.7,220.2,66.8z"/>
	<path class="st4" d="M225.5,95.1c0-5.1,3.9-8.8,9.2-8.7c5.1,0,9.2,4.1,9.2,9.2c0,5.1-3.8,9.1-8.9,9.1
		C229.6,104.7,225.5,100.5,225.5,95.1z"/>
	<path class="st4" d="M247.9,172c-5.4,0-9-3.5-9.1-8.8c0-5.6,3.7-9.6,9-9.5c5.1,0.1,9.4,4.1,9.3,8.9C257,168.2,253.3,172,247.9,172z
		"/>
	<path class="st4" d="M87.8,57.4c-5.5,0-9.1-3.5-9.1-9c0-5,4.1-8.8,9.5-8.9c5.3,0,9.1,3.8,9.1,9.1C97.3,53.9,93.5,57.4,87.8,57.4z"
		/>
	<path class="st4" d="M91.5,258.1c-3.2-0.1-6.3-1.6-9.5-2.9c-1-0.4-1-1-0.6-1.9c1.8-4.3,3.5-8.6,5.2-12.9c0.5-1.2,1.2-1.5,2.3-1
		c2.7,1,5.3,2,7.7,3.6c3.1,2.1,4.3,5.7,3.2,9.4C98.7,256,95.7,258.1,91.5,258.1z"/>
	<path class="st4" d="M241.8,118.3c-0.6-1.8-0.8-3,1.1-3.4c1.4-0.4,2.3-0.5,2.7,1.3c0.4,1.8,1.1,3.6,1.8,5.3
		c0.6,1.5-0.1,2.2-1.4,2.5c-6.8,1.5-11.4-3.3-11.9-8.7c-0.4-5.1,5.2-10.7,12.1-8.8c5.8,1.6,8.6,8.3,5.7,13.2
		c-0.6,1.1-1.1,1.8-2.2,0.3c-1.2-1.7-3.7-2.5-2.7-5.4c0.4-1.2-0.9-2.1-2.1-2.3c-1.8-0.3-3.5,0.3-4.5,1.8
		C239.5,115.4,239.7,116.9,241.8,118.3z"/>
	<path class="st4" d="M64.9,245.8c-2.7-2.9-7.7-3.6-5-8.8c-1.2-0.2-1.5,0.6-1.8,1.1c-0.8,1.3-1.5,1.6-2.8,0.4
		c-3.3-2.6-3.3-2.5-0.6-5.9c2.4-3,4.6-6.1,7.3-8.8c1-1,1.6-1,2.6-0.2c1.6,1.3,3.2,2.6,4.8,3.8c2.3,1.8,3.4,4,2.5,6.8
		c-0.8,2.5-2.5,4.1-5.4,3.6c-1.1-0.2-0.8,0.7-0.9,1.2C65.3,241.1,65.1,243.2,64.9,245.8z"/>
	<path class="st4" d="M66.6,69c-0.2,3.5-2,5.9-5,7.3c-3,1.4-6,1.3-8.6-1.2c-2.3-2.2-4.2-4.9-6.8-6.8c-0.9-0.7-1-1.4,0.1-2
		c0.1,0,0.2-0.1,0.2-0.2c3.9-2.8,3.9-2.9,7.4,0.8c1,1.1,2,2.3,3.1,3.3c0.7,0.7,1.5,1.4,2.6,0.5c1-0.9,0.5-1.9-0.2-2.6
		c-1.7-1.9-3.4-3.7-5.2-5.5c-1.3-1.3-1.8-2.4,0.2-3.5c0.4-0.2,0.7-0.5,1-0.9c1.2-1.5,2-1.6,3.5,0c1.9,2,4,3.7,5.8,5.9
		C65.8,65.6,66.8,67.1,66.6,69z"/>
	<path class="st4" d="M166.5,256.7c0,5.7-5.4,9.1-10.6,7.6c-2.8-0.8-4.7-2.4-5.3-5.4c-0.6-2.7-1.2-5.4-1.9-8.1
		c-0.3-1.3-0.2-1.8,1.3-2.2c4.8-1.3,4.8-1.4,5.9,3.6c0.4,1.7,0.9,3.5,1.3,5.2c0.3,1,0.7,2,2,1.5c1.1-0.4,1.3-1.3,1-2.4
		c-0.6-2.4-1.1-4.9-1.7-7.3c-0.4-1.6-0.2-2.5,1.6-2.8c4.7-0.8,3.6-1.7,4.8,2.9C165.6,252,166.3,254.7,166.5,256.7z"/>
	<path class="st4" d="M219.8,234.1c-0.2-0.4-0.5-0.8-0.8-1.2c-2.4-4.2-4.7-8.4-7.1-12.6c-0.7-1.2-0.7-1.9,0.2-3
		c3.2-3.6,3.1-3.7,7.8-2c3.8,1.4,7.5,2.8,11.3,4.2c1.3,0.5,1.6,1.2,0.4,2c-1.6,1.1-1.9,4.3-5.1,3.2c-0.5-0.2-3.1,1.6-2.3,4
		C224.7,229.9,221.2,234.2,219.8,234.1z"/>
	<path class="st4" d="M101.1,262.2c2.6-4.4,5.3-8.7,7.8-13.1c1-1.8,1.8-2.3,3.9-1.8c4.7,1,4.7,0.8,5.4,5.6c0.5,3.7,1,7.4,1.6,11.1
		c0.3,1.8-0.5,2.2-1.8,1.6c-1.8-0.7-4.6,0.4-5.3-2.9c-0.2-0.8-2.9-1.4-3.6-0.7c-2.6,2.8-5.1,0.5-7.6,0.4
		C101.3,262.3,101.2,262.2,101.1,262.2z"/>
	<path class="st4" d="M206.3,244.8c-1.7,1-3.1,1.9-4.6,2.8c-0.5,0.3-1,0.6-1.7,0.2c-2.3-1-4.3,0.1-4.4,2.6c-0.1,1.9-1.8,1.5-2.7,2.1
		c-3.3,2.1-3.3,2-4.1-1.7c-0.8-3.9-1.6-7.9-2.4-11.8c-0.4-1.6,0.1-2.4,1.4-3.3c4.4-2.6,4.3-2.6,8.2,0.6
		C199.4,239.1,202.8,241.9,206.3,244.8z"/>
	<path class="st4" d="M35.4,117.6c0.3,3.1-1.8,5.4-4,7.4c-1.6,1.4-2.4-1.1-3.6-1.7c-1.2-0.5-0.5-1.2,0.1-1.8
		c0.2-0.2,0.4-0.4,0.6-0.6c0.7-0.9,1.8-2.3,0.8-3c-1.1-0.7-1.5,1.1-2,1.9c-1.3,2-3,3.1-5.4,2.4c-3.1-0.8-4.5-2.3-4.7-5
		c-0.1-2,0-3.9,1-5.7c1.9-3.4,2.3-3.5,5.2-1.1c0.9,0.8,1.4,1.2,0.3,2.2c-0.5,0.5-0.8,1.2-1.1,1.8c-0.1,0.4-0.1,1.1,0.2,1.2
		c0.6,0.4,0.9-0.2,1.2-0.6c0.2-0.3,0.4-0.6,0.5-0.9c1.9-3.1,3.3-3.8,6-3C33.8,112,35.4,114,35.4,117.6z"/>
	<path class="st4" d="M61,221.1c-0.4,0.2-0.8,0.3-1,0.6c-1.9,2.1-3.5,2.3-5.2-0.3c-0.3-0.5-0.8-1.5-1.6-0.8
		c-0.7,0.7,0.3,1.2,0.6,1.8c0.6,1,2.6,1.6,0.6,3.3c-1.7,1.4-2.7,1.7-4-0.3c-0.4-0.7-0.9-2-2-1c-0.8,0.7,0.3,1.4,0.8,2
		c2.1,2.7,2.1,2.9-0.3,4.6c-1.1,0.8-2,0.8-2.8-0.2c-1.8-2.1-3.5-4.3-5.3-6.4c-0.8-0.9-0.9-1.6,0.1-2.4c3.8-2.9,7.6-5.9,11.3-9
		c1-0.9,1.5-0.4,2.1,0.4C56.6,216,58.8,218.5,61,221.1z"/>
	<path class="st5" d="M251.3,150.4c0.9-2.3,2-4.5-0.5-6.1c-1.3-0.8-3.1-0.9-4.3,0.2c-2.3,1.9-0.8,4,0.3,6.4c-1.9,0-3.5,0-5.1,0
		c-1.1,0-1.5-0.7-1.8-1.6c-1.1-3.7,0.1-7.8,3.1-10.1c2.9-2.2,8.1-2.3,11.3,0c2.8,2,4.2,6.4,3.3,9.9c-0.3,1.1-0.9,1.4-1.9,1.4
		C254.4,150.4,253,150.4,251.3,150.4z"/>
	<path class="st4" d="M182.7,246.1c-2.3-0.4-4.7-0.8-5.9,1.7c-0.7,1.4-0.4,3.1,1.1,4.1c2.8,1.7,4.6-0.5,6.5-2.3
		c0.4,1,0.6,1.8,0.9,2.6c1.4,3.5,1.1,4.2-2.4,5.5c-5.3,2-10.6-0.4-12.3-5.7c-1.7-5.1,1.3-9.9,6.8-11.5c1.8-0.5,2.8-0.1,3.7,1.4
		C181.8,243.3,182.4,244.6,182.7,246.1z"/>
	<path class="st4" d="M181.4,49.6c-1.3,1.4-1.7,2.7-2.1,4c-0.6,2.2-2,2.4-3.9,1.8c-3.9-1.1-6.5-3.9-6.9-7.4
		c-0.4-3.7,1.3-7.4,4.3-9.2c2.9-1.7,8.1-1.3,10.7,0.7c0.8,0.6,1.2,1.2,0.7,2.2c-0.6,1.4-1.1,2.8-1.7,4.3c-2.1-1.4-3.9-3.6-6.6-1.9
		c-1.3,0.8-1.8,2.3-1.1,3.8C176.3,50.6,178.6,50.4,181.4,49.6z"/>
	<path class="st5" d="M129,250.1c5.2-1.3,5.7-1.1,8.8,3.3c0.8-6.1,5.4-3.3,9.2-4.4c-1.9,3.3-3.2,6.2-5.1,8.8
		c-1.6,2.2-1.5,4.5-0.7,6.7c0.6,1.7,0,1.8-1.3,1.9c-5.2,0.5-5.3,0.5-5.2-4.8c0-1.6-0.4-2.9-1.3-4.2c-1.5-2.1-2.8-4.4-4.2-6.5
		C129.1,250.7,129.1,250.5,129,250.1z"/>
	<path class="st4" d="M207.8,222.2c1.2,0.7,2.1,2.1,3.1,3.3c0.9,1.1-0.3,1.6-0.9,2.1c-1.2,1-0.3,1.8,0.3,2.5
		c1.5,1.9,3.1,3.7,4.8,5.4c1.2,1.2,1.1,2-0.2,2.9c-0.7,0.5-1.3,1.2-2,1.8c-0.8,0.7-1.4,0.7-2.2-0.2c-1.8-2.1-3.8-3.9-5.7-6
		c-0.8-0.9-1.3-1.4-2.6-0.4c-2.5,2.1-2.7-1.2-3.9-1.9c-1.4-0.9-0.5-1.7,0.3-2.5c2.4-2.1,4.9-4.2,7.3-6.3
		C206.5,222.6,206.9,222.1,207.8,222.2z"/>
	<path class="st4" d="M74.4,66.2c-0.9,0.1-1.2-0.5-1.6-1c-1.5-2.2-3.2-4.3-4.6-6.6c-0.7-1.1-1.2-1.4-2.5-0.6
		c-2.8,1.8-2.5-1.7-3.8-2.6c-1.3-0.9-0.1-1.6,0.7-2.1c2.6-1.8,5.2-3.5,7.6-5.4c1.2-0.9,1.9-0.7,2.5,0.5c0.4,0.7,1,1.2,1.6,1.8
		c1,0.8,1.2,1.8-0.4,2.4c-2.1,0.7-1.5,2-0.4,3c1.9,1.6,2.9,3.8,4.4,5.7c1.2,1.4,0.8,2.3-0.7,3.1C76.3,64.7,75.3,65.5,74.4,66.2z"/>
	<path class="st4" d="M41,81.7c-0.3,0.3-0.5,0.5-0.8,0.7c-0.7,0.4-0.7,2-1.9,1.2c-1.3-0.8-2.4-1.8-3.5-2.9c-0.3-0.3,0.2-0.8,0.4-1.1
		c2.1-2.6,4.2-5.1,6.2-7.7c1-1.3,2-1.2,2.7-0.1c0.7,1.1,3.7,1.3,1.8,3.5c-1.2,1.4-0.5,2.2,0.6,2.7c2.1,1,3.8,2.7,5.5,4.2
		c0.6,0.6,2.2,0.8,1.7,2c-0.7,1.6-1.9,3-3.4,4.1c-0.6,0.4-1.1-0.4-1.5-0.8c-2.3-1.7-4.5-3.4-6.8-5.1C41.6,82.2,41.3,82,41,81.7z"/>
	<path class="st4" d="M31.2,95.9c-1.9,3.4,1,3.3,2.8,4.1c1.2,0.5,2.3,1,3.4,1.6c3.3,1.6,3.6,3.7,1.2,6.5c-0.7,0.9-1.3,0.3-1.8,0
		c-2.5-1.1-5.1-2.2-7.6-3.3c-1-0.5-1.8-0.8-2.5,0.7c-1.4,3-2.9,0.1-4.4-0.1c-1.5-0.3-1.3-1.3-0.7-2.4c1.4-2.7,2.6-5.5,3.9-8.2
		c0.4-0.7,0.5-2,1.7-1.3C28.7,94.1,30.5,94.2,31.2,95.9z"/>
	<path class="st4" d="M222.1,90.6c-0.7-0.5-1.4-0.8-1.8-1.3c-1.8-2.2-3.5-4.5-5.4-6.7c-0.9-1-0.7-1.7,0.3-2.4
		c3.8-2.9,7.6-5.8,11.4-8.8c0.9-0.7,1.4-0.4,1.9,0.3c0.5,0.6,1,1.3,1.6,1.8c1.6,1.4,1.1,2.4-0.5,3.5c-1.7,1.2-3.1,2.8-4.8,3.8
		c-2.2,1.3-1.8,2.6-0.4,4.1c0.6,0.7,2.1,1.4,1.3,2.5C224.8,88.7,223.4,89.6,222.1,90.6z"/>
	<path class="st5" d="M74.1,251c-1.4-0.5-3-1.6-4.5-2.6c-0.6-0.4,0-1,0.3-1.4c2.6-4.1,5.3-8.2,7.9-12.3c0.5-0.8,0.9-0.8,1.8-0.5
		c4.2,1.8,4.4,2.3,2.1,6.3c-1.8,3.1-3.6,6.1-5.5,9.2C75.7,250.3,75.5,251.3,74.1,251z"/>
	<path class="st5" d="M43.4,98.2c-0.5-0.2-0.8-0.4-1.1-0.5c-4.1-2.3-8.2-4.6-12.4-6.8c-1.2-0.6-1.4-1.2-0.7-2.4
		c2.3-4.2,2.3-4.2,6.5-1.9c3.2,1.8,6.3,3.7,9.5,5.5c1.3,0.7,1.7,1.4,0.7,2.6C44.9,95.8,44.7,97.4,43.4,98.2z"/>
	<path class="st5" d="M256.4,130.7c0.3,1.2-0.2,1.3-0.9,1.4c-4.9,0.9-9.8,1.8-14.7,2.8c-1.1,0.2-1.5-0.2-1.6-1.1
		c-0.2-0.8-0.2-1.6-0.5-2.4c-0.6-1.8-0.1-2.5,1.8-2.9c4.2-0.7,8.4-1.4,12.6-2.4c1.9-0.4,2.8-0.1,2.9,1.9
		C256,129.1,256.2,130,256.4,130.7z"/>
	<path class="st4" d="M21.2,147.6c2.3,0,4.6,0.1,6.9,0c1.3,0,2,0.4,1.9,1.8c-0.1,0.9-0.1,1.8,0,2.7c0.1,1.3-0.5,1.6-1.7,1.7
		c-4.5,0.1-9.1-0.2-13.6,0.4c-1.2,0.1-2.1-0.1-2-1.7c0-0.9-0.2-1.8-0.3-2.6c-0.2-1.4,0.2-2.2,1.9-2.1c2.3,0.1,4.6,0,6.9,0
		C21.2,147.7,21.2,147.6,21.2,147.6z"/>
	<path class="st5" d="M241.7,179.5c2.4,0.1,3.9,1.8,3.8,4.2c-0.1,2.2-1.9,3.9-4,3.8c-2.1-0.1-3.8-1.9-3.8-4
		C237.8,181,239.3,179.4,241.7,179.5z"/>
	<path class="st5" d="M20.8,173c1-2.1,2.8-2.6,4.9-2.1c1.5,0.3,2.3,1.4,2.6,2.8c0.4,2-0.2,3.8-2.2,4.6c-2.1,0.9-4,0-5.4-2.4
		C20.2,174.8,20.2,173.9,20.8,173z"/>
	<path class="st2" d="M126.5,42.1c0.4,1.8-0.2,2.5-1.7,3c-3.2,1-6.2,2.1-9.5,2.7c-1.6,0.3-3.5,0.9-4.4-0.8c-0.8-1.5,0.5-3,1.5-4
		c2.6-2.7,5.4-5.2,8.1-7.7c0.4-0.4,0.8-0.6,1.4-0.2C124.4,36.9,127.4,38.4,126.5,42.1z"/>
	<path class="st2" d="M114.5,19.1c3.8,0.6,7.9,1.9,11.9,3.4c1.4,0.5,0.9,5.2-0.5,6.4c-0.1,0.1-0.2,0.1-0.2,0.2c-4,3.1-4,3.2-7.9-0.2
		c-2.1-1.8-4-3.8-5.8-5.8c-0.7-0.7-1.6-1.7-1-2.9C111.5,18.9,112.8,19.1,114.5,19.1z"/>
	<path class="st2" d="M130.4,20c1-4,1.7-8.2,3.5-12c0.4-0.8,0.9-1.7,1.9-1.7c1,0,1.5,1,1.8,1.7c1.3,2.7,2,5.5,2.8,8.4
		c1.3,5.2,1.3,5.3-4,6.9c-2.3,0.7-4-1-5.8-2C130.4,21.2,130.5,20.5,130.4,20z"/>
	<path class="st2" d="M157,19.1c1.4,0,2.4,0,2.9,0.9c0.5,0.9,0.1,1.7-0.4,2.5c-2.3,3.7-5.9,6-9,9c-0.2,0.2-0.6,0.4-0.9,0.4
		c-1.5-0.1-4.7-4-5.2-5.4c-1-3.4,0.8-4.5,3.6-5.2C151.1,20.4,154.2,19.4,157,19.1z"/>
	<path class="st6" d="M143.8,42.4c-1.1-4.1,2.8-5.2,5.3-7.3c0.7-0.6,1.2,0,1.6,0.3c1.2,1,2.7,1.8,3.6,3.1c1.1,1.6-0.9,2.8-1.1,4.3
		c-0.8,4.1-0.9,4.1-4.9,2.9c-1.3-0.4-2.5-1-3.8-1.4C143.7,44.2,143.4,43.7,143.8,42.4z"/>
	<path class="st6" d="M131.4,54.5c-0.8-2.3-1.1-4.8-1.7-7.2c-0.3-1.3,0.3-1.8,1.3-2.2c1.2-0.5,1.2,0.3,1.7,1.1
		c1.1,1.8,3,0.6,4.6,0.8c1.8,0.2,0.9-1.5,1.5-2.2c1.4,0.1,2.2,0.7,1.8,2.2c-0.6,2.5-1.2,5-1.9,7.5C136.2,54.1,133.8,54.1,131.4,54.5
		z"/>
	<path class="st7" d="M142.6,30.3c-4.7,0-9,0-13.5,0C132.6,25.7,138,25.7,142.6,30.3z"/>
	<path class="st8" d="M138.4,55.1c-0.3,0.8-0.5,1.7-0.8,2.5c-0.5,1.3-1,3.1-2.5,3c-1.4-0.1-2-1.8-2.6-3.1c-0.4-0.8-0.6-1.6-0.9-2.5
		C133.9,53.9,136.1,53.9,138.4,55.1z"/>
	<path class="st9" d="M138.4,55.1c-2.3,0-4.5,0-6.8,0c-0.1-0.2-0.2-0.4-0.2-0.6c1.6-1.5,5.7-1.5,7.3,0
		C138.6,54.7,138.5,54.9,138.4,55.1z"/>
	<path class="st10" d="M129.1,32.5c0.2,1.7-0.1,3.6,2.7,3.6c1.2,0,1,1.6,0.7,2.4c-0.4,1-1.2,0-1.8-0.2
		C127.6,37,129.4,34.5,129.1,32.5z"/>
	<path class="st11" d="M138.9,38.9c-0.1-1.2-1.2-2.8,0.8-3.1c0.9-0.1,2.4-0.6,2.5,0.6C142.4,38.7,139.8,37.6,138.9,38.9z"/>
	<path class="st12" d="M144.6,31.2c1.3,0.6,2.8,1.1,2.8,2.1c0,1.2-1.6,1.7-2.8,2.5C144.6,34.1,144.6,32.8,144.6,31.2z"/>
	<path class="st13" d="M128.9,41.2c0.1-0.5-0.2-1.5,0.5-1.2c1.1,0.4,2.7,0.7,2.9,2c0.2,1-1.3,1-2.1,1.2
		C128.5,43.5,129.1,42,128.9,41.2z"/>
	<path class="st14" d="M126.2,31c0,1.8,0,3,0,4.4c-1.4-0.4-2.3-1.1-3.2-2.2C124,32.5,125,31.9,126.2,31z"/>
	<path class="st15" d="M137.9,24.8c1.9-0.4,2.9-1.8,4.2-0.6c0.5,0.5,0.6,2,0.1,2.2C140.7,27.1,139.7,25.9,137.9,24.8z"/>
	<path class="st16" d="M141.9,41.4c-0.3,0.7,0.2,2.1-1.3,1.7c-0.7-0.2-1.9-0.3-1.8-1.2c0.2-1.1,1.5-1.5,2.5-1.7
		C142.3,40,142,40.8,141.9,41.4z"/>
	<path class="st17" d="M132.7,24.8c-0.9,1.1-1.9,1.6-3.1,1.9c-0.3-1-0.4-2.1,0.5-2.7C130.9,23.4,131.7,24.3,132.7,24.8z"/>
	<path class="st18" d="M208.3,66.6c0.3-1.7,1.3-2.9,3.3-3c1.7,0,2.7,1.1,2.6,2.7c-0.1,1.8-1.4,3.2-3.3,3.2
		C209.3,69.6,208.3,68.5,208.3,66.6z"/>
	<path class="st7" d="M235.1,98.2c-2.4,0.1-3.6-0.6-3.7-2.5c-0.1-1.7,1.6-3.3,3.5-3.2c1.7,0.1,3,0.9,3,2.8
		C237.8,97.3,236.4,98.1,235.1,98.2z"/>
	<path class="st19" d="M248,165.6c-1.9,0-3.5-0.7-3.5-2.6c0-2,1.4-3,3.4-2.8c1.8,0.2,3.5,0.8,3.3,3C251.1,165,249.7,165.8,248,165.6
		z"/>
	<path class="st20" d="M87.8,45.4c2,0.2,3.6,2,3.3,3.7c-0.3,1.7-1.3,2.7-3.2,2.5c-2.1-0.3-3.2-1.6-3.1-3.7
		C85,46.2,86.4,45.4,87.8,45.4z"/>
	<path class="st21" d="M94,249c0,1.9-0.8,3-2.2,3.5c-0.8,0.3-1.6,0.2-2.2-0.4c-0.6-0.6,0.1-1.1,0.2-1.7c0.2-0.7,0.5-1.4,0.8-1.9
		c0.4-0.7,0.2-2.3,1.6-1.9C93.3,246.9,94.1,247.9,94,249z"/>
	<path class="st22" d="M64.9,233.3c-0.8-0.2-1.6-0.4-1.5-1.1c0.1-0.9,0.7-2,1.7-2c0.7,0,1.3,0.7,1.2,1.5
		C66.3,232.7,65.6,233.1,64.9,233.3z"/>
	<path class="st23" d="M217.9,220.3c1.6,0.6,2.4,0.9,3.4,1.3c0.4,0.2,1,0.3,0.9,0.8c0,0.4-0.4,0.8-0.7,1c-0.5,0.3-1,0.3-1.4-0.2
		C219.4,222.5,218.9,221.7,217.9,220.3z"/>
	<path class="st24" d="M112.7,253.9c0,1.3,0,2.2,0,3.1c0,0.8-0.4,1.1-1.2,1c-0.8-0.1-1.1-0.5-0.8-1.3
		C111.2,255.9,111.4,254.8,112.7,253.9z"/>
	<path class="st25" d="M192.3,240.9c1.1,0.7,1.8,1.2,2.5,1.7c0.4,0.3,1,0.7,0.8,1.2c-0.1,0.4-0.8,0.6-1.3,0.8
		c-0.6,0.2-1-0.2-1.1-0.8C192.9,243,192.6,242.2,192.3,240.9z"/>
	<path class="st3" d="M185.5,207.7c1.9,3.4-0.6,4.5-2.5,5.6c-5.3,3.1-10.4,6.6-16.2,8.5c-1.4,0.4-2.2,0.3-3-0.7
		c-0.2-0.2-0.4-0.4-0.6-0.6c-5.1-5.1-5.4-5.1-12.4-2.8c-0.9,0.3-1.4,0.6-1.4,1.6c0,0.2-0.2,0.5-0.2,0.8c-1.9,7.2-1.9,7.2-9.4,7.5
		c-4.8,0.2-9.6-0.2-14.5-0.5c-1.4-0.1-2.4-0.6-2.5-2.1c-0.4-5.7-3.4-8.6-9.1-9.1c-1.4-0.1-2.4-0.1-3.2,1c-0.4,0.5-0.8,0.9-1.3,1.4
		c-3.9,4.1-3.9,4-9.2,1.5c-4.4-2.1-8.3-4.8-12.4-7.3c-2.7-1.7-5.6-0.7-8.3-1.4c-1.7-0.4-2.4-0.7-2.5-2.6c-0.2-3.2-0.7-6.4-1-9.6
		c-0.2-1.5-0.5-2.4-2.3-1.6c-1.5,0.7-2.3-0.3-3-1.4c-3-4.2-5.7-8.6-8-13.3c-0.6-1.3-1.4-2.6-2.2-3.8c-0.8-1.2-0.3-2.1,0.7-2.6
		c2.1-1.1,3.3-3.2,5-4.7c0.6-0.5,0.7-1.1,0.5-1.9c-0.6-1.9-1.1-3.8-1.4-5.7c-0.2-1.2-1-1.6-2-1.8c-1.8-0.4-3.6-1-5.5-1.2
		c-1.9-0.2-2.5-1.3-2.6-3c-0.5-6.4-0.6-12.7,0.3-19c0.2-1.4,0.6-2.1,2-2.2c0.4,0,0.9-0.3,1.3-0.2c5.7,0.3,7.5-3.3,8.2-8.1
		c0.2-1,0.2-1.7-0.6-2.3c-1.9-1.5-3-3.8-5.2-4.9c-1-0.5-0.7-1.3-0.2-2.1c3.3-5.4,5.9-11.3,9.8-16.4c1-1.3,2-2.2,3.7-1.5
		c0.5,0.2,1.1,0.1,1.6,0.3c4.3,1.9,7.7,0.8,10.5-3c0.7-1,1-1.7,0.8-2.8c-0.4-1.6-0.6-3.2-1.2-4.7c-1.1-2.2-0.1-3.5,1.7-4.5
		c1.8-1,3.5-2.1,5.2-3.2c1.3-0.9,3.5-1.3,2.4-3.9c-0.4-0.9,0.6-0.9,1.1-1.1c1.2-0.3,2.4-0.9,3.6-0.8c3.1,0.2,3.3-1.5,3.2-4
		c-0.2-4.6,0-4.6,4.5-5.3c13.6-2.2,27.2-2.7,40.9-1.6c5.3,0.5,10.6,1.2,15.9,2.1c1.3,0.2,1.6,0.8,1.6,2c0,2.1-0.6,4.6,0.4,6
		c1,1.4,3.8,0.8,5.8,1.3c0.9,0.2,2.2,0.1,1.9,1.9c-0.1,0.8,0.9,1,1.4,1.3c3.1,1.9,6.1,3.9,9.3,5.7c1.5,0.8,1.6,1.9,1.1,3.3
		c0,0.1,0,0.2-0.1,0.3c-1.9,7.2-1.9,7.2,3.5,11.9c0.6,0.5,1.1,0.7,1.9,0.5c1.7-0.5,3.5-0.6,5.2-1.2c2.5-0.9,4-0.2,5.4,2
		c3.1,5,6.3,10,9.1,15.3c1,1.9,0.6,3-1,4.2c-1.4,1-2.8,1.8-4.1,3c-0.8,0.8-1.5,1.5-0.8,2.5c0.6,1,1.4,0.1,2.1-0.1
		c2.9-0.9,2.9-0.9,2.4,2.2c-0.1,0.9-0.5,1.8-0.4,2.6c0.1,1-1.1,1.4-1.1,2.4c1.7,0.4,3.4,1.1,5.1,1.3c2.5,0.3,3.3,1.6,3.5,4
		c0.4,5.6,0.4,11.3,0,16.9c-0.2,2-0.7,3.6-3.1,3.8c-0.8,0.1-1.6,0.6-2.3,0.6c-3.7,0-5,2-5.6,5.5c-0.8,4.2-0.9,4.6,2.3,7.2
		c3.7,3,3.9,5.3,1.1,9.1c-3.8,5.1-7.5,10.2-6.3,17.1c0.5,2.7-0.8,3.9-3.2,4.9C195.1,207.8,190.6,207.9,185.5,207.7z"/>
	<g>
		<path class="st26" d="M149.6,203.7c-1.1,0-2.2-0.1-3.2-0.1c-4.8,0-9.6-0.6-14.4-1.2c-4.7-0.6-9.3-1.4-13.7-3.1
			c-2.3-0.9-4.6-1.8-6.3-3.9c-0.5-0.5-0.7-1.1-0.8-1.9c-0.2-9.2,2.4-17.4,7.6-24.7c4.5-6.2,10.2-10.6,16.6-14.3
			c1.9-1.1,3.8-1.1,5.6,0c5.1,3.1,10.6,3.9,16.3,3.4c3.3-0.3,6.4-1.2,9.2-3.1c1.9-1.3,3.9-1.5,5.8-0.5c8.1,4.4,15.2,10.2,20,18.6
			c2.9,5.2,4.7,10.8,5,16.9c0.1,2.1,0.4,4-0.9,5.8c-1.1,1.5-2.6,2.4-4.2,3c-3.9,1.6-7.9,2.6-12,3.1c-4.3,0.6-8.7,1-13,1.3
			c-2.5,0.2-5,0-7.6,0.3C156.4,203.9,153,203.9,149.6,203.7z"/>
		<path class="st26" d="M131.4,127.7c-0.2-13.8,10.4-24.8,22.5-24.7c13.5,0.1,23.2,10.7,23.4,24.9c0.1,13.5-10.1,24.9-23.4,24.8
			C141.7,152.6,131,141.2,131.4,127.7z"/>
		<path class="st26" d="M116.9,133.2c1.7-0.2,3.2-0.9,4.7-1.6c0.6-0.3,0.8-0.2,0.9,0.5c0.9,6.1,4.1,12.4,8.8,16.8
			c-11.4,5.3-20.4,13.4-25.8,25.8c-0.1,0.3-0.4,0.3-0.6,0.3c-1-0.2-2-0.1-3.1-0.1c-0.8,0-1.6,0-2.4-0.1c-0.7-0.2-1.4-0.2-2.1-0.2
			c-3.2-0.2-6.4-0.6-9.5-1.1c-1.6-0.4-3.1-0.6-4.7-1.1c-0.2-0.1-0.4-0.1-0.6-0.2c-1.4-0.3-2.7-0.8-4-1.4c-1.4-0.7-2.9-1.3-4.1-2.4
			c-0.3-0.2-0.5-0.5-0.7-0.8c-0.4-0.6-0.7-1.3-0.8-2c-0.2-2.5,0-5,0.5-7.4c0.3-1.4,0.5-2.8,1-4.2c0.1-0.2,0.1-0.4,0.2-0.7
			c0.4-1.5,1.1-2.9,1.6-4.3c1.7-3.4,3.6-6.6,6.3-9.2c0.2-0.3,0.5-0.5,0.7-0.8c2.4-2.7,5.2-4.9,8.1-6.8c0.9-0.7,2-1.1,2.9-1.8
			c0.5-0.3,1-0.6,1.6-0.7c1.3-0.4,2.5-0.4,3.8,0c0.7,0.3,1.4,0.7,2.1,1.1c0.8,0.5,1.6,0.9,2.5,1.1c1.3,0.4,2.5,0.7,3.8,1
			c1.8,0,3.5,0.6,5.3,0.3C114.5,133.3,115.7,132.6,116.9,133.2z"/>
		<path class="st26" d="M116.4,85c0.4,0.1,0.9,0.2,1.3,0.3c1.1,0,2.1,0.6,3.1,1c1.5,0.8,2.9,1.9,4.2,3c0.1,0.1,0.2,0.2,0.3,0.3
			c1.6,1.4,2.6,3.4,4.1,4.8c0.5,1.6,1.3,3,1.8,4.5c0.6,1.7,0.9,3.4,0.8,5.1c0,0.5-0.2,0.7-0.5,1c-5.8,5.3-9.1,12-9.6,20.2
			c-0.1,1.2-0.8,1.4-1.5,2c-1.3,1.3-3.1,1.6-4.7,2.1c-0.9,0.1-1.7,0.4-2.6,0.4c-1.6,0-3.1,0.1-4.7-0.1c-1.5-0.3-3.1-0.6-4.6-1.2
			c-1.5-0.5-2.8-1.5-4.3-2c-0.1-0.1-0.2-0.1-0.3-0.2c-1.3-1.6-3.1-2.8-4.3-4.5c-1-1.5-2.1-3-2.9-4.7c-0.5-1.1-0.9-2.2-1.3-3.3
			c-0.2-0.6-0.3-1.3-0.5-1.9c-0.5-2.1-0.3-4.2-0.4-6.3c0-0.7,0-1.4,0.1-2c0.6-3.3,1.6-6.5,3.4-9.4c0.6-0.9,1.2-1.7,1.9-2.5
			c0.6-0.6,1.2-1.3,1.8-1.9c0.7-0.7,1.3-1.5,2.4-1.7c2.6-1.8,5.5-2.9,8.5-3.7c1.9,0,3.7,0,5.6-0.1C114.6,84.6,115.5,84.8,116.4,85z"
			/>
	</g>
</g>
</svg>
