<?xml version="1.0" encoding="utf-8"?>
<!-- Generator: Adobe Illustrator 27.2.0, SVG Export Plug-In . SVG Version: 6.00 Build 0)  -->
<svg version="1.1" id="Layer_1" xmlns="http://www.w3.org/2000/svg" xmlns:xlink="http://www.w3.org/1999/xlink" x="0px" y="0px"
	 viewBox="0 0 800 800" style="enable-background:new 0 0 800 800;" xml:space="preserve">
<style type="text/css">
	.st0{fill:#4FC497;}
	.st1{fill:#DFFCFF;}
</style>
<g>
	<path class="st0" d="M760.8,139.9L671,229.7L645.3,204c-20.9-20.9-20.9-54.7,0-75.5l14.3-14.3c20.9-20.9,54.7-20.9,75.5,0
		L760.8,139.9z"/>
	<g>
		<path class="st0" d="M579.6,89.1c7.8,4.7,15.5,9.7,22.9,15c2.8,2,6,3,9.2,3c5,0,9.9-2.3,13-6.7c5.1-7.2,3.4-17.1-3.8-22.2
			c-8.1-5.7-16.4-11.2-24.9-16.3c-7.5-4.5-17.3-2.1-21.9,5.4C569.7,74.7,572.1,84.5,579.6,89.1z"/>
		<path class="st0" d="M393.3,792.5c105.1,0,203.9-40.9,278.2-115.2c74.3-74.4,115.2-173.2,115.2-278.3
			c-0.1-12.4-6.9-19.2-19.3-19.3c-105.1,0-203.9,40.9-278.2,115.2C418,566.1,377.5,659.8,374.2,760C183.9,750,31.7,591.3,31.7,399
			c0-199.4,162.2-361.6,361.6-361.6c47.8,0,94.3,9.2,138.1,27.3c8.1,3.4,17.5-0.5,20.8-8.6c3.4-8.1-0.5-17.5-8.6-20.8
			C495.8,15.5,445.3,5.5,393.3,5.5c-105.1,0-203.9,40.9-278.2,115.2S-0.2,293.9-0.2,399c0,104.5,40.5,202.9,114.1,277.1
			c73.5,74.1,171.5,115.4,275.9,116.3l0,0L393.3,792.5z M428.4,758.9l121.4-121.4c6.2-6.2,6.2-16.3,0-22.5s-16.3-6.2-22.5,0
			L407.9,734.3c19-177,166.3-316.1,346.7-322.5C748.2,593.5,607.2,741.5,428.4,758.9z"/>
		<path class="st0" d="M585.4,595.3c4.1,0,8.2-1.6,11.3-4.7l25.9-25.9c6.2-6.2,6.2-16.3,0-22.5s-16.3-6.2-22.5,0l-25.9,25.9
			c-6.2,6.2-6.2,16.3,0,22.5C577.2,593.8,581.3,595.3,585.4,595.3z"/>
		<path class="st0" d="M795.1,188l-29.9-29.9l6.9-6.9c3-3,4.7-7,4.7-11.3c0-4.2-1.7-8.3-4.7-11.3L746.4,103
			c-13.1-13.1-30.5-20.3-49-20.3s-35.9,7.2-49,20.3l-14.3,14.3c-13.1,13.1-20.3,30.5-20.3,49s7.2,35.9,20.3,49l25.7,25.7
			c3.1,3.1,7.2,4.7,11.3,4.7s8.2-1.6,11.3-4.7l6.9-6.9l29.9,29.9c3.1,3.1,7.2,4.7,11.3,4.7s8.2-1.6,11.3-4.7
			c6.2-6.2,6.2-16.3,0-22.5l-29.9-29.9l31-31l29.9,29.9c3.1,3.1,7.2,4.7,11.3,4.7s8.2-1.6,11.3-4.7
			C801.4,204.3,801.4,194.2,795.1,188z M656.5,192.8c-7.1-7.1-11-16.5-11-26.5s3.9-19.4,11-26.5l14.3-14.3c7.1-7.1,16.5-11,26.5-11
			s19.4,3.9,26.5,11l14.4,14.4l-67.3,67.3L656.5,192.8z"/>
	</g>
</g>
<g>
	<path class="st1" d="M399.5,616.2c-9.8,0-18.3-3.6-25.5-10.7c-7.2-7.2-10.8-15.9-10.8-26.1c0-9.8,3.6-18.3,10.8-25.5
		c7.2-7.2,15.7-10.8,25.5-10.8c10.2,0,18.9,3.6,26.1,10.8c7.2,7.2,10.8,15.7,10.8,25.5c0,10.2-3.6,18.9-10.8,26.1
		C418.5,612.6,409.8,616.2,399.5,616.2z M399.5,495.2c-6.6,0-11.6-1.6-15.1-4.9c-3.5-3.3-5.4-7.6-5.8-12.9l-11.1-202.8v-60.8
		c0-9,3.1-16.6,9.2-22.7c6.1-6.1,13.7-9.2,22.7-9.2c9,0,16.5,3.1,22.4,9.2c5.9,6.1,8.9,13.7,8.9,22.7v60.8l-11.1,202.8
		c-0.4,5.3-2.3,9.6-5.5,12.9C411,493.5,406.1,495.2,399.5,495.2z"/>
</g>
</svg>
