<?xml version="1.0" encoding="utf-8"?>
<!-- Generator: Adobe Illustrator 27.2.0, SVG Export Plug-In . SVG Version: 6.00 Build 0)  -->
<svg version="1.1" id="Layer_1" xmlns="http://www.w3.org/2000/svg" xmlns:xlink="http://www.w3.org/1999/xlink" x="0px" y="0px"
	 viewBox="0 0 800 800" style="enable-background:new 0 0 800 800;" xml:space="preserve">
<style type="text/css">
	.st0{fill:#90DFAA;}
	.st1{fill:#FFFFFF;}
	.st2{fill:#324A5E;}
</style>
<circle class="st0" cx="400" cy="400" r="400"/>
<g>
	<path class="st1" d="M400,103.3c-163.8,0-296.7,132.9-296.7,296.7S236.2,696.7,400,696.7S696.7,563.8,696.7,400
		S563.8,103.3,400,103.3z M400,616.7c-119.7,0-216.7-97-216.7-216.7s97-216.7,216.7-216.7s216.7,97,216.7,216.7
		S519.7,616.7,400,616.7z"/>
</g>
<g>
	<path class="st2" d="M455.4,628.4c-4.2,0-8.4-0.4-12.2-0.4c-18.4,0-36.7-2.3-55.1-4.6c-18-2.3-35.6-5.4-52.4-11.9
		c-8.8-3.4-17.6-6.9-24.1-14.9c-1.9-1.9-2.7-4.2-3.1-7.3c-0.8-35.2,9.2-66.6,29.1-94.5c17.2-23.7,39-40.6,63.5-54.7
		c7.3-4.2,14.5-4.2,21.4,0c19.5,11.9,40.6,14.9,62.4,13c12.6-1.1,24.5-4.6,35.2-11.9c7.3-5,14.9-5.7,22.2-1.9
		c31,16.8,58.2,39,76.5,71.2c11.1,19.9,18,41.3,19.1,64.7c0.4,8,1.5,15.3-3.4,22.2c-4.2,5.7-9.9,9.2-16.1,11.5
		c-14.9,6.1-30.2,9.9-45.9,11.9c-16.5,2.3-33.3,3.8-49.7,5c-9.6,0.8-19.1,0-29.1,1.1C481.5,629.2,468.5,629.2,455.4,628.4z"/>
	<path class="st2" d="M385.8,337.6c-0.8-52.8,39.8-94.9,86.1-94.5c51.7,0.4,88.8,40.9,89.5,95.3c0.4,51.7-38.7,95.3-89.5,94.9
		C425.2,432.9,384.3,389.2,385.8,337.6z"/>
	<path class="st2" d="M330.3,358.6c6.5-0.8,12.2-3.4,18-6.1c2.3-1.1,3.1-0.8,3.4,1.9c3.4,23.3,15.7,47.5,33.7,64.3
		c-43.6,20.3-78.1,51.3-98.7,98.7c-0.4,1.1-1.5,1.1-2.3,1.1c-3.8-0.8-7.7-0.4-11.9-0.4c-3.1,0-6.1,0-9.2-0.4c-2.7-0.8-5.4-0.8-8-0.8
		c-12.2-0.8-24.5-2.3-36.4-4.2c-6.1-1.5-11.9-2.3-18-4.2c-0.8-0.4-1.5-0.4-2.3-0.8c-5.4-1.1-10.3-3.1-15.3-5.4
		c-5.4-2.7-11.1-5-15.7-9.2c-1.1-0.8-1.9-1.9-2.7-3.1c-1.5-2.3-2.7-5-3.1-7.7c-0.8-9.6,0-19.1,1.9-28.3c1.1-5.4,1.9-10.7,3.8-16.1
		c0.4-0.8,0.4-1.5,0.8-2.7c1.5-5.7,4.2-11.1,6.1-16.5c6.5-13,13.8-25.3,24.1-35.2c0.8-1.1,1.9-1.9,2.7-3.1c9.2-10.3,19.9-18.8,31-26
		c3.4-2.7,7.7-4.2,11.1-6.9c1.9-1.1,3.8-2.3,6.1-2.7c5-1.5,9.6-1.5,14.5,0c2.7,1.1,5.4,2.7,8,4.2c3.1,1.9,6.1,3.4,9.6,4.2
		c5,1.5,9.6,2.7,14.5,3.8c6.9,0,13.4,2.3,20.3,1.1C321.1,359,325.7,356.3,330.3,358.6z"/>
	<path class="st2" d="M328.4,174.2c1.5,0.4,3.4,0.8,5,1.1c4.2,0,8,2.3,11.9,3.8c5.7,3.1,11.1,7.3,16.1,11.5c0.4,0.4,0.8,0.8,1.1,1.1
		c6.1,5.4,9.9,13,15.7,18.4c1.9,6.1,5,11.5,6.9,17.2c2.3,6.5,3.4,13,3.1,19.5c0,1.9-0.8,2.7-1.9,3.8C364,271,351.4,296.6,349.4,328
		c-0.4,4.6-3.1,5.4-5.7,7.7c-5,5-11.9,6.1-18,8c-3.4,0.4-6.5,1.5-9.9,1.5c-6.1,0-11.9,0.4-18-0.4c-5.7-1.1-11.9-2.3-17.6-4.6
		c-5.7-1.9-10.7-5.7-16.5-7.7c-0.4-0.4-0.8-0.4-1.1-0.8c-5-6.1-11.9-10.7-16.5-17.2c-3.8-5.7-8-11.5-11.1-18
		c-1.9-4.2-3.4-8.4-5-12.6c-0.8-2.3-1.1-5-1.9-7.3c-1.9-8-1.1-16.1-1.5-24.1c0-2.7,0-5.4,0.4-7.7c2.3-12.6,6.1-24.9,13-36
		c2.3-3.4,4.6-6.5,7.3-9.6c2.3-2.3,4.6-5,6.9-7.3c2.7-2.7,5-5.7,9.2-6.5c9.9-6.9,21-11.1,32.5-14.2c7.3,0,14.2,0,21.4-0.4
		C321.5,172.6,324.9,173.4,328.4,174.2z"/>
</g>
</svg>
